<?xml version="1.0" encoding="utf-8" standalone="no"?>
<!DOCTYPE svg PUBLIC "-//W3C//DTD SVG 1.1//EN"
  "http://www.w3.org/Graphics/SVG/1.1/DTD/svg11.dtd">
<svg xmlns:xlink="http://www.w3.org/1999/xlink" width="856.76875pt" height="496.591125pt" viewBox="0 0 856.76875 496.591125" xmlns="http://www.w3.org/2000/svg" version="1.1">
 <metadata>
  <rdf:RDF xmlns:dc="http://purl.org/dc/elements/1.1/" xmlns:cc="http://creativecommons.org/ns#" xmlns:rdf="http://www.w3.org/1999/02/22-rdf-syntax-ns#">
   <cc:Work>
    <dc:type rdf:resource="http://purl.org/dc/dcmitype/StillImage"/>
    <dc:date>2025-11-02T23:40:55.103797</dc:date>
    <dc:format>image/svg+xml</dc:format>
    <dc:creator>
     <cc:Agent>
      <dc:title>Matplotlib v3.10.7, https://matplotlib.org/</dc:title>
     </cc:Agent>
    </dc:creator>
   </cc:Work>
  </rdf:RDF>
 </metadata>
 <defs>
  <style type="text/css">*{stroke-linejoin: round; stroke-linecap: butt}</style>
 </defs>
 <g id="figure_1">
  <g id="patch_1">
   <path d="M 0 496.591125
L 856.76875 496.591125
L 856.76875 0
L 0 0
z
" style="fill: #ffffff"/>
  </g>
  <g id="axes_1">
   <g id="patch_2">
    <path d="M 40.45875 457.713625
L 849.56875 457.713625
L 849.56875 52.213625
L 40.45875 52.213625
z
" style="fill: #eaeaf2"/>
   </g>
   <g id="matplotlib.axis_1">
    <g id="xtick_1">
     <g id="line2d_1">
      <path d="M 88.106741 457.713625
L 88.106741 52.213625
" clip-path="url(#p8602ee892f)" style="fill: none; stroke-dasharray: 1.85,0.8; stroke-dashoffset: 0; stroke: #ffffff; stroke-opacity: 0.3; stroke-width: 0.5"/>
     </g>
     <g id="text_1">
      <!-- 100 -->
      <g style="fill: #262626" transform="translate(81.433616 472.539875) scale(0.08 -0.08)">
       <defs>
        <path id="ArialMT-31" d="M 2384 0
L 1822 0
L 1822 3584
Q 1619 3391 1289 3197
Q 959 3003 697 2906
L 697 3450
Q 1169 3672 1522 3987
Q 1875 4303 2022 4600
L 2384 4600
L 2384 0
z
" transform="scale(0.015625)"/>
        <path id="ArialMT-30" d="M 266 2259
Q 266 3072 433 3567
Q 600 4063 929 4331
Q 1259 4600 1759 4600
Q 2128 4600 2406 4451
Q 2684 4303 2865 4023
Q 3047 3744 3150 3342
Q 3253 2941 3253 2259
Q 3253 1453 3087 958
Q 2922 463 2592 192
Q 2263 -78 1759 -78
Q 1097 -78 719 397
Q 266 969 266 2259
z
M 844 2259
Q 844 1131 1108 757
Q 1372 384 1759 384
Q 2147 384 2411 759
Q 2675 1134 2675 2259
Q 2675 3391 2411 3762
Q 2147 4134 1753 4134
Q 1366 4134 1134 3806
Q 844 3388 844 2259
z
" transform="scale(0.015625)"/>
       </defs>
       <use xlink:href="#ArialMT-31"/>
       <use xlink:href="#ArialMT-30" transform="translate(55.615234 0)"/>
       <use xlink:href="#ArialMT-30" transform="translate(111.230469 0)"/>
      </g>
     </g>
    </g>
    <g id="xtick_2">
     <g id="line2d_2">
      <path d="M 178.692277 457.713625
L 178.692277 52.213625
" clip-path="url(#p8602ee892f)" style="fill: none; stroke-dasharray: 1.85,0.8; stroke-dashoffset: 0; stroke: #ffffff; stroke-opacity: 0.3; stroke-width: 0.5"/>
     </g>
     <g id="text_2">
      <!-- 200 -->
      <g style="fill: #262626" transform="translate(172.019152 472.539875) scale(0.08 -0.08)">
       <defs>
        <path id="ArialMT-32" d="M 3222 541
L 3222 0
L 194 0
Q 188 203 259 391
Q 375 700 629 1000
Q 884 1300 1366 1694
Q 2113 2306 2375 2664
Q 2638 3022 2638 3341
Q 2638 3675 2398 3904
Q 2159 4134 1775 4134
Q 1369 4134 1125 3890
Q 881 3647 878 3216
L 300 3275
Q 359 3922 746 4261
Q 1134 4600 1788 4600
Q 2447 4600 2831 4234
Q 3216 3869 3216 3328
Q 3216 3053 3103 2787
Q 2991 2522 2730 2228
Q 2469 1934 1863 1422
Q 1356 997 1212 845
Q 1069 694 975 541
L 3222 541
z
" transform="scale(0.015625)"/>
       </defs>
       <use xlink:href="#ArialMT-32"/>
       <use xlink:href="#ArialMT-30" transform="translate(55.615234 0)"/>
       <use xlink:href="#ArialMT-30" transform="translate(111.230469 0)"/>
      </g>
     </g>
    </g>
    <g id="xtick_3">
     <g id="line2d_3">
      <path d="M 269.277812 457.713625
L 269.277812 52.213625
" clip-path="url(#p8602ee892f)" style="fill: none; stroke-dasharray: 1.85,0.8; stroke-dashoffset: 0; stroke: #ffffff; stroke-opacity: 0.3; stroke-width: 0.5"/>
     </g>
     <g id="text_3">
      <!-- 300 -->
      <g style="fill: #262626" transform="translate(262.604687 472.539875) scale(0.08 -0.08)">
       <defs>
        <path id="ArialMT-33" d="M 269 1209
L 831 1284
Q 928 806 1161 595
Q 1394 384 1728 384
Q 2125 384 2398 659
Q 2672 934 2672 1341
Q 2672 1728 2419 1979
Q 2166 2231 1775 2231
Q 1616 2231 1378 2169
L 1441 2663
Q 1497 2656 1531 2656
Q 1891 2656 2178 2843
Q 2466 3031 2466 3422
Q 2466 3731 2256 3934
Q 2047 4138 1716 4138
Q 1388 4138 1169 3931
Q 950 3725 888 3313
L 325 3413
Q 428 3978 793 4289
Q 1159 4600 1703 4600
Q 2078 4600 2393 4439
Q 2709 4278 2876 4000
Q 3044 3722 3044 3409
Q 3044 3113 2884 2869
Q 2725 2625 2413 2481
Q 2819 2388 3044 2092
Q 3269 1797 3269 1353
Q 3269 753 2831 336
Q 2394 -81 1725 -81
Q 1122 -81 723 278
Q 325 638 269 1209
z
" transform="scale(0.015625)"/>
       </defs>
       <use xlink:href="#ArialMT-33"/>
       <use xlink:href="#ArialMT-30" transform="translate(55.615234 0)"/>
       <use xlink:href="#ArialMT-30" transform="translate(111.230469 0)"/>
      </g>
     </g>
    </g>
    <g id="xtick_4">
     <g id="line2d_4">
      <path d="M 359.863347 457.713625
L 359.863347 52.213625
" clip-path="url(#p8602ee892f)" style="fill: none; stroke-dasharray: 1.85,0.8; stroke-dashoffset: 0; stroke: #ffffff; stroke-opacity: 0.3; stroke-width: 0.5"/>
     </g>
     <g id="text_4">
      <!-- 400 -->
      <g style="fill: #262626" transform="translate(353.190222 472.539875) scale(0.08 -0.08)">
       <defs>
        <path id="ArialMT-34" d="M 2069 0
L 2069 1097
L 81 1097
L 81 1613
L 2172 4581
L 2631 4581
L 2631 1613
L 3250 1613
L 3250 1097
L 2631 1097
L 2631 0
L 2069 0
z
M 2069 1613
L 2069 3678
L 634 1613
L 2069 1613
z
" transform="scale(0.015625)"/>
       </defs>
       <use xlink:href="#ArialMT-34"/>
       <use xlink:href="#ArialMT-30" transform="translate(55.615234 0)"/>
       <use xlink:href="#ArialMT-30" transform="translate(111.230469 0)"/>
      </g>
     </g>
    </g>
    <g id="xtick_5">
     <g id="line2d_5">
      <path d="M 450.448882 457.713625
L 450.448882 52.213625
" clip-path="url(#p8602ee892f)" style="fill: none; stroke-dasharray: 1.85,0.8; stroke-dashoffset: 0; stroke: #ffffff; stroke-opacity: 0.3; stroke-width: 0.5"/>
     </g>
     <g id="text_5">
      <!-- 500 -->
      <g style="fill: #262626" transform="translate(443.775757 472.539875) scale(0.08 -0.08)">
       <defs>
        <path id="ArialMT-35" d="M 266 1200
L 856 1250
Q 922 819 1161 601
Q 1400 384 1738 384
Q 2144 384 2425 690
Q 2706 997 2706 1503
Q 2706 1984 2436 2262
Q 2166 2541 1728 2541
Q 1456 2541 1237 2417
Q 1019 2294 894 2097
L 366 2166
L 809 4519
L 3088 4519
L 3088 3981
L 1259 3981
L 1013 2750
Q 1425 3038 1878 3038
Q 2478 3038 2890 2622
Q 3303 2206 3303 1553
Q 3303 931 2941 478
Q 2500 -78 1738 -78
Q 1113 -78 717 272
Q 322 622 266 1200
z
" transform="scale(0.015625)"/>
       </defs>
       <use xlink:href="#ArialMT-35"/>
       <use xlink:href="#ArialMT-30" transform="translate(55.615234 0)"/>
       <use xlink:href="#ArialMT-30" transform="translate(111.230469 0)"/>
      </g>
     </g>
    </g>
    <g id="xtick_6">
     <g id="line2d_6">
      <path d="M 541.034417 457.713625
L 541.034417 52.213625
" clip-path="url(#p8602ee892f)" style="fill: none; stroke-dasharray: 1.85,0.8; stroke-dashoffset: 0; stroke: #ffffff; stroke-opacity: 0.3; stroke-width: 0.5"/>
     </g>
     <g id="text_6">
      <!-- 600 -->
      <g style="fill: #262626" transform="translate(534.361292 472.539875) scale(0.08 -0.08)">
       <defs>
        <path id="ArialMT-36" d="M 3184 3459
L 2625 3416
Q 2550 3747 2413 3897
Q 2184 4138 1850 4138
Q 1581 4138 1378 3988
Q 1113 3794 959 3422
Q 806 3050 800 2363
Q 1003 2672 1297 2822
Q 1591 2972 1913 2972
Q 2475 2972 2870 2558
Q 3266 2144 3266 1488
Q 3266 1056 3080 686
Q 2894 316 2569 119
Q 2244 -78 1831 -78
Q 1128 -78 684 439
Q 241 956 241 2144
Q 241 3472 731 4075
Q 1159 4600 1884 4600
Q 2425 4600 2770 4297
Q 3116 3994 3184 3459
z
M 888 1484
Q 888 1194 1011 928
Q 1134 663 1356 523
Q 1578 384 1822 384
Q 2178 384 2434 671
Q 2691 959 2691 1453
Q 2691 1928 2437 2201
Q 2184 2475 1800 2475
Q 1419 2475 1153 2201
Q 888 1928 888 1484
z
" transform="scale(0.015625)"/>
       </defs>
       <use xlink:href="#ArialMT-36"/>
       <use xlink:href="#ArialMT-30" transform="translate(55.615234 0)"/>
       <use xlink:href="#ArialMT-30" transform="translate(111.230469 0)"/>
      </g>
     </g>
    </g>
    <g id="xtick_7">
     <g id="line2d_7">
      <path d="M 631.619952 457.713625
L 631.619952 52.213625
" clip-path="url(#p8602ee892f)" style="fill: none; stroke-dasharray: 1.85,0.8; stroke-dashoffset: 0; stroke: #ffffff; stroke-opacity: 0.3; stroke-width: 0.5"/>
     </g>
     <g id="text_7">
      <!-- 700 -->
      <g style="fill: #262626" transform="translate(624.946827 472.539875) scale(0.08 -0.08)">
       <defs>
        <path id="ArialMT-37" d="M 303 3981
L 303 4522
L 3269 4522
L 3269 4084
Q 2831 3619 2401 2847
Q 1972 2075 1738 1259
Q 1569 684 1522 0
L 944 0
Q 953 541 1156 1306
Q 1359 2072 1739 2783
Q 2119 3494 2547 3981
L 303 3981
z
" transform="scale(0.015625)"/>
       </defs>
       <use xlink:href="#ArialMT-37"/>
       <use xlink:href="#ArialMT-30" transform="translate(55.615234 0)"/>
       <use xlink:href="#ArialMT-30" transform="translate(111.230469 0)"/>
      </g>
     </g>
    </g>
    <g id="xtick_8">
     <g id="line2d_8">
      <path d="M 722.205488 457.713625
L 722.205488 52.213625
" clip-path="url(#p8602ee892f)" style="fill: none; stroke-dasharray: 1.85,0.8; stroke-dashoffset: 0; stroke: #ffffff; stroke-opacity: 0.3; stroke-width: 0.5"/>
     </g>
     <g id="text_8">
      <!-- 800 -->
      <g style="fill: #262626" transform="translate(715.532363 472.539875) scale(0.08 -0.08)">
       <defs>
        <path id="ArialMT-38" d="M 1131 2484
Q 781 2613 612 2850
Q 444 3088 444 3419
Q 444 3919 803 4259
Q 1163 4600 1759 4600
Q 2359 4600 2725 4251
Q 3091 3903 3091 3403
Q 3091 3084 2923 2848
Q 2756 2613 2416 2484
Q 2838 2347 3058 2040
Q 3278 1734 3278 1309
Q 3278 722 2862 322
Q 2447 -78 1769 -78
Q 1091 -78 675 323
Q 259 725 259 1325
Q 259 1772 486 2073
Q 713 2375 1131 2484
z
M 1019 3438
Q 1019 3113 1228 2906
Q 1438 2700 1772 2700
Q 2097 2700 2305 2904
Q 2513 3109 2513 3406
Q 2513 3716 2298 3927
Q 2084 4138 1766 4138
Q 1444 4138 1231 3931
Q 1019 3725 1019 3438
z
M 838 1322
Q 838 1081 952 856
Q 1066 631 1291 507
Q 1516 384 1775 384
Q 2178 384 2440 643
Q 2703 903 2703 1303
Q 2703 1709 2433 1975
Q 2163 2241 1756 2241
Q 1359 2241 1098 1978
Q 838 1716 838 1322
z
" transform="scale(0.015625)"/>
       </defs>
       <use xlink:href="#ArialMT-38"/>
       <use xlink:href="#ArialMT-30" transform="translate(55.615234 0)"/>
       <use xlink:href="#ArialMT-30" transform="translate(111.230469 0)"/>
      </g>
     </g>
    </g>
    <g id="xtick_9">
     <g id="line2d_9">
      <path d="M 812.791023 457.713625
L 812.791023 52.213625
" clip-path="url(#p8602ee892f)" style="fill: none; stroke-dasharray: 1.85,0.8; stroke-dashoffset: 0; stroke: #ffffff; stroke-opacity: 0.3; stroke-width: 0.5"/>
     </g>
     <g id="text_9">
      <!-- 900 -->
      <g style="fill: #262626" transform="translate(806.117898 472.539875) scale(0.08 -0.08)">
       <defs>
        <path id="ArialMT-39" d="M 350 1059
L 891 1109
Q 959 728 1153 556
Q 1347 384 1650 384
Q 1909 384 2104 503
Q 2300 622 2425 820
Q 2550 1019 2634 1356
Q 2719 1694 2719 2044
Q 2719 2081 2716 2156
Q 2547 1888 2255 1720
Q 1963 1553 1622 1553
Q 1053 1553 659 1965
Q 266 2378 266 3053
Q 266 3750 677 4175
Q 1088 4600 1706 4600
Q 2153 4600 2523 4359
Q 2894 4119 3086 3673
Q 3278 3228 3278 2384
Q 3278 1506 3087 986
Q 2897 466 2520 194
Q 2144 -78 1638 -78
Q 1100 -78 759 220
Q 419 519 350 1059
z
M 2653 3081
Q 2653 3566 2395 3850
Q 2138 4134 1775 4134
Q 1400 4134 1122 3828
Q 844 3522 844 3034
Q 844 2597 1108 2323
Q 1372 2050 1759 2050
Q 2150 2050 2401 2323
Q 2653 2597 2653 3081
z
" transform="scale(0.015625)"/>
       </defs>
       <use xlink:href="#ArialMT-39"/>
       <use xlink:href="#ArialMT-30" transform="translate(55.615234 0)"/>
       <use xlink:href="#ArialMT-30" transform="translate(111.230469 0)"/>
      </g>
     </g>
    </g>
    <g id="text_10">
     <!-- Output Tokens (response length) -->
     <g style="fill: #262626" transform="translate(351.12875 486.8655) scale(0.12 -0.12)">
      <defs>
       <path id="Arial-BoldMT-4f" d="M 278 2263
Q 278 2963 488 3438
Q 644 3788 914 4066
Q 1184 4344 1506 4478
Q 1934 4659 2494 4659
Q 3506 4659 4114 4031
Q 4722 3403 4722 2284
Q 4722 1175 4119 548
Q 3516 -78 2506 -78
Q 1484 -78 881 545
Q 278 1169 278 2263
z
M 1231 2294
Q 1231 1516 1590 1114
Q 1950 713 2503 713
Q 3056 713 3411 1111
Q 3766 1509 3766 2306
Q 3766 3094 3420 3481
Q 3075 3869 2503 3869
Q 1931 3869 1581 3476
Q 1231 3084 1231 2294
z
" transform="scale(0.015625)"/>
       <path id="Arial-BoldMT-75" d="M 2644 0
L 2644 497
Q 2463 231 2167 78
Q 1872 -75 1544 -75
Q 1209 -75 943 72
Q 678 219 559 484
Q 441 750 441 1219
L 441 3319
L 1319 3319
L 1319 1794
Q 1319 1094 1367 936
Q 1416 778 1544 686
Q 1672 594 1869 594
Q 2094 594 2272 717
Q 2450 841 2515 1023
Q 2581 1206 2581 1919
L 2581 3319
L 3459 3319
L 3459 0
L 2644 0
z
" transform="scale(0.015625)"/>
       <path id="Arial-BoldMT-74" d="M 1981 3319
L 1981 2619
L 1381 2619
L 1381 1281
Q 1381 875 1398 808
Q 1416 741 1477 697
Q 1538 653 1625 653
Q 1747 653 1978 738
L 2053 56
Q 1747 -75 1359 -75
Q 1122 -75 931 4
Q 741 84 652 211
Q 563 338 528 553
Q 500 706 500 1172
L 500 2619
L 97 2619
L 97 3319
L 500 3319
L 500 3978
L 1381 4491
L 1381 3319
L 1981 3319
z
" transform="scale(0.015625)"/>
       <path id="Arial-BoldMT-70" d="M 434 3319
L 1253 3319
L 1253 2831
Q 1413 3081 1684 3237
Q 1956 3394 2288 3394
Q 2866 3394 3269 2941
Q 3672 2488 3672 1678
Q 3672 847 3265 386
Q 2859 -75 2281 -75
Q 2006 -75 1782 34
Q 1559 144 1313 409
L 1313 -1263
L 434 -1263
L 434 3319
z
M 1303 1716
Q 1303 1156 1525 889
Q 1747 622 2066 622
Q 2372 622 2575 867
Q 2778 1113 2778 1672
Q 2778 2194 2568 2447
Q 2359 2700 2050 2700
Q 1728 2700 1515 2451
Q 1303 2203 1303 1716
z
" transform="scale(0.015625)"/>
       <path id="Arial-BoldMT-20" transform="scale(0.015625)"/>
       <path id="Arial-BoldMT-54" d="M 1497 0
L 1497 3806
L 138 3806
L 138 4581
L 3778 4581
L 3778 3806
L 2422 3806
L 2422 0
L 1497 0
z
" transform="scale(0.015625)"/>
       <path id="Arial-BoldMT-6f" d="M 256 1706
Q 256 2144 472 2553
Q 688 2963 1083 3178
Q 1478 3394 1966 3394
Q 2719 3394 3200 2905
Q 3681 2416 3681 1669
Q 3681 916 3195 420
Q 2709 -75 1972 -75
Q 1516 -75 1102 131
Q 688 338 472 736
Q 256 1134 256 1706
z
M 1156 1659
Q 1156 1166 1390 903
Q 1625 641 1969 641
Q 2313 641 2545 903
Q 2778 1166 2778 1666
Q 2778 2153 2545 2415
Q 2313 2678 1969 2678
Q 1625 2678 1390 2415
Q 1156 2153 1156 1659
z
" transform="scale(0.015625)"/>
       <path id="Arial-BoldMT-6b" d="M 428 0
L 428 4581
L 1306 4581
L 1306 2150
L 2334 3319
L 3416 3319
L 2281 2106
L 3497 0
L 2550 0
L 1716 1491
L 1306 1063
L 1306 0
L 428 0
z
" transform="scale(0.015625)"/>
       <path id="Arial-BoldMT-65" d="M 2381 1056
L 3256 909
Q 3088 428 2723 176
Q 2359 -75 1813 -75
Q 947 -75 531 491
Q 203 944 203 1634
Q 203 2459 634 2926
Q 1066 3394 1725 3394
Q 2466 3394 2894 2905
Q 3322 2416 3303 1406
L 1103 1406
Q 1113 1016 1316 798
Q 1519 581 1822 581
Q 2028 581 2168 693
Q 2309 806 2381 1056
z
M 2431 1944
Q 2422 2325 2234 2523
Q 2047 2722 1778 2722
Q 1491 2722 1303 2513
Q 1116 2303 1119 1944
L 2431 1944
z
" transform="scale(0.015625)"/>
       <path id="Arial-BoldMT-6e" d="M 3478 0
L 2600 0
L 2600 1694
Q 2600 2231 2544 2389
Q 2488 2547 2361 2634
Q 2234 2722 2056 2722
Q 1828 2722 1647 2597
Q 1466 2472 1398 2265
Q 1331 2059 1331 1503
L 1331 0
L 453 0
L 453 3319
L 1269 3319
L 1269 2831
Q 1703 3394 2363 3394
Q 2653 3394 2893 3289
Q 3134 3184 3257 3021
Q 3381 2859 3429 2653
Q 3478 2447 3478 2063
L 3478 0
z
" transform="scale(0.015625)"/>
       <path id="Arial-BoldMT-73" d="M 150 947
L 1031 1081
Q 1088 825 1259 692
Q 1431 559 1741 559
Q 2081 559 2253 684
Q 2369 772 2369 919
Q 2369 1019 2306 1084
Q 2241 1147 2013 1200
Q 950 1434 666 1628
Q 272 1897 272 2375
Q 272 2806 612 3100
Q 953 3394 1669 3394
Q 2350 3394 2681 3172
Q 3013 2950 3138 2516
L 2309 2363
Q 2256 2556 2107 2659
Q 1959 2763 1684 2763
Q 1338 2763 1188 2666
Q 1088 2597 1088 2488
Q 1088 2394 1175 2328
Q 1294 2241 1995 2081
Q 2697 1922 2975 1691
Q 3250 1456 3250 1038
Q 3250 581 2869 253
Q 2488 -75 1741 -75
Q 1063 -75 667 200
Q 272 475 150 947
z
" transform="scale(0.015625)"/>
       <path id="Arial-BoldMT-28" d="M 1916 -1347
L 1313 -1347
Q 834 -625 584 153
Q 334 931 334 1659
Q 334 2563 644 3369
Q 913 4069 1325 4659
L 1925 4659
Q 1497 3713 1336 3048
Q 1175 2384 1175 1641
Q 1175 1128 1270 590
Q 1366 53 1531 -431
Q 1641 -750 1916 -1347
z
" transform="scale(0.015625)"/>
       <path id="Arial-BoldMT-72" d="M 1300 0
L 422 0
L 422 3319
L 1238 3319
L 1238 2847
Q 1447 3181 1614 3287
Q 1781 3394 1994 3394
Q 2294 3394 2572 3228
L 2300 2463
Q 2078 2606 1888 2606
Q 1703 2606 1575 2504
Q 1447 2403 1373 2137
Q 1300 1872 1300 1025
L 1300 0
z
" transform="scale(0.015625)"/>
       <path id="Arial-BoldMT-6c" d="M 459 0
L 459 4581
L 1338 4581
L 1338 0
L 459 0
z
" transform="scale(0.015625)"/>
       <path id="Arial-BoldMT-67" d="M 378 -219
L 1381 -341
Q 1406 -516 1497 -581
Q 1622 -675 1891 -675
Q 2234 -675 2406 -572
Q 2522 -503 2581 -350
Q 2622 -241 2622 53
L 2622 538
Q 2228 0 1628 0
Q 959 0 569 566
Q 263 1013 263 1678
Q 263 2513 664 2953
Q 1066 3394 1663 3394
Q 2278 3394 2678 2853
L 2678 3319
L 3500 3319
L 3500 341
Q 3500 -247 3403 -537
Q 3306 -828 3131 -993
Q 2956 -1159 2664 -1253
Q 2372 -1347 1925 -1347
Q 1081 -1347 728 -1058
Q 375 -769 375 -325
Q 375 -281 378 -219
z
M 1163 1728
Q 1163 1200 1367 954
Q 1572 709 1872 709
Q 2194 709 2416 961
Q 2638 1213 2638 1706
Q 2638 2222 2425 2472
Q 2213 2722 1888 2722
Q 1572 2722 1367 2476
Q 1163 2231 1163 1728
z
" transform="scale(0.015625)"/>
       <path id="Arial-BoldMT-68" d="M 1334 4581
L 1334 2897
Q 1759 3394 2350 3394
Q 2653 3394 2897 3281
Q 3141 3169 3264 2994
Q 3388 2819 3433 2606
Q 3478 2394 3478 1947
L 3478 0
L 2600 0
L 2600 1753
Q 2600 2275 2550 2415
Q 2500 2556 2373 2639
Q 2247 2722 2056 2722
Q 1838 2722 1666 2615
Q 1494 2509 1414 2295
Q 1334 2081 1334 1663
L 1334 0
L 456 0
L 456 4581
L 1334 4581
z
" transform="scale(0.015625)"/>
       <path id="Arial-BoldMT-29" d="M 216 -1347
Q 475 -791 581 -494
Q 688 -197 778 190
Q 869 578 912 926
Q 956 1275 956 1641
Q 956 2384 797 3048
Q 638 3713 209 4659
L 806 4659
Q 1278 3988 1539 3234
Q 1800 2481 1800 1706
Q 1800 1053 1594 306
Q 1359 -531 822 -1347
L 216 -1347
z
" transform="scale(0.015625)"/>
      </defs>
      <use xlink:href="#Arial-BoldMT-4f"/>
      <use xlink:href="#Arial-BoldMT-75" transform="translate(77.783203 0)"/>
      <use xlink:href="#Arial-BoldMT-74" transform="translate(138.867188 0)"/>
      <use xlink:href="#Arial-BoldMT-70" transform="translate(172.167969 0)"/>
      <use xlink:href="#Arial-BoldMT-75" transform="translate(233.251953 0)"/>
      <use xlink:href="#Arial-BoldMT-74" transform="translate(294.335938 0)"/>
      <use xlink:href="#Arial-BoldMT-20" transform="translate(327.636719 0)"/>
      <use xlink:href="#Arial-BoldMT-54" transform="translate(355.419922 0)"/>
      <use xlink:href="#Arial-BoldMT-6f" transform="translate(409.128906 0)"/>
      <use xlink:href="#Arial-BoldMT-6b" transform="translate(470.212891 0)"/>
      <use xlink:href="#Arial-BoldMT-65" transform="translate(525.828125 0)"/>
      <use xlink:href="#Arial-BoldMT-6e" transform="translate(581.443359 0)"/>
      <use xlink:href="#Arial-BoldMT-73" transform="translate(642.527344 0)"/>
      <use xlink:href="#Arial-BoldMT-20" transform="translate(698.142578 0)"/>
      <use xlink:href="#Arial-BoldMT-28" transform="translate(725.925781 0)"/>
      <use xlink:href="#Arial-BoldMT-72" transform="translate(759.226562 0)"/>
      <use xlink:href="#Arial-BoldMT-65" transform="translate(798.142578 0)"/>
      <use xlink:href="#Arial-BoldMT-73" transform="translate(853.757812 0)"/>
      <use xlink:href="#Arial-BoldMT-70" transform="translate(909.373047 0)"/>
      <use xlink:href="#Arial-BoldMT-6f" transform="translate(970.457031 0)"/>
      <use xlink:href="#Arial-BoldMT-6e" transform="translate(1031.541016 0)"/>
      <use xlink:href="#Arial-BoldMT-73" transform="translate(1092.625 0)"/>
      <use xlink:href="#Arial-BoldMT-65" transform="translate(1148.240234 0)"/>
      <use xlink:href="#Arial-BoldMT-20" transform="translate(1203.855469 0)"/>
      <use xlink:href="#Arial-BoldMT-6c" transform="translate(1231.638672 0)"/>
      <use xlink:href="#Arial-BoldMT-65" transform="translate(1259.421875 0)"/>
      <use xlink:href="#Arial-BoldMT-6e" transform="translate(1315.037109 0)"/>
      <use xlink:href="#Arial-BoldMT-67" transform="translate(1376.121094 0)"/>
      <use xlink:href="#Arial-BoldMT-74" transform="translate(1437.205078 0)"/>
      <use xlink:href="#Arial-BoldMT-68" transform="translate(1470.505859 0)"/>
      <use xlink:href="#Arial-BoldMT-29" transform="translate(1531.589844 0)"/>
     </g>
    </g>
   </g>
   <g id="matplotlib.axis_2">
    <g id="ytick_1">
     <g id="line2d_10">
      <path d="M 40.45875 457.713625
L 849.56875 457.713625
" clip-path="url(#p8602ee892f)" style="fill: none; stroke-dasharray: 1.85,0.8; stroke-dashoffset: 0; stroke: #ffffff; stroke-opacity: 0.3; stroke-width: 0.5"/>
     </g>
     <g id="text_11">
      <!-- 0 -->
      <g style="fill: #262626" transform="translate(26.91 460.57675) scale(0.08 -0.08)">
       <use xlink:href="#ArialMT-30"/>
      </g>
     </g>
    </g>
    <g id="ytick_2">
     <g id="line2d_11">
      <path d="M 40.45875 408.502175
L 849.56875 408.502175
" clip-path="url(#p8602ee892f)" style="fill: none; stroke-dasharray: 1.85,0.8; stroke-dashoffset: 0; stroke: #ffffff; stroke-opacity: 0.3; stroke-width: 0.5"/>
     </g>
     <g id="text_12">
      <!-- 2 -->
      <g style="fill: #262626" transform="translate(26.91 411.3653) scale(0.08 -0.08)">
       <use xlink:href="#ArialMT-32"/>
      </g>
     </g>
    </g>
    <g id="ytick_3">
     <g id="line2d_12">
      <path d="M 40.45875 359.290724
L 849.56875 359.290724
" clip-path="url(#p8602ee892f)" style="fill: none; stroke-dasharray: 1.85,0.8; stroke-dashoffset: 0; stroke: #ffffff; stroke-opacity: 0.3; stroke-width: 0.5"/>
     </g>
     <g id="text_13">
      <!-- 4 -->
      <g style="fill: #262626" transform="translate(26.91 362.153849) scale(0.08 -0.08)">
       <use xlink:href="#ArialMT-34"/>
      </g>
     </g>
    </g>
    <g id="ytick_4">
     <g id="line2d_13">
      <path d="M 40.45875 310.079274
L 849.56875 310.079274
" clip-path="url(#p8602ee892f)" style="fill: none; stroke-dasharray: 1.85,0.8; stroke-dashoffset: 0; stroke: #ffffff; stroke-opacity: 0.3; stroke-width: 0.5"/>
     </g>
     <g id="text_14">
      <!-- 6 -->
      <g style="fill: #262626" transform="translate(26.91 312.942399) scale(0.08 -0.08)">
       <use xlink:href="#ArialMT-36"/>
      </g>
     </g>
    </g>
    <g id="ytick_5">
     <g id="line2d_14">
      <path d="M 40.45875 260.867824
L 849.56875 260.867824
" clip-path="url(#p8602ee892f)" style="fill: none; stroke-dasharray: 1.85,0.8; stroke-dashoffset: 0; stroke: #ffffff; stroke-opacity: 0.3; stroke-width: 0.5"/>
     </g>
     <g id="text_15">
      <!-- 8 -->
      <g style="fill: #262626" transform="translate(26.91 263.730949) scale(0.08 -0.08)">
       <use xlink:href="#ArialMT-38"/>
      </g>
     </g>
    </g>
    <g id="ytick_6">
     <g id="line2d_15">
      <path d="M 40.45875 211.656373
L 849.56875 211.656373
" clip-path="url(#p8602ee892f)" style="fill: none; stroke-dasharray: 1.85,0.8; stroke-dashoffset: 0; stroke: #ffffff; stroke-opacity: 0.3; stroke-width: 0.5"/>
     </g>
     <g id="text_16">
      <!-- 10 -->
      <g style="fill: #262626" transform="translate(22.46125 214.519498) scale(0.08 -0.08)">
       <use xlink:href="#ArialMT-31"/>
       <use xlink:href="#ArialMT-30" transform="translate(55.615234 0)"/>
      </g>
     </g>
    </g>
    <g id="ytick_7">
     <g id="line2d_16">
      <path d="M 40.45875 162.444923
L 849.56875 162.444923
" clip-path="url(#p8602ee892f)" style="fill: none; stroke-dasharray: 1.85,0.8; stroke-dashoffset: 0; stroke: #ffffff; stroke-opacity: 0.3; stroke-width: 0.5"/>
     </g>
     <g id="text_17">
      <!-- 12 -->
      <g style="fill: #262626" transform="translate(22.46125 165.308048) scale(0.08 -0.08)">
       <use xlink:href="#ArialMT-31"/>
       <use xlink:href="#ArialMT-32" transform="translate(55.615234 0)"/>
      </g>
     </g>
    </g>
    <g id="ytick_8">
     <g id="line2d_17">
      <path d="M 40.45875 113.233472
L 849.56875 113.233472
" clip-path="url(#p8602ee892f)" style="fill: none; stroke-dasharray: 1.85,0.8; stroke-dashoffset: 0; stroke: #ffffff; stroke-opacity: 0.3; stroke-width: 0.5"/>
     </g>
     <g id="text_18">
      <!-- 14 -->
      <g style="fill: #262626" transform="translate(22.46125 116.096597) scale(0.08 -0.08)">
       <use xlink:href="#ArialMT-31"/>
       <use xlink:href="#ArialMT-34" transform="translate(55.615234 0)"/>
      </g>
     </g>
    </g>
    <g id="ytick_9">
     <g id="line2d_18">
      <path d="M 40.45875 64.022022
L 849.56875 64.022022
" clip-path="url(#p8602ee892f)" style="fill: none; stroke-dasharray: 1.85,0.8; stroke-dashoffset: 0; stroke: #ffffff; stroke-opacity: 0.3; stroke-width: 0.5"/>
     </g>
     <g id="text_19">
      <!-- 16 -->
      <g style="fill: #262626" transform="translate(22.46125 66.885147) scale(0.08 -0.08)">
       <use xlink:href="#ArialMT-31"/>
       <use xlink:href="#ArialMT-36" transform="translate(55.615234 0)"/>
      </g>
     </g>
    </g>
    <g id="text_20">
     <!-- Text Generation Time (seconds) -->
     <g style="fill: #262626" transform="translate(15.935625 345.762375) rotate(-90) scale(0.12 -0.12)">
      <defs>
       <path id="Arial-BoldMT-78" d="M 38 0
L 1234 1709
L 88 3319
L 1159 3319
L 1747 2406
L 2366 3319
L 3397 3319
L 2272 1747
L 3500 0
L 2422 0
L 1747 1028
L 1066 0
L 38 0
z
" transform="scale(0.015625)"/>
       <path id="Arial-BoldMT-47" d="M 2597 1684
L 2597 2456
L 4591 2456
L 4591 631
Q 4300 350 3748 136
Q 3197 -78 2631 -78
Q 1913 -78 1378 223
Q 844 525 575 1086
Q 306 1647 306 2306
Q 306 3022 606 3578
Q 906 4134 1484 4431
Q 1925 4659 2581 4659
Q 3434 4659 3914 4301
Q 4394 3944 4531 3313
L 3613 3141
Q 3516 3478 3248 3673
Q 2981 3869 2581 3869
Q 1975 3869 1617 3484
Q 1259 3100 1259 2344
Q 1259 1528 1621 1120
Q 1984 713 2572 713
Q 2863 713 3155 827
Q 3447 941 3656 1103
L 3656 1684
L 2597 1684
z
" transform="scale(0.015625)"/>
       <path id="Arial-BoldMT-61" d="M 1116 2306
L 319 2450
Q 453 2931 781 3162
Q 1109 3394 1756 3394
Q 2344 3394 2631 3255
Q 2919 3116 3036 2902
Q 3153 2688 3153 2116
L 3144 1091
Q 3144 653 3186 445
Q 3228 238 3344 0
L 2475 0
Q 2441 88 2391 259
Q 2369 338 2359 363
Q 2134 144 1878 34
Q 1622 -75 1331 -75
Q 819 -75 523 203
Q 228 481 228 906
Q 228 1188 362 1408
Q 497 1628 739 1745
Q 981 1863 1438 1950
Q 2053 2066 2291 2166
L 2291 2253
Q 2291 2506 2166 2614
Q 2041 2722 1694 2722
Q 1459 2722 1328 2630
Q 1197 2538 1116 2306
z
M 2291 1594
Q 2122 1538 1756 1459
Q 1391 1381 1278 1306
Q 1106 1184 1106 997
Q 1106 813 1243 678
Q 1381 544 1594 544
Q 1831 544 2047 700
Q 2206 819 2256 991
Q 2291 1103 2291 1419
L 2291 1594
z
" transform="scale(0.015625)"/>
       <path id="Arial-BoldMT-69" d="M 459 3769
L 459 4581
L 1338 4581
L 1338 3769
L 459 3769
z
M 459 0
L 459 3319
L 1338 3319
L 1338 0
L 459 0
z
" transform="scale(0.015625)"/>
       <path id="Arial-BoldMT-6d" d="M 394 3319
L 1203 3319
L 1203 2866
Q 1638 3394 2238 3394
Q 2556 3394 2790 3262
Q 3025 3131 3175 2866
Q 3394 3131 3647 3262
Q 3900 3394 4188 3394
Q 4553 3394 4806 3245
Q 5059 3097 5184 2809
Q 5275 2597 5275 2122
L 5275 0
L 4397 0
L 4397 1897
Q 4397 2391 4306 2534
Q 4184 2722 3931 2722
Q 3747 2722 3584 2609
Q 3422 2497 3350 2280
Q 3278 2063 3278 1594
L 3278 0
L 2400 0
L 2400 1819
Q 2400 2303 2353 2443
Q 2306 2584 2207 2653
Q 2109 2722 1941 2722
Q 1738 2722 1575 2612
Q 1413 2503 1342 2297
Q 1272 2091 1272 1613
L 1272 0
L 394 0
L 394 3319
z
" transform="scale(0.015625)"/>
       <path id="Arial-BoldMT-63" d="M 3353 2338
L 2488 2181
Q 2444 2441 2289 2572
Q 2134 2703 1888 2703
Q 1559 2703 1364 2476
Q 1169 2250 1169 1719
Q 1169 1128 1367 884
Q 1566 641 1900 641
Q 2150 641 2309 783
Q 2469 925 2534 1272
L 3397 1125
Q 3263 531 2881 228
Q 2500 -75 1859 -75
Q 1131 -75 698 384
Q 266 844 266 1656
Q 266 2478 700 2936
Q 1134 3394 1875 3394
Q 2481 3394 2839 3133
Q 3197 2872 3353 2338
z
" transform="scale(0.015625)"/>
       <path id="Arial-BoldMT-64" d="M 3503 0
L 2688 0
L 2688 488
Q 2484 203 2207 64
Q 1931 -75 1650 -75
Q 1078 -75 670 386
Q 263 847 263 1672
Q 263 2516 659 2955
Q 1056 3394 1663 3394
Q 2219 3394 2625 2931
L 2625 4581
L 3503 4581
L 3503 0
z
M 1159 1731
Q 1159 1200 1306 963
Q 1519 619 1900 619
Q 2203 619 2415 876
Q 2628 1134 2628 1647
Q 2628 2219 2422 2470
Q 2216 2722 1894 2722
Q 1581 2722 1370 2473
Q 1159 2225 1159 1731
z
" transform="scale(0.015625)"/>
      </defs>
      <use xlink:href="#Arial-BoldMT-54"/>
      <use xlink:href="#Arial-BoldMT-65" transform="translate(53.708984 0)"/>
      <use xlink:href="#Arial-BoldMT-78" transform="translate(109.324219 0)"/>
      <use xlink:href="#Arial-BoldMT-74" transform="translate(164.939453 0)"/>
      <use xlink:href="#Arial-BoldMT-20" transform="translate(198.240234 0)"/>
      <use xlink:href="#Arial-BoldMT-47" transform="translate(226.023438 0)"/>
      <use xlink:href="#Arial-BoldMT-65" transform="translate(303.806641 0)"/>
      <use xlink:href="#Arial-BoldMT-6e" transform="translate(359.421875 0)"/>
      <use xlink:href="#Arial-BoldMT-65" transform="translate(420.505859 0)"/>
      <use xlink:href="#Arial-BoldMT-72" transform="translate(476.121094 0)"/>
      <use xlink:href="#Arial-BoldMT-61" transform="translate(515.037109 0)"/>
      <use xlink:href="#Arial-BoldMT-74" transform="translate(570.652344 0)"/>
      <use xlink:href="#Arial-BoldMT-69" transform="translate(603.953125 0)"/>
      <use xlink:href="#Arial-BoldMT-6f" transform="translate(631.736328 0)"/>
      <use xlink:href="#Arial-BoldMT-6e" transform="translate(692.820312 0)"/>
      <use xlink:href="#Arial-BoldMT-20" transform="translate(753.904297 0)"/>
      <use xlink:href="#Arial-BoldMT-54" transform="translate(781.6875 0)"/>
      <use xlink:href="#Arial-BoldMT-69" transform="translate(841.021484 0)"/>
      <use xlink:href="#Arial-BoldMT-6d" transform="translate(868.804688 0)"/>
      <use xlink:href="#Arial-BoldMT-65" transform="translate(957.720703 0)"/>
      <use xlink:href="#Arial-BoldMT-20" transform="translate(1013.335938 0)"/>
      <use xlink:href="#Arial-BoldMT-28" transform="translate(1041.119141 0)"/>
      <use xlink:href="#Arial-BoldMT-73" transform="translate(1074.419922 0)"/>
      <use xlink:href="#Arial-BoldMT-65" transform="translate(1130.035156 0)"/>
      <use xlink:href="#Arial-BoldMT-63" transform="translate(1185.650391 0)"/>
      <use xlink:href="#Arial-BoldMT-6f" transform="translate(1241.265625 0)"/>
      <use xlink:href="#Arial-BoldMT-6e" transform="translate(1302.349609 0)"/>
      <use xlink:href="#Arial-BoldMT-64" transform="translate(1363.433594 0)"/>
      <use xlink:href="#Arial-BoldMT-73" transform="translate(1424.517578 0)"/>
      <use xlink:href="#Arial-BoldMT-29" transform="translate(1480.132812 0)"/>
     </g>
    </g>
   </g>
   <g id="line2d_19">
    <path d="M 172.351289 374.359035
L 178.481825 371.290973
L 184.612362 368.222912
L 190.742898 365.15485
L 196.873434 362.086788
L 203.00397 359.018727
L 209.134506 355.950665
L 215.265043 352.882604
L 221.395579 349.814542
L 227.526115 346.746481
L 233.656651 343.678419
L 239.787188 340.610357
L 245.917724 337.542296
L 252.04826 334.474234
L 258.178796 331.406173
L 264.309332 328.338111
L 270.439869 325.27005
L 276.570405 322.201988
L 282.700941 319.133926
L 288.831477 316.065865
L 294.962014 312.997803
L 301.09255 309.929742
L 307.223086 306.86168
L 313.353622 303.793619
L 319.484158 300.725557
L 325.614695 297.657495
L 331.745231 294.589434
L 337.875767 291.521372
L 344.006303 288.453311
L 350.136839 285.385249
L 356.267376 282.317187
L 362.397912 279.249126
L 368.528448 276.181064
L 374.658984 273.113003
L 380.789521 270.044941
L 386.920057 266.97688
L 393.050593 263.908818
L 399.181129 260.840756
L 405.311665 257.772695
L 411.442202 254.704633
L 417.572738 251.636572
L 423.703274 248.56851
L 429.83381 245.500449
L 435.964347 242.432387
L 442.094883 239.364325
L 448.225419 236.296264
L 454.355955 233.228202
L 460.486491 230.160141
L 466.617028 227.092079
L 472.747564 224.024018
L 478.8781 220.955956
L 485.008636 217.887894
L 491.139172 214.819833
L 497.269709 211.751771
L 503.400245 208.68371
L 509.530781 205.615648
L 515.661317 202.547587
L 521.791854 199.479525
L 527.92239 196.411463
L 534.052926 193.343402
L 540.183462 190.27534
L 546.313998 187.207279
L 552.444535 184.139217
L 558.575071 181.071156
L 564.705607 178.003094
L 570.836143 174.935032
L 576.96668 171.866971
L 583.097216 168.798909
L 589.227752 165.730848
L 595.358288 162.662786
L 601.488824 159.594725
L 607.619361 156.526663
L 613.749897 153.458601
L 619.880433 150.39054
L 626.010969 147.322478
L 632.141505 144.254417
L 638.272042 141.186355
L 644.402578 138.118294
L 650.533114 135.050232
L 656.66365 131.98217
L 662.794187 128.914109
L 668.924723 125.846047
L 675.055259 122.777986
L 681.185795 119.709924
L 687.316331 116.641862
L 693.446868 113.573801
L 699.577404 110.505739
L 705.70794 107.437678
L 711.838476 104.369616
L 717.969013 101.301555
L 724.099549 98.233493
L 730.230085 95.165431
L 736.360621 92.09737
L 742.491157 89.029308
L 748.621694 85.961247
L 754.75223 82.893185
L 760.882766 79.825124
L 767.013302 76.757062
L 773.143839 73.689
L 779.274375 70.620939
" clip-path="url(#p8602ee892f)" style="fill: none; stroke-dasharray: 5.55,2.4; stroke-dashoffset: 0; stroke: #1f77b4; stroke-opacity: 0.3; stroke-width: 1.5"/>
   </g>
   <g id="line2d_20">
    <path d="M 77.236477 435.39102
L 84.666321 433.509255
L 92.096165 431.627491
L 99.526009 429.745726
L 106.955853 427.863961
L 114.385697 425.982196
L 121.815541 424.100431
L 129.245385 422.218667
L 136.675228 420.336902
L 144.105072 418.455137
L 151.534916 416.573372
L 158.96476 414.691607
L 166.394604 412.809843
L 173.824448 410.928078
L 181.254292 409.046313
L 188.684136 407.164548
L 196.11398 405.282783
L 203.543823 403.401018
L 210.973667 401.519254
L 218.403511 399.637489
L 225.833355 397.755724
L 233.263199 395.873959
L 240.693043 393.992194
L 248.122887 392.11043
L 255.552731 390.228665
L 262.982575 388.3469
L 270.412419 386.465135
L 277.842262 384.58337
L 285.272106 382.701606
L 292.70195 380.819841
L 300.131794 378.938076
L 307.561638 377.056311
L 314.991482 375.174546
L 322.421326 373.292781
L 329.85117 371.411017
L 337.281014 369.529252
L 344.710857 367.647487
L 352.140701 365.765722
L 359.570545 363.883957
L 367.000389 362.002193
L 374.430233 360.120428
L 381.860077 358.238663
L 389.289921 356.356898
L 396.719765 354.475133
L 404.149609 352.593369
L 411.579452 350.711604
L 419.009296 348.829839
L 426.43914 346.948074
L 433.868984 345.066309
L 441.298828 343.184545
L 448.728672 341.30278
L 456.158516 339.421015
L 463.58836 337.53925
L 471.018204 335.657485
L 478.448048 333.77572
L 485.877891 331.893956
L 493.307735 330.012191
L 500.737579 328.130426
L 508.167423 326.248661
L 515.597267 324.366896
L 523.027111 322.485132
L 530.456955 320.603367
L 537.886799 318.721602
L 545.316643 316.839837
L 552.746486 314.958072
L 560.17633 313.076308
L 567.606174 311.194543
L 575.036018 309.312778
L 582.465862 307.431013
L 589.895706 305.549248
L 597.32555 303.667483
L 604.755394 301.785719
L 612.185238 299.903954
L 619.615081 298.022189
L 627.044925 296.140424
L 634.474769 294.258659
L 641.904613 292.376895
L 649.334457 290.49513
L 656.764301 288.613365
L 664.194145 286.7316
L 671.623989 284.849835
L 679.053833 282.968071
L 686.483677 281.086306
L 693.91352 279.204541
L 701.343364 277.322776
L 708.773208 275.441011
L 716.203052 273.559246
L 723.632896 271.677482
L 731.06274 269.795717
L 738.492584 267.913952
L 745.922428 266.032187
L 753.352272 264.150422
L 760.782115 262.268658
L 768.211959 260.386893
L 775.641803 258.505128
L 783.071647 256.623363
L 790.501491 254.741598
L 797.931335 252.859834
L 805.361179 250.978069
L 812.791023 249.096304
" clip-path="url(#p8602ee892f)" style="fill: none; stroke-dasharray: 5.55,2.4; stroke-dashoffset: 0; stroke: #aec7e8; stroke-opacity: 0.3; stroke-width: 1.5"/>
   </g>
   <g id="line2d_21">
    <path d="M 108.941415 422.786523
L 115.392203 420.559417
L 121.842991 418.332311
L 128.293779 416.105205
L 134.744567 413.878099
L 141.195355 411.650993
L 147.646143 409.423887
L 154.096931 407.196781
L 160.547719 404.969675
L 166.998508 402.742569
L 173.449296 400.515463
L 179.900084 398.288357
L 186.350872 396.061251
L 192.80166 393.834145
L 199.252448 391.607039
L 205.703236 389.379933
L 212.154024 387.152827
L 218.604812 384.925721
L 225.055601 382.698615
L 231.506389 380.471509
L 237.957177 378.244403
L 244.407965 376.017297
L 250.858753 373.790191
L 257.309541 371.563085
L 263.760329 369.335979
L 270.211117 367.108873
L 276.661905 364.881767
L 283.112694 362.654661
L 289.563482 360.427555
L 296.01427 358.200449
L 302.465058 355.973343
L 308.915846 353.746237
L 315.366634 351.519131
L 321.817422 349.292025
L 328.26821 347.064919
L 334.718998 344.837813
L 341.169787 342.610707
L 347.620575 340.383601
L 354.071363 338.156495
L 360.522151 335.929389
L 366.972939 333.702283
L 373.423727 331.475177
L 379.874515 329.248071
L 386.325303 327.020965
L 392.776091 324.793859
L 399.22688 322.566753
L 405.677668 320.339647
L 412.128456 318.112541
L 418.579244 315.885435
L 425.030032 313.658329
L 431.48082 311.431223
L 437.931608 309.204117
L 444.382396 306.977011
L 450.833184 304.749905
L 457.283972 302.522799
L 463.734761 300.295693
L 470.185549 298.068587
L 476.636337 295.841481
L 483.087125 293.614375
L 489.537913 291.387269
L 495.988701 289.160163
L 502.439489 286.933057
L 508.890277 284.705951
L 515.341065 282.478845
L 521.791854 280.251739
L 528.242642 278.024633
L 534.69343 275.797527
L 541.144218 273.570421
L 547.595006 271.343315
L 554.045794 269.116209
L 560.496582 266.889103
L 566.94737 264.661997
L 573.398158 262.434891
L 579.848947 260.207785
L 586.299735 257.980679
L 592.750523 255.753573
L 599.201311 253.526467
L 605.652099 251.299361
L 612.102887 249.072255
L 618.553675 246.845149
L 625.004463 244.618043
L 631.455251 242.390937
L 637.90604 240.163831
L 644.356828 237.936725
L 650.807616 235.709619
L 657.258404 233.482513
L 663.709192 231.255408
L 670.15998 229.028302
L 676.610768 226.801196
L 683.061556 224.57409
L 689.512344 222.346984
L 695.963133 220.119878
L 702.413921 217.892772
L 708.864709 215.665666
L 715.315497 213.43856
L 721.766285 211.211454
L 728.217073 208.984348
L 734.667861 206.757242
L 741.118649 204.530136
L 747.569437 202.30303
" clip-path="url(#p8602ee892f)" style="fill: none; stroke-dasharray: 5.55,2.4; stroke-dashoffset: 0; stroke: #ff7f0e; stroke-opacity: 0.3; stroke-width: 1.5"/>
   </g>
   <g id="line2d_22">
    <path d="M 132.493654 410.38168
L 138.386289 408.141505
L 144.278923 405.90133
L 150.171558 403.661156
L 156.064193 401.420981
L 161.956828 399.180806
L 167.849463 396.940632
L 173.742097 394.700457
L 179.634732 392.460282
L 185.527367 390.220108
L 191.420002 387.979933
L 197.312637 385.739758
L 203.205271 383.499584
L 209.097906 381.259409
L 214.990541 379.019234
L 220.883176 376.77906
L 226.775811 374.538885
L 232.668446 372.29871
L 238.56108 370.058536
L 244.453715 367.818361
L 250.34635 365.578186
L 256.238985 363.338012
L 262.13162 361.097837
L 268.024254 358.857662
L 273.916889 356.617488
L 279.809524 354.377313
L 285.702159 352.137138
L 291.594794 349.896964
L 297.487428 347.656789
L 303.380063 345.416615
L 309.272698 343.17644
L 315.165333 340.936265
L 321.057968 338.696091
L 326.950603 336.455916
L 332.843237 334.215741
L 338.735872 331.975567
L 344.628507 329.735392
L 350.521142 327.495217
L 356.413777 325.255043
L 362.306411 323.014868
L 368.199046 320.774693
L 374.091681 318.534519
L 379.984316 316.294344
L 385.876951 314.054169
L 391.769585 311.813995
L 397.66222 309.57382
L 403.554855 307.333645
L 409.44749 305.093471
L 415.340125 302.853296
L 421.23276 300.613121
L 427.125394 298.372947
L 433.018029 296.132772
L 438.910664 293.892597
L 444.803299 291.652423
L 450.695934 289.412248
L 456.588568 287.172073
L 462.481203 284.931899
L 468.373838 282.691724
L 474.266473 280.451549
L 480.159108 278.211375
L 486.051742 275.9712
L 491.944377 273.731025
L 497.837012 271.490851
L 503.729647 269.250676
L 509.622282 267.010501
L 515.514917 264.770327
L 521.407551 262.530152
L 527.300186 260.289977
L 533.192821 258.049803
L 539.085456 255.809628
L 544.978091 253.569453
L 550.870725 251.329279
L 556.76336 249.089104
L 562.655995 246.848929
L 568.54863 244.608755
L 574.441265 242.36858
L 580.333899 240.128405
L 586.226534 237.888231
L 592.119169 235.648056
L 598.011804 233.407881
L 603.904439 231.167707
L 609.797073 228.927532
L 615.689708 226.687357
L 621.582343 224.447183
L 627.474978 222.207008
L 633.367613 219.966833
L 639.260248 217.726659
L 645.152882 215.486484
L 651.045517 213.246309
L 656.938152 211.006135
L 662.830787 208.76596
L 668.723422 206.525785
L 674.616056 204.285611
L 680.508691 202.045436
L 686.401326 199.805261
L 692.293961 197.565087
L 698.186596 195.324912
L 704.07923 193.084737
L 709.971865 190.844563
L 715.8645 188.604388
" clip-path="url(#p8602ee892f)" style="fill: none; stroke-dasharray: 5.55,2.4; stroke-dashoffset: 0; stroke: #ffbb78; stroke-opacity: 0.3; stroke-width: 1.5"/>
   </g>
   <g id="patch_3">
    <path d="M 40.45875 457.713625
L 40.45875 52.213625
" style="fill: none; stroke: #ffffff; stroke-width: 0.8; stroke-linejoin: miter; stroke-linecap: square"/>
   </g>
   <g id="patch_4">
    <path d="M 849.56875 457.713625
L 849.56875 52.213625
" style="fill: none; stroke: #ffffff; stroke-width: 0.8; stroke-linejoin: miter; stroke-linecap: square"/>
   </g>
   <g id="patch_5">
    <path d="M 40.45875 457.713625
L 849.56875 457.713625
" style="fill: none; stroke: #ffffff; stroke-width: 0.8; stroke-linejoin: miter; stroke-linecap: square"/>
   </g>
   <g id="patch_6">
    <path d="M 40.45875 52.213625
L 849.56875 52.213625
" style="fill: none; stroke: #ffffff; stroke-width: 0.8; stroke-linejoin: miter; stroke-linecap: square"/>
   </g>
   <g id="PathCollection_1">
    <defs>
     <path id="mae3ecc246b" d="M 0 5
C 1.326016 5 2.597899 4.473168 3.535534 3.535534
C 4.473168 2.597899 5 1.326016 5 0
C 5 -1.326016 4.473168 -2.597899 3.535534 -3.535534
C 2.597899 -4.473168 1.326016 -5 0 -5
C -1.326016 -5 -2.597899 -4.473168 -3.535534 -3.535534
C -4.473168 -2.597899 -5 -1.326016 -5 0
C -5 1.326016 -4.473168 2.597899 -3.535534 3.535534
C -2.597899 4.473168 -1.326016 5 0 5
z
" style="stroke: #ffffff; stroke-opacity: 0.6; stroke-width: 0.5"/>
    </defs>
    <g clip-path="url(#p8602ee892f)">
     <use xlink:href="#mae3ecc246b" x="519.293889" y="203.839134" style="fill: #1f77b4; fill-opacity: 0.6; stroke: #ffffff; stroke-opacity: 0.6; stroke-width: 0.5"/>
     <use xlink:href="#mae3ecc246b" x="702.27667" y="92.89438" style="fill: #1f77b4; fill-opacity: 0.6; stroke: #ffffff; stroke-opacity: 0.6; stroke-width: 0.5"/>
     <use xlink:href="#mae3ecc246b" x="769.309966" y="83.662312" style="fill: #1f77b4; fill-opacity: 0.6; stroke: #ffffff; stroke-opacity: 0.6; stroke-width: 0.5"/>
     <use xlink:href="#mae3ecc246b" x="172.351289" y="370.562607" style="fill: #1f77b4; fill-opacity: 0.6; stroke: #ffffff; stroke-opacity: 0.6; stroke-width: 0.5"/>
     <use xlink:href="#mae3ecc246b" x="552.810537" y="217.298466" style="fill: #1f77b4; fill-opacity: 0.6; stroke: #ffffff; stroke-opacity: 0.6; stroke-width: 0.5"/>
     <use xlink:href="#mae3ecc246b" x="662.419034" y="99.525623" style="fill: #1f77b4; fill-opacity: 0.6; stroke: #ffffff; stroke-opacity: 0.6; stroke-width: 0.5"/>
     <use xlink:href="#mae3ecc246b" x="779.274375" y="93.253624" style="fill: #1f77b4; fill-opacity: 0.6; stroke: #ffffff; stroke-opacity: 0.6; stroke-width: 0.5"/>
     <use xlink:href="#mae3ecc246b" x="697.747393" y="93.915518" style="fill: #1f77b4; fill-opacity: 0.6; stroke: #ffffff; stroke-opacity: 0.6; stroke-width: 0.5"/>
    </g>
   </g>
   <g id="PathCollection_2">
    <defs>
     <path id="m6678585ce7" d="M -5 5
L 5 5
L 5 -5
L -5 -5
z
" style="stroke: #ffffff; stroke-opacity: 0.6; stroke-width: 0.5"/>
    </defs>
    <g clip-path="url(#p8602ee892f)">
     <use xlink:href="#m6678585ce7" x="137.02293" y="423.484601" style="fill: #aec7e8; fill-opacity: 0.6; stroke: #ffffff; stroke-opacity: 0.6; stroke-width: 0.5"/>
     <use xlink:href="#m6678585ce7" x="214.020635" y="396.083665" style="fill: #aec7e8; fill-opacity: 0.6; stroke: #ffffff; stroke-opacity: 0.6; stroke-width: 0.5"/>
     <use xlink:href="#m6678585ce7" x="401.532693" y="357.524033" style="fill: #aec7e8; fill-opacity: 0.6; stroke: #ffffff; stroke-opacity: 0.6; stroke-width: 0.5"/>
     <use xlink:href="#m6678585ce7" x="577.268631" y="314.697769" style="fill: #aec7e8; fill-opacity: 0.6; stroke: #ffffff; stroke-opacity: 0.6; stroke-width: 0.5"/>
     <use xlink:href="#m6678585ce7" x="780.18023" y="234.340391" style="fill: #aec7e8; fill-opacity: 0.6; stroke: #ffffff; stroke-opacity: 0.6; stroke-width: 0.5"/>
     <use xlink:href="#m6678585ce7" x="812.791023" y="268.414399" style="fill: #aec7e8; fill-opacity: 0.6; stroke: #ffffff; stroke-opacity: 0.6; stroke-width: 0.5"/>
     <use xlink:href="#m6678585ce7" x="98.07115" y="428.979059" style="fill: #aec7e8; fill-opacity: 0.6; stroke: #ffffff; stroke-opacity: 0.6; stroke-width: 0.5"/>
     <use xlink:href="#m6678585ce7" x="780.18023" y="245.206279" style="fill: #aec7e8; fill-opacity: 0.6; stroke: #ffffff; stroke-opacity: 0.6; stroke-width: 0.5"/>
     <use xlink:href="#m6678585ce7" x="77.236477" y="438.767217" style="fill: #aec7e8; fill-opacity: 0.6; stroke: #ffffff; stroke-opacity: 0.6; stroke-width: 0.5"/>
     <use xlink:href="#m6678585ce7" x="788.332928" y="272.597373" style="fill: #aec7e8; fill-opacity: 0.6; stroke: #ffffff; stroke-opacity: 0.6; stroke-width: 0.5"/>
     <use xlink:href="#m6678585ce7" x="311.853013" y="373.940973" style="fill: #aec7e8; fill-opacity: 0.6; stroke: #ffffff; stroke-opacity: 0.6; stroke-width: 0.5"/>
     <use xlink:href="#m6678585ce7" x="575.456921" y="298.743416" style="fill: #aec7e8; fill-opacity: 0.6; stroke: #ffffff; stroke-opacity: 0.6; stroke-width: 0.5"/>
    </g>
   </g>
   <g id="PathCollection_3">
    <defs>
     <path id="m8440968f56" d="M 0 -5
L -5 5
L 5 5
z
" style="stroke: #ffffff; stroke-opacity: 0.6; stroke-width: 0.5"/>
    </defs>
    <g clip-path="url(#p8602ee892f)">
     <use xlink:href="#m8440968f56" x="243.913862" y="380.392594" style="fill: #ff7f0e; fill-opacity: 0.6; stroke: #ffffff; stroke-opacity: 0.6; stroke-width: 0.5"/>
     <use xlink:href="#m8440968f56" x="747.569437" y="219.052854" style="fill: #ff7f0e; fill-opacity: 0.6; stroke: #ffffff; stroke-opacity: 0.6; stroke-width: 0.5"/>
     <use xlink:href="#m8440968f56" x="263.84268" y="361.325618" style="fill: #ff7f0e; fill-opacity: 0.6; stroke: #ffffff; stroke-opacity: 0.6; stroke-width: 0.5"/>
     <use xlink:href="#m8440968f56" x="744.851871" y="175.943624" style="fill: #ff7f0e; fill-opacity: 0.6; stroke: #ffffff; stroke-opacity: 0.6; stroke-width: 0.5"/>
     <use xlink:href="#m8440968f56" x="524.729021" y="278.940729" style="fill: #ff7f0e; fill-opacity: 0.6; stroke: #ffffff; stroke-opacity: 0.6; stroke-width: 0.5"/>
     <use xlink:href="#m8440968f56" x="108.941415" y="417.667807" style="fill: #ff7f0e; fill-opacity: 0.6; stroke: #ffffff; stroke-opacity: 0.6; stroke-width: 0.5"/>
     <use xlink:href="#m8440968f56" x="140.646352" y="412.559659" style="fill: #ff7f0e; fill-opacity: 0.6; stroke: #ffffff; stroke-opacity: 0.6; stroke-width: 0.5"/>
     <use xlink:href="#m8440968f56" x="408.779536" y="325.312678" style="fill: #ff7f0e; fill-opacity: 0.6; stroke: #ffffff; stroke-opacity: 0.6; stroke-width: 0.5"/>
     <use xlink:href="#m8440968f56" x="541.940273" y="286.273235" style="fill: #ff7f0e; fill-opacity: 0.6; stroke: #ffffff; stroke-opacity: 0.6; stroke-width: 0.5"/>
    </g>
   </g>
   <g id="PathCollection_4">
    <defs>
     <path id="mf366bd3195" d="M -0 5
L 5 -5
L -5 -5
z
" style="stroke: #ffffff; stroke-opacity: 0.6; stroke-width: 0.5"/>
    </defs>
    <g clip-path="url(#p8602ee892f)">
     <use xlink:href="#mf366bd3195" x="617.126267" y="216.604584" style="fill: #ffbb78; fill-opacity: 0.6; stroke: #ffffff; stroke-opacity: 0.6; stroke-width: 0.5"/>
     <use xlink:href="#mf366bd3195" x="385.227297" y="334.972886" style="fill: #ffbb78; fill-opacity: 0.6; stroke: #ffffff; stroke-opacity: 0.6; stroke-width: 0.5"/>
     <use xlink:href="#mf366bd3195" x="433.23763" y="295.689846" style="fill: #ffbb78; fill-opacity: 0.6; stroke: #ffffff; stroke-opacity: 0.6; stroke-width: 0.5"/>
     <use xlink:href="#mf366bd3195" x="167.822012" y="392.756971" style="fill: #ffbb78; fill-opacity: 0.6; stroke: #ffffff; stroke-opacity: 0.6; stroke-width: 0.5"/>
     <use xlink:href="#mf366bd3195" x="291.924196" y="342.962365" style="fill: #ffbb78; fill-opacity: 0.6; stroke: #ffffff; stroke-opacity: 0.6; stroke-width: 0.5"/>
     <use xlink:href="#mf366bd3195" x="715.8645" y="191.344347" style="fill: #ffbb78; fill-opacity: 0.6; stroke: #ffffff; stroke-opacity: 0.6; stroke-width: 0.5"/>
     <use xlink:href="#mf366bd3195" x="366.204334" y="329.485809" style="fill: #ffbb78; fill-opacity: 0.6; stroke: #ffffff; stroke-opacity: 0.6; stroke-width: 0.5"/>
     <use xlink:href="#mf366bd3195" x="164.198591" y="396.6619" style="fill: #ffbb78; fill-opacity: 0.6; stroke: #ffffff; stroke-opacity: 0.6; stroke-width: 0.5"/>
     <use xlink:href="#mf366bd3195" x="132.493654" y="406.253211" style="fill: #ffbb78; fill-opacity: 0.6; stroke: #ffffff; stroke-opacity: 0.6; stroke-width: 0.5"/>
     <use xlink:href="#mf366bd3195" x="703.182525" y="188.755825" style="fill: #ffbb78; fill-opacity: 0.6; stroke: #ffffff; stroke-opacity: 0.6; stroke-width: 0.5"/>
    </g>
   </g>
   <g id="text_21">
    <!-- Text Generation Performance -->
    <g style="fill: #262626" transform="translate(347.504844 17.220937) scale(0.14 -0.14)">
     <defs>
      <path id="Arial-BoldMT-50" d="M 466 0
L 466 4581
L 1950 4581
Q 2794 4581 3050 4513
Q 3444 4409 3709 4064
Q 3975 3719 3975 3172
Q 3975 2750 3822 2462
Q 3669 2175 3433 2011
Q 3197 1847 2953 1794
Q 2622 1728 1994 1728
L 1391 1728
L 1391 0
L 466 0
z
M 1391 3806
L 1391 2506
L 1897 2506
Q 2444 2506 2628 2578
Q 2813 2650 2917 2803
Q 3022 2956 3022 3159
Q 3022 3409 2875 3571
Q 2728 3734 2503 3775
Q 2338 3806 1838 3806
L 1391 3806
z
" transform="scale(0.015625)"/>
      <path id="Arial-BoldMT-66" d="M 75 3319
L 563 3319
L 563 3569
Q 563 3988 652 4194
Q 741 4400 980 4529
Q 1219 4659 1584 4659
Q 1959 4659 2319 4547
L 2200 3934
Q 1991 3984 1797 3984
Q 1606 3984 1523 3895
Q 1441 3806 1441 3553
L 1441 3319
L 2097 3319
L 2097 2628
L 1441 2628
L 1441 0
L 563 0
L 563 2628
L 75 2628
L 75 3319
z
" transform="scale(0.015625)"/>
     </defs>
     <use xlink:href="#Arial-BoldMT-54"/>
     <use xlink:href="#Arial-BoldMT-65" transform="translate(53.708984 0)"/>
     <use xlink:href="#Arial-BoldMT-78" transform="translate(109.324219 0)"/>
     <use xlink:href="#Arial-BoldMT-74" transform="translate(164.939453 0)"/>
     <use xlink:href="#Arial-BoldMT-20" transform="translate(198.240234 0)"/>
     <use xlink:href="#Arial-BoldMT-47" transform="translate(226.023438 0)"/>
     <use xlink:href="#Arial-BoldMT-65" transform="translate(303.806641 0)"/>
     <use xlink:href="#Arial-BoldMT-6e" transform="translate(359.421875 0)"/>
     <use xlink:href="#Arial-BoldMT-65" transform="translate(420.505859 0)"/>
     <use xlink:href="#Arial-BoldMT-72" transform="translate(476.121094 0)"/>
     <use xlink:href="#Arial-BoldMT-61" transform="translate(515.037109 0)"/>
     <use xlink:href="#Arial-BoldMT-74" transform="translate(570.652344 0)"/>
     <use xlink:href="#Arial-BoldMT-69" transform="translate(603.953125 0)"/>
     <use xlink:href="#Arial-BoldMT-6f" transform="translate(631.736328 0)"/>
     <use xlink:href="#Arial-BoldMT-6e" transform="translate(692.820312 0)"/>
     <use xlink:href="#Arial-BoldMT-20" transform="translate(753.904297 0)"/>
     <use xlink:href="#Arial-BoldMT-50" transform="translate(781.6875 0)"/>
     <use xlink:href="#Arial-BoldMT-65" transform="translate(848.386719 0)"/>
     <use xlink:href="#Arial-BoldMT-72" transform="translate(904.001953 0)"/>
     <use xlink:href="#Arial-BoldMT-66" transform="translate(942.917969 0)"/>
     <use xlink:href="#Arial-BoldMT-6f" transform="translate(976.21875 0)"/>
     <use xlink:href="#Arial-BoldMT-72" transform="translate(1037.302734 0)"/>
     <use xlink:href="#Arial-BoldMT-6d" transform="translate(1076.21875 0)"/>
     <use xlink:href="#Arial-BoldMT-61" transform="translate(1165.134766 0)"/>
     <use xlink:href="#Arial-BoldMT-6e" transform="translate(1220.75 0)"/>
     <use xlink:href="#Arial-BoldMT-63" transform="translate(1281.833984 0)"/>
     <use xlink:href="#Arial-BoldMT-65" transform="translate(1337.449219 0)"/>
    </g>
    <!-- Generation Time vs Output Length -->
    <g style="fill: #262626" transform="translate(330.027812 32.213625) scale(0.14 -0.14)">
     <defs>
      <path id="Arial-BoldMT-76" d="M 1372 0
L 34 3319
L 956 3319
L 1581 1625
L 1763 1059
Q 1834 1275 1853 1344
Q 1897 1484 1947 1625
L 2578 3319
L 3481 3319
L 2163 0
L 1372 0
z
" transform="scale(0.015625)"/>
      <path id="Arial-BoldMT-4c" d="M 491 0
L 491 4544
L 1416 4544
L 1416 772
L 3716 772
L 3716 0
L 491 0
z
" transform="scale(0.015625)"/>
     </defs>
     <use xlink:href="#Arial-BoldMT-47"/>
     <use xlink:href="#Arial-BoldMT-65" transform="translate(77.783203 0)"/>
     <use xlink:href="#Arial-BoldMT-6e" transform="translate(133.398438 0)"/>
     <use xlink:href="#Arial-BoldMT-65" transform="translate(194.482422 0)"/>
     <use xlink:href="#Arial-BoldMT-72" transform="translate(250.097656 0)"/>
     <use xlink:href="#Arial-BoldMT-61" transform="translate(289.013672 0)"/>
     <use xlink:href="#Arial-BoldMT-74" transform="translate(344.628906 0)"/>
     <use xlink:href="#Arial-BoldMT-69" transform="translate(377.929688 0)"/>
     <use xlink:href="#Arial-BoldMT-6f" transform="translate(405.712891 0)"/>
     <use xlink:href="#Arial-BoldMT-6e" transform="translate(466.796875 0)"/>
     <use xlink:href="#Arial-BoldMT-20" transform="translate(527.880859 0)"/>
     <use xlink:href="#Arial-BoldMT-54" transform="translate(555.664062 0)"/>
     <use xlink:href="#Arial-BoldMT-69" transform="translate(614.998047 0)"/>
     <use xlink:href="#Arial-BoldMT-6d" transform="translate(642.78125 0)"/>
     <use xlink:href="#Arial-BoldMT-65" transform="translate(731.697266 0)"/>
     <use xlink:href="#Arial-BoldMT-20" transform="translate(787.3125 0)"/>
     <use xlink:href="#Arial-BoldMT-76" transform="translate(815.095703 0)"/>
     <use xlink:href="#Arial-BoldMT-73" transform="translate(870.710938 0)"/>
     <use xlink:href="#Arial-BoldMT-20" transform="translate(926.326172 0)"/>
     <use xlink:href="#Arial-BoldMT-4f" transform="translate(954.109375 0)"/>
     <use xlink:href="#Arial-BoldMT-75" transform="translate(1031.892578 0)"/>
     <use xlink:href="#Arial-BoldMT-74" transform="translate(1092.976562 0)"/>
     <use xlink:href="#Arial-BoldMT-70" transform="translate(1126.277344 0)"/>
     <use xlink:href="#Arial-BoldMT-75" transform="translate(1187.361328 0)"/>
     <use xlink:href="#Arial-BoldMT-74" transform="translate(1248.445312 0)"/>
     <use xlink:href="#Arial-BoldMT-20" transform="translate(1281.746094 0)"/>
     <use xlink:href="#Arial-BoldMT-4c" transform="translate(1309.529297 0)"/>
     <use xlink:href="#Arial-BoldMT-65" transform="translate(1370.613281 0)"/>
     <use xlink:href="#Arial-BoldMT-6e" transform="translate(1426.228516 0)"/>
     <use xlink:href="#Arial-BoldMT-67" transform="translate(1487.3125 0)"/>
     <use xlink:href="#Arial-BoldMT-74" transform="translate(1548.396484 0)"/>
     <use xlink:href="#Arial-BoldMT-68" transform="translate(1581.697266 0)"/>
    </g>
   </g>
   <g id="legend_1">
    <g id="patch_7">
     <path d="M 47.45875 117.757375
L 355.157188 117.757375
Q 357.157188 117.757375 357.157188 115.757375
L 357.157188 59.213625
Q 357.157188 57.213625 355.157188 57.213625
L 47.45875 57.213625
Q 45.45875 57.213625 45.45875 59.213625
L 45.45875 115.757375
Q 45.45875 117.757375 47.45875 117.757375
z
" style="fill: #eaeaf2; opacity: 0.9; stroke: #808080; stroke-width: 0.24; stroke-linejoin: miter"/>
    </g>
    <g id="PathCollection_5">
     <g>
      <use xlink:href="#mae3ecc246b" x="59.45875" y="65.868312" style="fill: #1f77b4; fill-opacity: 0.6; stroke: #ffffff; stroke-opacity: 0.6; stroke-width: 0.5"/>
     </g>
    </g>
    <g id="text_22">
     <!-- Mac14,7 | Apple M2 (10 cores) | LM Studio -->
     <g style="fill: #262626" transform="translate(77.45875 68.493312) scale(0.1 -0.1)">
      <defs>
       <path id="ArialMT-4d" d="M 475 0
L 475 4581
L 1388 4581
L 2472 1338
Q 2622 884 2691 659
Q 2769 909 2934 1394
L 4031 4581
L 4847 4581
L 4847 0
L 4263 0
L 4263 3834
L 2931 0
L 2384 0
L 1059 3900
L 1059 0
L 475 0
z
" transform="scale(0.015625)"/>
       <path id="ArialMT-61" d="M 2588 409
Q 2275 144 1986 34
Q 1697 -75 1366 -75
Q 819 -75 525 192
Q 231 459 231 875
Q 231 1119 342 1320
Q 453 1522 633 1644
Q 813 1766 1038 1828
Q 1203 1872 1538 1913
Q 2219 1994 2541 2106
Q 2544 2222 2544 2253
Q 2544 2597 2384 2738
Q 2169 2928 1744 2928
Q 1347 2928 1158 2789
Q 969 2650 878 2297
L 328 2372
Q 403 2725 575 2942
Q 747 3159 1072 3276
Q 1397 3394 1825 3394
Q 2250 3394 2515 3294
Q 2781 3194 2906 3042
Q 3031 2891 3081 2659
Q 3109 2516 3109 2141
L 3109 1391
Q 3109 606 3145 398
Q 3181 191 3288 0
L 2700 0
Q 2613 175 2588 409
z
M 2541 1666
Q 2234 1541 1622 1453
Q 1275 1403 1131 1340
Q 988 1278 909 1158
Q 831 1038 831 891
Q 831 666 1001 516
Q 1172 366 1500 366
Q 1825 366 2078 508
Q 2331 650 2450 897
Q 2541 1088 2541 1459
L 2541 1666
z
" transform="scale(0.015625)"/>
       <path id="ArialMT-63" d="M 2588 1216
L 3141 1144
Q 3050 572 2676 248
Q 2303 -75 1759 -75
Q 1078 -75 664 370
Q 250 816 250 1647
Q 250 2184 428 2587
Q 606 2991 970 3192
Q 1334 3394 1763 3394
Q 2303 3394 2647 3120
Q 2991 2847 3088 2344
L 2541 2259
Q 2463 2594 2264 2762
Q 2066 2931 1784 2931
Q 1359 2931 1093 2626
Q 828 2322 828 1663
Q 828 994 1084 691
Q 1341 388 1753 388
Q 2084 388 2306 591
Q 2528 794 2588 1216
z
" transform="scale(0.015625)"/>
       <path id="ArialMT-2c" d="M 569 0
L 569 641
L 1209 641
L 1209 0
Q 1209 -353 1084 -570
Q 959 -788 688 -906
L 531 -666
Q 709 -588 793 -436
Q 878 -284 888 0
L 569 0
z
" transform="scale(0.015625)"/>
       <path id="ArialMT-20" transform="scale(0.015625)"/>
       <path id="ArialMT-7c" d="M 588 -1347
L 588 4659
L 1078 4659
L 1078 -1347
L 588 -1347
z
" transform="scale(0.015625)"/>
       <path id="ArialMT-41" d="M -9 0
L 1750 4581
L 2403 4581
L 4278 0
L 3588 0
L 3053 1388
L 1138 1388
L 634 0
L -9 0
z
M 1313 1881
L 2866 1881
L 2388 3150
Q 2169 3728 2063 4100
Q 1975 3659 1816 3225
L 1313 1881
z
" transform="scale(0.015625)"/>
       <path id="ArialMT-70" d="M 422 -1272
L 422 3319
L 934 3319
L 934 2888
Q 1116 3141 1344 3267
Q 1572 3394 1897 3394
Q 2322 3394 2647 3175
Q 2972 2956 3137 2557
Q 3303 2159 3303 1684
Q 3303 1175 3120 767
Q 2938 359 2589 142
Q 2241 -75 1856 -75
Q 1575 -75 1351 44
Q 1128 163 984 344
L 984 -1272
L 422 -1272
z
M 931 1641
Q 931 1000 1190 694
Q 1450 388 1819 388
Q 2194 388 2461 705
Q 2728 1022 2728 1688
Q 2728 2322 2467 2637
Q 2206 2953 1844 2953
Q 1484 2953 1207 2617
Q 931 2281 931 1641
z
" transform="scale(0.015625)"/>
       <path id="ArialMT-6c" d="M 409 0
L 409 4581
L 972 4581
L 972 0
L 409 0
z
" transform="scale(0.015625)"/>
       <path id="ArialMT-65" d="M 2694 1069
L 3275 997
Q 3138 488 2766 206
Q 2394 -75 1816 -75
Q 1088 -75 661 373
Q 234 822 234 1631
Q 234 2469 665 2931
Q 1097 3394 1784 3394
Q 2450 3394 2872 2941
Q 3294 2488 3294 1666
Q 3294 1616 3291 1516
L 816 1516
Q 847 969 1125 678
Q 1403 388 1819 388
Q 2128 388 2347 550
Q 2566 713 2694 1069
z
M 847 1978
L 2700 1978
Q 2663 2397 2488 2606
Q 2219 2931 1791 2931
Q 1403 2931 1139 2672
Q 875 2413 847 1978
z
" transform="scale(0.015625)"/>
       <path id="ArialMT-28" d="M 1497 -1347
Q 1031 -759 709 28
Q 388 816 388 1659
Q 388 2403 628 3084
Q 909 3875 1497 4659
L 1900 4659
Q 1522 4009 1400 3731
Q 1209 3300 1100 2831
Q 966 2247 966 1656
Q 966 153 1900 -1347
L 1497 -1347
z
" transform="scale(0.015625)"/>
       <path id="ArialMT-6f" d="M 213 1659
Q 213 2581 725 3025
Q 1153 3394 1769 3394
Q 2453 3394 2887 2945
Q 3322 2497 3322 1706
Q 3322 1066 3130 698
Q 2938 331 2570 128
Q 2203 -75 1769 -75
Q 1072 -75 642 372
Q 213 819 213 1659
z
M 791 1659
Q 791 1022 1069 705
Q 1347 388 1769 388
Q 2188 388 2466 706
Q 2744 1025 2744 1678
Q 2744 2294 2464 2611
Q 2184 2928 1769 2928
Q 1347 2928 1069 2612
Q 791 2297 791 1659
z
" transform="scale(0.015625)"/>
       <path id="ArialMT-72" d="M 416 0
L 416 3319
L 922 3319
L 922 2816
Q 1116 3169 1280 3281
Q 1444 3394 1641 3394
Q 1925 3394 2219 3213
L 2025 2691
Q 1819 2813 1613 2813
Q 1428 2813 1281 2702
Q 1134 2591 1072 2394
Q 978 2094 978 1738
L 978 0
L 416 0
z
" transform="scale(0.015625)"/>
       <path id="ArialMT-73" d="M 197 991
L 753 1078
Q 800 744 1014 566
Q 1228 388 1613 388
Q 2000 388 2187 545
Q 2375 703 2375 916
Q 2375 1106 2209 1216
Q 2094 1291 1634 1406
Q 1016 1563 777 1677
Q 538 1791 414 1992
Q 291 2194 291 2438
Q 291 2659 392 2848
Q 494 3038 669 3163
Q 800 3259 1026 3326
Q 1253 3394 1513 3394
Q 1903 3394 2198 3281
Q 2494 3169 2634 2976
Q 2775 2784 2828 2463
L 2278 2388
Q 2241 2644 2061 2787
Q 1881 2931 1553 2931
Q 1166 2931 1000 2803
Q 834 2675 834 2503
Q 834 2394 903 2306
Q 972 2216 1119 2156
Q 1203 2125 1616 2013
Q 2213 1853 2448 1751
Q 2684 1650 2818 1456
Q 2953 1263 2953 975
Q 2953 694 2789 445
Q 2625 197 2315 61
Q 2006 -75 1616 -75
Q 969 -75 630 194
Q 291 463 197 991
z
" transform="scale(0.015625)"/>
       <path id="ArialMT-29" d="M 791 -1347
L 388 -1347
Q 1322 153 1322 1656
Q 1322 2244 1188 2822
Q 1081 3291 891 3722
Q 769 4003 388 4659
L 791 4659
Q 1378 3875 1659 3084
Q 1900 2403 1900 1659
Q 1900 816 1576 28
Q 1253 -759 791 -1347
z
" transform="scale(0.015625)"/>
       <path id="ArialMT-4c" d="M 469 0
L 469 4581
L 1075 4581
L 1075 541
L 3331 541
L 3331 0
L 469 0
z
" transform="scale(0.015625)"/>
       <path id="ArialMT-53" d="M 288 1472
L 859 1522
Q 900 1178 1048 958
Q 1197 738 1509 602
Q 1822 466 2213 466
Q 2559 466 2825 569
Q 3091 672 3220 851
Q 3350 1031 3350 1244
Q 3350 1459 3225 1620
Q 3100 1781 2813 1891
Q 2628 1963 1997 2114
Q 1366 2266 1113 2400
Q 784 2572 623 2826
Q 463 3081 463 3397
Q 463 3744 659 4045
Q 856 4347 1234 4503
Q 1613 4659 2075 4659
Q 2584 4659 2973 4495
Q 3363 4331 3572 4012
Q 3781 3694 3797 3291
L 3216 3247
Q 3169 3681 2898 3903
Q 2628 4125 2100 4125
Q 1550 4125 1298 3923
Q 1047 3722 1047 3438
Q 1047 3191 1225 3031
Q 1400 2872 2139 2705
Q 2878 2538 3153 2413
Q 3553 2228 3743 1945
Q 3934 1663 3934 1294
Q 3934 928 3725 604
Q 3516 281 3123 101
Q 2731 -78 2241 -78
Q 1619 -78 1198 103
Q 778 284 539 648
Q 300 1013 288 1472
z
" transform="scale(0.015625)"/>
       <path id="ArialMT-74" d="M 1650 503
L 1731 6
Q 1494 -44 1306 -44
Q 1000 -44 831 53
Q 663 150 594 308
Q 525 466 525 972
L 525 2881
L 113 2881
L 113 3319
L 525 3319
L 525 4141
L 1084 4478
L 1084 3319
L 1650 3319
L 1650 2881
L 1084 2881
L 1084 941
Q 1084 700 1114 631
Q 1144 563 1211 522
Q 1278 481 1403 481
Q 1497 481 1650 503
z
" transform="scale(0.015625)"/>
       <path id="ArialMT-75" d="M 2597 0
L 2597 488
Q 2209 -75 1544 -75
Q 1250 -75 995 37
Q 741 150 617 320
Q 494 491 444 738
Q 409 903 409 1263
L 409 3319
L 972 3319
L 972 1478
Q 972 1038 1006 884
Q 1059 663 1231 536
Q 1403 409 1656 409
Q 1909 409 2131 539
Q 2353 669 2445 892
Q 2538 1116 2538 1541
L 2538 3319
L 3100 3319
L 3100 0
L 2597 0
z
" transform="scale(0.015625)"/>
       <path id="ArialMT-64" d="M 2575 0
L 2575 419
Q 2259 -75 1647 -75
Q 1250 -75 917 144
Q 584 363 401 755
Q 219 1147 219 1656
Q 219 2153 384 2558
Q 550 2963 881 3178
Q 1213 3394 1622 3394
Q 1922 3394 2156 3267
Q 2391 3141 2538 2938
L 2538 4581
L 3097 4581
L 3097 0
L 2575 0
z
M 797 1656
Q 797 1019 1065 703
Q 1334 388 1700 388
Q 2069 388 2326 689
Q 2584 991 2584 1609
Q 2584 2291 2321 2609
Q 2059 2928 1675 2928
Q 1300 2928 1048 2622
Q 797 2316 797 1656
z
" transform="scale(0.015625)"/>
       <path id="ArialMT-69" d="M 425 3934
L 425 4581
L 988 4581
L 988 3934
L 425 3934
z
M 425 0
L 425 3319
L 988 3319
L 988 0
L 425 0
z
" transform="scale(0.015625)"/>
      </defs>
      <use xlink:href="#ArialMT-4d"/>
      <use xlink:href="#ArialMT-61" transform="translate(83.300781 0)"/>
      <use xlink:href="#ArialMT-63" transform="translate(138.916016 0)"/>
      <use xlink:href="#ArialMT-31" transform="translate(188.916016 0)"/>
      <use xlink:href="#ArialMT-34" transform="translate(244.53125 0)"/>
      <use xlink:href="#ArialMT-2c" transform="translate(300.146484 0)"/>
      <use xlink:href="#ArialMT-37" transform="translate(327.929688 0)"/>
      <use xlink:href="#ArialMT-20" transform="translate(383.544922 0)"/>
      <use xlink:href="#ArialMT-7c" transform="translate(411.328125 0)"/>
      <use xlink:href="#ArialMT-20" transform="translate(437.304688 0)"/>
      <use xlink:href="#ArialMT-41" transform="translate(459.587891 0)"/>
      <use xlink:href="#ArialMT-70" transform="translate(526.287109 0)"/>
      <use xlink:href="#ArialMT-70" transform="translate(581.902344 0)"/>
      <use xlink:href="#ArialMT-6c" transform="translate(637.517578 0)"/>
      <use xlink:href="#ArialMT-65" transform="translate(659.734375 0)"/>
      <use xlink:href="#ArialMT-20" transform="translate(715.349609 0)"/>
      <use xlink:href="#ArialMT-4d" transform="translate(743.132812 0)"/>
      <use xlink:href="#ArialMT-32" transform="translate(826.433594 0)"/>
      <use xlink:href="#ArialMT-20" transform="translate(882.048828 0)"/>
      <use xlink:href="#ArialMT-28" transform="translate(909.832031 0)"/>
      <use xlink:href="#ArialMT-31" transform="translate(943.132812 0)"/>
      <use xlink:href="#ArialMT-30" transform="translate(998.748047 0)"/>
      <use xlink:href="#ArialMT-20" transform="translate(1054.363281 0)"/>
      <use xlink:href="#ArialMT-63" transform="translate(1082.146484 0)"/>
      <use xlink:href="#ArialMT-6f" transform="translate(1132.146484 0)"/>
      <use xlink:href="#ArialMT-72" transform="translate(1187.761719 0)"/>
      <use xlink:href="#ArialMT-65" transform="translate(1221.0625 0)"/>
      <use xlink:href="#ArialMT-73" transform="translate(1276.677734 0)"/>
      <use xlink:href="#ArialMT-29" transform="translate(1326.677734 0)"/>
      <use xlink:href="#ArialMT-20" transform="translate(1359.978516 0)"/>
      <use xlink:href="#ArialMT-7c" transform="translate(1387.761719 0)"/>
      <use xlink:href="#ArialMT-20" transform="translate(1413.738281 0)"/>
      <use xlink:href="#ArialMT-4c" transform="translate(1441.521484 0)"/>
      <use xlink:href="#ArialMT-4d" transform="translate(1497.136719 0)"/>
      <use xlink:href="#ArialMT-20" transform="translate(1580.4375 0)"/>
      <use xlink:href="#ArialMT-53" transform="translate(1608.220703 0)"/>
      <use xlink:href="#ArialMT-74" transform="translate(1674.919922 0)"/>
      <use xlink:href="#ArialMT-75" transform="translate(1702.703125 0)"/>
      <use xlink:href="#ArialMT-64" transform="translate(1758.318359 0)"/>
      <use xlink:href="#ArialMT-69" transform="translate(1813.933594 0)"/>
      <use xlink:href="#ArialMT-6f" transform="translate(1836.150391 0)"/>
     </g>
    </g>
    <g id="PathCollection_6">
     <g>
      <use xlink:href="#m6678585ce7" x="59.45875" y="80.252687" style="fill: #aec7e8; fill-opacity: 0.6; stroke: #ffffff; stroke-opacity: 0.6; stroke-width: 0.5"/>
     </g>
    </g>
    <g id="text_23">
     <!-- Mac16,10 | Apple M4 Max (40 cores) | LM Studio -->
     <g style="fill: #262626" transform="translate(77.45875 82.877687) scale(0.1 -0.1)">
      <defs>
       <path id="ArialMT-78" d="M 47 0
L 1259 1725
L 138 3319
L 841 3319
L 1350 2541
Q 1494 2319 1581 2169
Q 1719 2375 1834 2534
L 2394 3319
L 3066 3319
L 1919 1756
L 3153 0
L 2463 0
L 1781 1031
L 1600 1309
L 728 0
L 47 0
z
" transform="scale(0.015625)"/>
      </defs>
      <use xlink:href="#ArialMT-4d"/>
      <use xlink:href="#ArialMT-61" transform="translate(83.300781 0)"/>
      <use xlink:href="#ArialMT-63" transform="translate(138.916016 0)"/>
      <use xlink:href="#ArialMT-31" transform="translate(188.916016 0)"/>
      <use xlink:href="#ArialMT-36" transform="translate(244.53125 0)"/>
      <use xlink:href="#ArialMT-2c" transform="translate(300.146484 0)"/>
      <use xlink:href="#ArialMT-31" transform="translate(327.929688 0)"/>
      <use xlink:href="#ArialMT-30" transform="translate(383.544922 0)"/>
      <use xlink:href="#ArialMT-20" transform="translate(439.160156 0)"/>
      <use xlink:href="#ArialMT-7c" transform="translate(466.943359 0)"/>
      <use xlink:href="#ArialMT-20" transform="translate(492.919922 0)"/>
      <use xlink:href="#ArialMT-41" transform="translate(515.203125 0)"/>
      <use xlink:href="#ArialMT-70" transform="translate(581.902344 0)"/>
      <use xlink:href="#ArialMT-70" transform="translate(637.517578 0)"/>
      <use xlink:href="#ArialMT-6c" transform="translate(693.132812 0)"/>
      <use xlink:href="#ArialMT-65" transform="translate(715.349609 0)"/>
      <use xlink:href="#ArialMT-20" transform="translate(770.964844 0)"/>
      <use xlink:href="#ArialMT-4d" transform="translate(798.748047 0)"/>
      <use xlink:href="#ArialMT-34" transform="translate(882.048828 0)"/>
      <use xlink:href="#ArialMT-20" transform="translate(937.664062 0)"/>
      <use xlink:href="#ArialMT-4d" transform="translate(965.447266 0)"/>
      <use xlink:href="#ArialMT-61" transform="translate(1048.748047 0)"/>
      <use xlink:href="#ArialMT-78" transform="translate(1104.363281 0)"/>
      <use xlink:href="#ArialMT-20" transform="translate(1154.363281 0)"/>
      <use xlink:href="#ArialMT-28" transform="translate(1182.146484 0)"/>
      <use xlink:href="#ArialMT-34" transform="translate(1215.447266 0)"/>
      <use xlink:href="#ArialMT-30" transform="translate(1271.0625 0)"/>
      <use xlink:href="#ArialMT-20" transform="translate(1326.677734 0)"/>
      <use xlink:href="#ArialMT-63" transform="translate(1354.460938 0)"/>
      <use xlink:href="#ArialMT-6f" transform="translate(1404.460938 0)"/>
      <use xlink:href="#ArialMT-72" transform="translate(1460.076172 0)"/>
      <use xlink:href="#ArialMT-65" transform="translate(1493.376953 0)"/>
      <use xlink:href="#ArialMT-73" transform="translate(1548.992188 0)"/>
      <use xlink:href="#ArialMT-29" transform="translate(1598.992188 0)"/>
      <use xlink:href="#ArialMT-20" transform="translate(1632.292969 0)"/>
      <use xlink:href="#ArialMT-7c" transform="translate(1660.076172 0)"/>
      <use xlink:href="#ArialMT-20" transform="translate(1686.052734 0)"/>
      <use xlink:href="#ArialMT-4c" transform="translate(1713.835938 0)"/>
      <use xlink:href="#ArialMT-4d" transform="translate(1769.451172 0)"/>
      <use xlink:href="#ArialMT-20" transform="translate(1852.751953 0)"/>
      <use xlink:href="#ArialMT-53" transform="translate(1880.535156 0)"/>
      <use xlink:href="#ArialMT-74" transform="translate(1947.234375 0)"/>
      <use xlink:href="#ArialMT-75" transform="translate(1975.017578 0)"/>
      <use xlink:href="#ArialMT-64" transform="translate(2030.632812 0)"/>
      <use xlink:href="#ArialMT-69" transform="translate(2086.248047 0)"/>
      <use xlink:href="#ArialMT-6f" transform="translate(2108.464844 0)"/>
     </g>
    </g>
    <g id="PathCollection_7">
     <g>
      <use xlink:href="#m8440968f56" x="59.45875" y="94.643312" style="fill: #ff7f0e; fill-opacity: 0.6; stroke: #ffffff; stroke-opacity: 0.6; stroke-width: 0.5"/>
     </g>
    </g>
    <g id="text_24">
     <!-- RTX4060Ti-PC | NVIDIA RTX 4060 Ti | Ollama -->
     <g style="fill: #262626" transform="translate(77.45875 97.268312) scale(0.1 -0.1)">
      <defs>
       <path id="ArialMT-52" d="M 503 0
L 503 4581
L 2534 4581
Q 3147 4581 3465 4457
Q 3784 4334 3975 4021
Q 4166 3709 4166 3331
Q 4166 2844 3850 2509
Q 3534 2175 2875 2084
Q 3116 1969 3241 1856
Q 3506 1613 3744 1247
L 4541 0
L 3778 0
L 3172 953
Q 2906 1366 2734 1584
Q 2563 1803 2427 1890
Q 2291 1978 2150 2013
Q 2047 2034 1813 2034
L 1109 2034
L 1109 0
L 503 0
z
M 1109 2559
L 2413 2559
Q 2828 2559 3062 2645
Q 3297 2731 3419 2920
Q 3541 3109 3541 3331
Q 3541 3656 3305 3865
Q 3069 4075 2559 4075
L 1109 4075
L 1109 2559
z
" transform="scale(0.015625)"/>
       <path id="ArialMT-54" d="M 1659 0
L 1659 4041
L 150 4041
L 150 4581
L 3781 4581
L 3781 4041
L 2266 4041
L 2266 0
L 1659 0
z
" transform="scale(0.015625)"/>
       <path id="ArialMT-58" d="M 28 0
L 1800 2388
L 238 4581
L 959 4581
L 1791 3406
Q 2050 3041 2159 2844
Q 2313 3094 2522 3366
L 3444 4581
L 4103 4581
L 2494 2422
L 4228 0
L 3478 0
L 2325 1634
Q 2228 1775 2125 1941
Q 1972 1691 1906 1597
L 756 0
L 28 0
z
" transform="scale(0.015625)"/>
       <path id="ArialMT-2d" d="M 203 1375
L 203 1941
L 1931 1941
L 1931 1375
L 203 1375
z
" transform="scale(0.015625)"/>
       <path id="ArialMT-50" d="M 494 0
L 494 4581
L 2222 4581
Q 2678 4581 2919 4538
Q 3256 4481 3484 4323
Q 3713 4166 3852 3881
Q 3991 3597 3991 3256
Q 3991 2672 3619 2267
Q 3247 1863 2275 1863
L 1100 1863
L 1100 0
L 494 0
z
M 1100 2403
L 2284 2403
Q 2872 2403 3119 2622
Q 3366 2841 3366 3238
Q 3366 3525 3220 3729
Q 3075 3934 2838 4000
Q 2684 4041 2272 4041
L 1100 4041
L 1100 2403
z
" transform="scale(0.015625)"/>
       <path id="ArialMT-43" d="M 3763 1606
L 4369 1453
Q 4178 706 3683 314
Q 3188 -78 2472 -78
Q 1731 -78 1267 223
Q 803 525 561 1097
Q 319 1669 319 2325
Q 319 3041 592 3573
Q 866 4106 1370 4382
Q 1875 4659 2481 4659
Q 3169 4659 3637 4309
Q 4106 3959 4291 3325
L 3694 3184
Q 3534 3684 3231 3912
Q 2928 4141 2469 4141
Q 1941 4141 1586 3887
Q 1231 3634 1087 3207
Q 944 2781 944 2328
Q 944 1744 1114 1308
Q 1284 872 1643 656
Q 2003 441 2422 441
Q 2931 441 3284 734
Q 3638 1028 3763 1606
z
" transform="scale(0.015625)"/>
       <path id="ArialMT-4e" d="M 488 0
L 488 4581
L 1109 4581
L 3516 984
L 3516 4581
L 4097 4581
L 4097 0
L 3475 0
L 1069 3600
L 1069 0
L 488 0
z
" transform="scale(0.015625)"/>
       <path id="ArialMT-56" d="M 1803 0
L 28 4581
L 684 4581
L 1875 1253
Q 2019 853 2116 503
Q 2222 878 2363 1253
L 3600 4581
L 4219 4581
L 2425 0
L 1803 0
z
" transform="scale(0.015625)"/>
       <path id="ArialMT-49" d="M 597 0
L 597 4581
L 1203 4581
L 1203 0
L 597 0
z
" transform="scale(0.015625)"/>
       <path id="ArialMT-44" d="M 494 0
L 494 4581
L 2072 4581
Q 2606 4581 2888 4516
Q 3281 4425 3559 4188
Q 3922 3881 4101 3404
Q 4281 2928 4281 2316
Q 4281 1794 4159 1391
Q 4038 988 3847 723
Q 3656 459 3429 307
Q 3203 156 2883 78
Q 2563 0 2147 0
L 494 0
z
M 1100 541
L 2078 541
Q 2531 541 2789 625
Q 3047 709 3200 863
Q 3416 1078 3536 1442
Q 3656 1806 3656 2325
Q 3656 3044 3420 3430
Q 3184 3816 2847 3947
Q 2603 4041 2063 4041
L 1100 4041
L 1100 541
z
" transform="scale(0.015625)"/>
       <path id="ArialMT-4f" d="M 309 2231
Q 309 3372 921 4017
Q 1534 4663 2503 4663
Q 3138 4663 3647 4359
Q 4156 4056 4423 3514
Q 4691 2972 4691 2284
Q 4691 1588 4409 1038
Q 4128 488 3612 205
Q 3097 -78 2500 -78
Q 1853 -78 1343 234
Q 834 547 571 1087
Q 309 1628 309 2231
z
M 934 2222
Q 934 1394 1379 917
Q 1825 441 2497 441
Q 3181 441 3623 922
Q 4066 1403 4066 2288
Q 4066 2847 3877 3264
Q 3688 3681 3323 3911
Q 2959 4141 2506 4141
Q 1863 4141 1398 3698
Q 934 3256 934 2222
z
" transform="scale(0.015625)"/>
       <path id="ArialMT-6d" d="M 422 0
L 422 3319
L 925 3319
L 925 2853
Q 1081 3097 1340 3245
Q 1600 3394 1931 3394
Q 2300 3394 2536 3241
Q 2772 3088 2869 2813
Q 3263 3394 3894 3394
Q 4388 3394 4653 3120
Q 4919 2847 4919 2278
L 4919 0
L 4359 0
L 4359 2091
Q 4359 2428 4304 2576
Q 4250 2725 4106 2815
Q 3963 2906 3769 2906
Q 3419 2906 3187 2673
Q 2956 2441 2956 1928
L 2956 0
L 2394 0
L 2394 2156
Q 2394 2531 2256 2718
Q 2119 2906 1806 2906
Q 1569 2906 1367 2781
Q 1166 2656 1075 2415
Q 984 2175 984 1722
L 984 0
L 422 0
z
" transform="scale(0.015625)"/>
      </defs>
      <use xlink:href="#ArialMT-52"/>
      <use xlink:href="#ArialMT-54" transform="translate(70.466797 0)"/>
      <use xlink:href="#ArialMT-58" transform="translate(131.550781 0)"/>
      <use xlink:href="#ArialMT-34" transform="translate(198.25 0)"/>
      <use xlink:href="#ArialMT-30" transform="translate(253.865234 0)"/>
      <use xlink:href="#ArialMT-36" transform="translate(309.480469 0)"/>
      <use xlink:href="#ArialMT-30" transform="translate(365.095703 0)"/>
      <use xlink:href="#ArialMT-54" transform="translate(420.710938 0)"/>
      <use xlink:href="#ArialMT-69" transform="translate(478.044922 0)"/>
      <use xlink:href="#ArialMT-2d" transform="translate(500.261719 0)"/>
      <use xlink:href="#ArialMT-50" transform="translate(533.5625 0)"/>
      <use xlink:href="#ArialMT-43" transform="translate(600.261719 0)"/>
      <use xlink:href="#ArialMT-20" transform="translate(672.478516 0)"/>
      <use xlink:href="#ArialMT-7c" transform="translate(700.261719 0)"/>
      <use xlink:href="#ArialMT-20" transform="translate(726.238281 0)"/>
      <use xlink:href="#ArialMT-4e" transform="translate(754.021484 0)"/>
      <use xlink:href="#ArialMT-56" transform="translate(826.238281 0)"/>
      <use xlink:href="#ArialMT-49" transform="translate(892.9375 0)"/>
      <use xlink:href="#ArialMT-44" transform="translate(920.720703 0)"/>
      <use xlink:href="#ArialMT-49" transform="translate(992.9375 0)"/>
      <use xlink:href="#ArialMT-41" transform="translate(1020.720703 0)"/>
      <use xlink:href="#ArialMT-20" transform="translate(1081.919922 0)"/>
      <use xlink:href="#ArialMT-52" transform="translate(1109.703125 0)"/>
      <use xlink:href="#ArialMT-54" transform="translate(1180.169922 0)"/>
      <use xlink:href="#ArialMT-58" transform="translate(1241.253906 0)"/>
      <use xlink:href="#ArialMT-20" transform="translate(1307.953125 0)"/>
      <use xlink:href="#ArialMT-34" transform="translate(1335.736328 0)"/>
      <use xlink:href="#ArialMT-30" transform="translate(1391.351562 0)"/>
      <use xlink:href="#ArialMT-36" transform="translate(1446.966797 0)"/>
      <use xlink:href="#ArialMT-30" transform="translate(1502.582031 0)"/>
      <use xlink:href="#ArialMT-20" transform="translate(1558.197266 0)"/>
      <use xlink:href="#ArialMT-54" transform="translate(1584.230469 0)"/>
      <use xlink:href="#ArialMT-69" transform="translate(1641.564453 0)"/>
      <use xlink:href="#ArialMT-20" transform="translate(1663.78125 0)"/>
      <use xlink:href="#ArialMT-7c" transform="translate(1691.564453 0)"/>
      <use xlink:href="#ArialMT-20" transform="translate(1717.541016 0)"/>
      <use xlink:href="#ArialMT-4f" transform="translate(1745.324219 0)"/>
      <use xlink:href="#ArialMT-6c" transform="translate(1823.107422 0)"/>
      <use xlink:href="#ArialMT-6c" transform="translate(1845.324219 0)"/>
      <use xlink:href="#ArialMT-61" transform="translate(1867.541016 0)"/>
      <use xlink:href="#ArialMT-6d" transform="translate(1923.15625 0)"/>
      <use xlink:href="#ArialMT-61" transform="translate(2006.457031 0)"/>
     </g>
    </g>
    <g id="PathCollection_8">
     <g>
      <use xlink:href="#mf366bd3195" x="59.45875" y="109.027687" style="fill: #ffbb78; fill-opacity: 0.6; stroke: #ffffff; stroke-opacity: 0.6; stroke-width: 0.5"/>
     </g>
    </g>
    <g id="text_25">
     <!-- Radeon-Workstation | AMD Radeon RX 7900 XTX | LM Studio -->
     <g style="fill: #262626" transform="translate(77.45875 111.652687) scale(0.1 -0.1)">
      <defs>
       <path id="ArialMT-6e" d="M 422 0
L 422 3319
L 928 3319
L 928 2847
Q 1294 3394 1984 3394
Q 2284 3394 2536 3286
Q 2788 3178 2913 3003
Q 3038 2828 3088 2588
Q 3119 2431 3119 2041
L 3119 0
L 2556 0
L 2556 2019
Q 2556 2363 2490 2533
Q 2425 2703 2258 2804
Q 2091 2906 1866 2906
Q 1506 2906 1245 2678
Q 984 2450 984 1813
L 984 0
L 422 0
z
" transform="scale(0.015625)"/>
       <path id="ArialMT-57" d="M 1294 0
L 78 4581
L 700 4581
L 1397 1578
Q 1509 1106 1591 641
Q 1766 1375 1797 1488
L 2669 4581
L 3400 4581
L 4056 2263
Q 4303 1400 4413 641
Q 4500 1075 4641 1638
L 5359 4581
L 5969 4581
L 4713 0
L 4128 0
L 3163 3491
Q 3041 3928 3019 4028
Q 2947 3713 2884 3491
L 1913 0
L 1294 0
z
" transform="scale(0.015625)"/>
       <path id="ArialMT-6b" d="M 425 0
L 425 4581
L 988 4581
L 988 1969
L 2319 3319
L 3047 3319
L 1778 2088
L 3175 0
L 2481 0
L 1384 1697
L 988 1316
L 988 0
L 425 0
z
" transform="scale(0.015625)"/>
      </defs>
      <use xlink:href="#ArialMT-52"/>
      <use xlink:href="#ArialMT-61" transform="translate(72.216797 0)"/>
      <use xlink:href="#ArialMT-64" transform="translate(127.832031 0)"/>
      <use xlink:href="#ArialMT-65" transform="translate(183.447266 0)"/>
      <use xlink:href="#ArialMT-6f" transform="translate(239.0625 0)"/>
      <use xlink:href="#ArialMT-6e" transform="translate(294.677734 0)"/>
      <use xlink:href="#ArialMT-2d" transform="translate(350.292969 0)"/>
      <use xlink:href="#ArialMT-57" transform="translate(383.59375 0)"/>
      <use xlink:href="#ArialMT-6f" transform="translate(476.228516 0)"/>
      <use xlink:href="#ArialMT-72" transform="translate(531.84375 0)"/>
      <use xlink:href="#ArialMT-6b" transform="translate(565.144531 0)"/>
      <use xlink:href="#ArialMT-73" transform="translate(615.144531 0)"/>
      <use xlink:href="#ArialMT-74" transform="translate(665.144531 0)"/>
      <use xlink:href="#ArialMT-61" transform="translate(692.927734 0)"/>
      <use xlink:href="#ArialMT-74" transform="translate(748.542969 0)"/>
      <use xlink:href="#ArialMT-69" transform="translate(776.326172 0)"/>
      <use xlink:href="#ArialMT-6f" transform="translate(798.542969 0)"/>
      <use xlink:href="#ArialMT-6e" transform="translate(854.158203 0)"/>
      <use xlink:href="#ArialMT-20" transform="translate(909.773438 0)"/>
      <use xlink:href="#ArialMT-7c" transform="translate(937.556641 0)"/>
      <use xlink:href="#ArialMT-20" transform="translate(963.533203 0)"/>
      <use xlink:href="#ArialMT-41" transform="translate(985.816406 0)"/>
      <use xlink:href="#ArialMT-4d" transform="translate(1052.515625 0)"/>
      <use xlink:href="#ArialMT-44" transform="translate(1135.816406 0)"/>
      <use xlink:href="#ArialMT-20" transform="translate(1208.033203 0)"/>
      <use xlink:href="#ArialMT-52" transform="translate(1235.816406 0)"/>
      <use xlink:href="#ArialMT-61" transform="translate(1308.033203 0)"/>
      <use xlink:href="#ArialMT-64" transform="translate(1363.648438 0)"/>
      <use xlink:href="#ArialMT-65" transform="translate(1419.263672 0)"/>
      <use xlink:href="#ArialMT-6f" transform="translate(1474.878906 0)"/>
      <use xlink:href="#ArialMT-6e" transform="translate(1530.494141 0)"/>
      <use xlink:href="#ArialMT-20" transform="translate(1586.109375 0)"/>
      <use xlink:href="#ArialMT-52" transform="translate(1613.892578 0)"/>
      <use xlink:href="#ArialMT-58" transform="translate(1686.109375 0)"/>
      <use xlink:href="#ArialMT-20" transform="translate(1752.808594 0)"/>
      <use xlink:href="#ArialMT-37" transform="translate(1780.591797 0)"/>
      <use xlink:href="#ArialMT-39" transform="translate(1836.207031 0)"/>
      <use xlink:href="#ArialMT-30" transform="translate(1891.822266 0)"/>
      <use xlink:href="#ArialMT-30" transform="translate(1947.4375 0)"/>
      <use xlink:href="#ArialMT-20" transform="translate(2003.052734 0)"/>
      <use xlink:href="#ArialMT-58" transform="translate(2030.835938 0)"/>
      <use xlink:href="#ArialMT-54" transform="translate(2097.535156 0)"/>
      <use xlink:href="#ArialMT-58" transform="translate(2158.619141 0)"/>
      <use xlink:href="#ArialMT-20" transform="translate(2225.318359 0)"/>
      <use xlink:href="#ArialMT-7c" transform="translate(2253.101562 0)"/>
      <use xlink:href="#ArialMT-20" transform="translate(2279.078125 0)"/>
      <use xlink:href="#ArialMT-4c" transform="translate(2306.861328 0)"/>
      <use xlink:href="#ArialMT-4d" transform="translate(2362.476562 0)"/>
      <use xlink:href="#ArialMT-20" transform="translate(2445.777344 0)"/>
      <use xlink:href="#ArialMT-53" transform="translate(2473.560547 0)"/>
      <use xlink:href="#ArialMT-74" transform="translate(2540.259766 0)"/>
      <use xlink:href="#ArialMT-75" transform="translate(2568.042969 0)"/>
      <use xlink:href="#ArialMT-64" transform="translate(2623.658203 0)"/>
      <use xlink:href="#ArialMT-69" transform="translate(2679.273438 0)"/>
      <use xlink:href="#ArialMT-6f" transform="translate(2701.490234 0)"/>
     </g>
    </g>
   </g>
  </g>
 </g>
 <defs>
  <clipPath id="p8602ee892f">
   <rect x="40.45875" y="52.213625" width="809.11" height="405.5"/>
  </clipPath>
 </defs>
</svg>
