<?xml version="1.0" encoding="utf-8" standalone="no"?>
<!DOCTYPE svg PUBLIC "-//W3C//DTD SVG 1.1//EN"
  "http://www.w3.org/Graphics/SVG/1.1/DTD/svg11.dtd">
<svg xmlns:xlink="http://www.w3.org/1999/xlink" width="856.775pt" height="496.52475pt" viewBox="0 0 856.775 496.52475" xmlns="http://www.w3.org/2000/svg" version="1.1">
 <metadata>
  <rdf:RDF xmlns:dc="http://purl.org/dc/elements/1.1/" xmlns:cc="http://creativecommons.org/ns#" xmlns:rdf="http://www.w3.org/1999/02/22-rdf-syntax-ns#">
   <cc:Work>
    <dc:type rdf:resource="http://purl.org/dc/dcmitype/StillImage"/>
    <dc:date>2025-11-02T23:40:54.939892</dc:date>
    <dc:format>image/svg+xml</dc:format>
    <dc:creator>
     <cc:Agent>
      <dc:title>Matplotlib v3.10.7, https://matplotlib.org/</dc:title>
     </cc:Agent>
    </dc:creator>
   </cc:Work>
  </rdf:RDF>
 </metadata>
 <defs>
  <style type="text/css">*{stroke-linejoin: round; stroke-linecap: butt}</style>
 </defs>
 <g id="figure_1">
  <g id="patch_1">
   <path d="M 0 496.52475
L 856.775 496.52475
L 856.775 0
L 0 0
z
" style="fill: #ffffff"/>
  </g>
  <g id="axes_1">
   <g id="patch_2">
    <path d="M 36.01 457.64725
L 849.575 457.64725
L 849.575 52.36325
L 36.01 52.36325
z
" style="fill: #eaeaf2"/>
   </g>
   <g id="matplotlib.axis_1">
    <g id="xtick_1">
     <g id="line2d_1">
      <path d="M 45.631243 457.64725
L 45.631243 52.36325
" clip-path="url(#p4d3b21c529)" style="fill: none; stroke-dasharray: 1.85,0.8; stroke-dashoffset: 0; stroke: #ffffff; stroke-opacity: 0.3; stroke-width: 0.5"/>
     </g>
     <g id="text_1">
      <!-- 100 -->
      <g style="fill: #262626" transform="translate(38.958118 472.4735) scale(0.08 -0.08)">
       <defs>
        <path id="ArialMT-31" d="M 2384 0
L 1822 0
L 1822 3584
Q 1619 3391 1289 3197
Q 959 3003 697 2906
L 697 3450
Q 1169 3672 1522 3987
Q 1875 4303 2022 4600
L 2384 4600
L 2384 0
z
" transform="scale(0.015625)"/>
        <path id="ArialMT-30" d="M 266 2259
Q 266 3072 433 3567
Q 600 4063 929 4331
Q 1259 4600 1759 4600
Q 2128 4600 2406 4451
Q 2684 4303 2865 4023
Q 3047 3744 3150 3342
Q 3253 2941 3253 2259
Q 3253 1453 3087 958
Q 2922 463 2592 192
Q 2263 -78 1759 -78
Q 1097 -78 719 397
Q 266 969 266 2259
z
M 844 2259
Q 844 1131 1108 757
Q 1372 384 1759 384
Q 2147 384 2411 759
Q 2675 1134 2675 2259
Q 2675 3391 2411 3762
Q 2147 4134 1753 4134
Q 1366 4134 1134 3806
Q 844 3388 844 2259
z
" transform="scale(0.015625)"/>
       </defs>
       <use xlink:href="#ArialMT-31"/>
       <use xlink:href="#ArialMT-30" transform="translate(55.615234 0)"/>
       <use xlink:href="#ArialMT-30" transform="translate(111.230469 0)"/>
      </g>
     </g>
    </g>
    <g id="xtick_2">
     <g id="line2d_2">
      <path d="M 136.827858 457.64725
L 136.827858 52.36325
" clip-path="url(#p4d3b21c529)" style="fill: none; stroke-dasharray: 1.85,0.8; stroke-dashoffset: 0; stroke: #ffffff; stroke-opacity: 0.3; stroke-width: 0.5"/>
     </g>
     <g id="text_2">
      <!-- 200 -->
      <g style="fill: #262626" transform="translate(130.154733 472.4735) scale(0.08 -0.08)">
       <defs>
        <path id="ArialMT-32" d="M 3222 541
L 3222 0
L 194 0
Q 188 203 259 391
Q 375 700 629 1000
Q 884 1300 1366 1694
Q 2113 2306 2375 2664
Q 2638 3022 2638 3341
Q 2638 3675 2398 3904
Q 2159 4134 1775 4134
Q 1369 4134 1125 3890
Q 881 3647 878 3216
L 300 3275
Q 359 3922 746 4261
Q 1134 4600 1788 4600
Q 2447 4600 2831 4234
Q 3216 3869 3216 3328
Q 3216 3053 3103 2787
Q 2991 2522 2730 2228
Q 2469 1934 1863 1422
Q 1356 997 1212 845
Q 1069 694 975 541
L 3222 541
z
" transform="scale(0.015625)"/>
       </defs>
       <use xlink:href="#ArialMT-32"/>
       <use xlink:href="#ArialMT-30" transform="translate(55.615234 0)"/>
       <use xlink:href="#ArialMT-30" transform="translate(111.230469 0)"/>
      </g>
     </g>
    </g>
    <g id="xtick_3">
     <g id="line2d_3">
      <path d="M 228.024472 457.64725
L 228.024472 52.36325
" clip-path="url(#p4d3b21c529)" style="fill: none; stroke-dasharray: 1.85,0.8; stroke-dashoffset: 0; stroke: #ffffff; stroke-opacity: 0.3; stroke-width: 0.5"/>
     </g>
     <g id="text_3">
      <!-- 300 -->
      <g style="fill: #262626" transform="translate(221.351347 472.4735) scale(0.08 -0.08)">
       <defs>
        <path id="ArialMT-33" d="M 269 1209
L 831 1284
Q 928 806 1161 595
Q 1394 384 1728 384
Q 2125 384 2398 659
Q 2672 934 2672 1341
Q 2672 1728 2419 1979
Q 2166 2231 1775 2231
Q 1616 2231 1378 2169
L 1441 2663
Q 1497 2656 1531 2656
Q 1891 2656 2178 2843
Q 2466 3031 2466 3422
Q 2466 3731 2256 3934
Q 2047 4138 1716 4138
Q 1388 4138 1169 3931
Q 950 3725 888 3313
L 325 3413
Q 428 3978 793 4289
Q 1159 4600 1703 4600
Q 2078 4600 2393 4439
Q 2709 4278 2876 4000
Q 3044 3722 3044 3409
Q 3044 3113 2884 2869
Q 2725 2625 2413 2481
Q 2819 2388 3044 2092
Q 3269 1797 3269 1353
Q 3269 753 2831 336
Q 2394 -81 1725 -81
Q 1122 -81 723 278
Q 325 638 269 1209
z
" transform="scale(0.015625)"/>
       </defs>
       <use xlink:href="#ArialMT-33"/>
       <use xlink:href="#ArialMT-30" transform="translate(55.615234 0)"/>
       <use xlink:href="#ArialMT-30" transform="translate(111.230469 0)"/>
      </g>
     </g>
    </g>
    <g id="xtick_4">
     <g id="line2d_4">
      <path d="M 319.221087 457.64725
L 319.221087 52.36325
" clip-path="url(#p4d3b21c529)" style="fill: none; stroke-dasharray: 1.85,0.8; stroke-dashoffset: 0; stroke: #ffffff; stroke-opacity: 0.3; stroke-width: 0.5"/>
     </g>
     <g id="text_4">
      <!-- 400 -->
      <g style="fill: #262626" transform="translate(312.547962 472.4735) scale(0.08 -0.08)">
       <defs>
        <path id="ArialMT-34" d="M 2069 0
L 2069 1097
L 81 1097
L 81 1613
L 2172 4581
L 2631 4581
L 2631 1613
L 3250 1613
L 3250 1097
L 2631 1097
L 2631 0
L 2069 0
z
M 2069 1613
L 2069 3678
L 634 1613
L 2069 1613
z
" transform="scale(0.015625)"/>
       </defs>
       <use xlink:href="#ArialMT-34"/>
       <use xlink:href="#ArialMT-30" transform="translate(55.615234 0)"/>
       <use xlink:href="#ArialMT-30" transform="translate(111.230469 0)"/>
      </g>
     </g>
    </g>
    <g id="xtick_5">
     <g id="line2d_5">
      <path d="M 410.417702 457.64725
L 410.417702 52.36325
" clip-path="url(#p4d3b21c529)" style="fill: none; stroke-dasharray: 1.85,0.8; stroke-dashoffset: 0; stroke: #ffffff; stroke-opacity: 0.3; stroke-width: 0.5"/>
     </g>
     <g id="text_5">
      <!-- 500 -->
      <g style="fill: #262626" transform="translate(403.744577 472.4735) scale(0.08 -0.08)">
       <defs>
        <path id="ArialMT-35" d="M 266 1200
L 856 1250
Q 922 819 1161 601
Q 1400 384 1738 384
Q 2144 384 2425 690
Q 2706 997 2706 1503
Q 2706 1984 2436 2262
Q 2166 2541 1728 2541
Q 1456 2541 1237 2417
Q 1019 2294 894 2097
L 366 2166
L 809 4519
L 3088 4519
L 3088 3981
L 1259 3981
L 1013 2750
Q 1425 3038 1878 3038
Q 2478 3038 2890 2622
Q 3303 2206 3303 1553
Q 3303 931 2941 478
Q 2500 -78 1738 -78
Q 1113 -78 717 272
Q 322 622 266 1200
z
" transform="scale(0.015625)"/>
       </defs>
       <use xlink:href="#ArialMT-35"/>
       <use xlink:href="#ArialMT-30" transform="translate(55.615234 0)"/>
       <use xlink:href="#ArialMT-30" transform="translate(111.230469 0)"/>
      </g>
     </g>
    </g>
    <g id="xtick_6">
     <g id="line2d_6">
      <path d="M 501.614317 457.64725
L 501.614317 52.36325
" clip-path="url(#p4d3b21c529)" style="fill: none; stroke-dasharray: 1.85,0.8; stroke-dashoffset: 0; stroke: #ffffff; stroke-opacity: 0.3; stroke-width: 0.5"/>
     </g>
     <g id="text_6">
      <!-- 600 -->
      <g style="fill: #262626" transform="translate(494.941192 472.4735) scale(0.08 -0.08)">
       <defs>
        <path id="ArialMT-36" d="M 3184 3459
L 2625 3416
Q 2550 3747 2413 3897
Q 2184 4138 1850 4138
Q 1581 4138 1378 3988
Q 1113 3794 959 3422
Q 806 3050 800 2363
Q 1003 2672 1297 2822
Q 1591 2972 1913 2972
Q 2475 2972 2870 2558
Q 3266 2144 3266 1488
Q 3266 1056 3080 686
Q 2894 316 2569 119
Q 2244 -78 1831 -78
Q 1128 -78 684 439
Q 241 956 241 2144
Q 241 3472 731 4075
Q 1159 4600 1884 4600
Q 2425 4600 2770 4297
Q 3116 3994 3184 3459
z
M 888 1484
Q 888 1194 1011 928
Q 1134 663 1356 523
Q 1578 384 1822 384
Q 2178 384 2434 671
Q 2691 959 2691 1453
Q 2691 1928 2437 2201
Q 2184 2475 1800 2475
Q 1419 2475 1153 2201
Q 888 1928 888 1484
z
" transform="scale(0.015625)"/>
       </defs>
       <use xlink:href="#ArialMT-36"/>
       <use xlink:href="#ArialMT-30" transform="translate(55.615234 0)"/>
       <use xlink:href="#ArialMT-30" transform="translate(111.230469 0)"/>
      </g>
     </g>
    </g>
    <g id="xtick_7">
     <g id="line2d_7">
      <path d="M 592.810931 457.64725
L 592.810931 52.36325
" clip-path="url(#p4d3b21c529)" style="fill: none; stroke-dasharray: 1.85,0.8; stroke-dashoffset: 0; stroke: #ffffff; stroke-opacity: 0.3; stroke-width: 0.5"/>
     </g>
     <g id="text_7">
      <!-- 700 -->
      <g style="fill: #262626" transform="translate(586.137806 472.4735) scale(0.08 -0.08)">
       <defs>
        <path id="ArialMT-37" d="M 303 3981
L 303 4522
L 3269 4522
L 3269 4084
Q 2831 3619 2401 2847
Q 1972 2075 1738 1259
Q 1569 684 1522 0
L 944 0
Q 953 541 1156 1306
Q 1359 2072 1739 2783
Q 2119 3494 2547 3981
L 303 3981
z
" transform="scale(0.015625)"/>
       </defs>
       <use xlink:href="#ArialMT-37"/>
       <use xlink:href="#ArialMT-30" transform="translate(55.615234 0)"/>
       <use xlink:href="#ArialMT-30" transform="translate(111.230469 0)"/>
      </g>
     </g>
    </g>
    <g id="xtick_8">
     <g id="line2d_8">
      <path d="M 684.007546 457.64725
L 684.007546 52.36325
" clip-path="url(#p4d3b21c529)" style="fill: none; stroke-dasharray: 1.85,0.8; stroke-dashoffset: 0; stroke: #ffffff; stroke-opacity: 0.3; stroke-width: 0.5"/>
     </g>
     <g id="text_8">
      <!-- 800 -->
      <g style="fill: #262626" transform="translate(677.334421 472.4735) scale(0.08 -0.08)">
       <defs>
        <path id="ArialMT-38" d="M 1131 2484
Q 781 2613 612 2850
Q 444 3088 444 3419
Q 444 3919 803 4259
Q 1163 4600 1759 4600
Q 2359 4600 2725 4251
Q 3091 3903 3091 3403
Q 3091 3084 2923 2848
Q 2756 2613 2416 2484
Q 2838 2347 3058 2040
Q 3278 1734 3278 1309
Q 3278 722 2862 322
Q 2447 -78 1769 -78
Q 1091 -78 675 323
Q 259 725 259 1325
Q 259 1772 486 2073
Q 713 2375 1131 2484
z
M 1019 3438
Q 1019 3113 1228 2906
Q 1438 2700 1772 2700
Q 2097 2700 2305 2904
Q 2513 3109 2513 3406
Q 2513 3716 2298 3927
Q 2084 4138 1766 4138
Q 1444 4138 1231 3931
Q 1019 3725 1019 3438
z
M 838 1322
Q 838 1081 952 856
Q 1066 631 1291 507
Q 1516 384 1775 384
Q 2178 384 2440 643
Q 2703 903 2703 1303
Q 2703 1709 2433 1975
Q 2163 2241 1756 2241
Q 1359 2241 1098 1978
Q 838 1716 838 1322
z
" transform="scale(0.015625)"/>
       </defs>
       <use xlink:href="#ArialMT-38"/>
       <use xlink:href="#ArialMT-30" transform="translate(55.615234 0)"/>
       <use xlink:href="#ArialMT-30" transform="translate(111.230469 0)"/>
      </g>
     </g>
    </g>
    <g id="xtick_9">
     <g id="line2d_9">
      <path d="M 775.204161 457.64725
L 775.204161 52.36325
" clip-path="url(#p4d3b21c529)" style="fill: none; stroke-dasharray: 1.85,0.8; stroke-dashoffset: 0; stroke: #ffffff; stroke-opacity: 0.3; stroke-width: 0.5"/>
     </g>
     <g id="text_9">
      <!-- 900 -->
      <g style="fill: #262626" transform="translate(768.531036 472.4735) scale(0.08 -0.08)">
       <defs>
        <path id="ArialMT-39" d="M 350 1059
L 891 1109
Q 959 728 1153 556
Q 1347 384 1650 384
Q 1909 384 2104 503
Q 2300 622 2425 820
Q 2550 1019 2634 1356
Q 2719 1694 2719 2044
Q 2719 2081 2716 2156
Q 2547 1888 2255 1720
Q 1963 1553 1622 1553
Q 1053 1553 659 1965
Q 266 2378 266 3053
Q 266 3750 677 4175
Q 1088 4600 1706 4600
Q 2153 4600 2523 4359
Q 2894 4119 3086 3673
Q 3278 3228 3278 2384
Q 3278 1506 3087 986
Q 2897 466 2520 194
Q 2144 -78 1638 -78
Q 1100 -78 759 220
Q 419 519 350 1059
z
M 2653 3081
Q 2653 3566 2395 3850
Q 2138 4134 1775 4134
Q 1400 4134 1122 3828
Q 844 3522 844 3034
Q 844 2597 1108 2323
Q 1372 2050 1759 2050
Q 2150 2050 2401 2323
Q 2653 2597 2653 3081
z
" transform="scale(0.015625)"/>
       </defs>
       <use xlink:href="#ArialMT-39"/>
       <use xlink:href="#ArialMT-30" transform="translate(55.615234 0)"/>
       <use xlink:href="#ArialMT-30" transform="translate(111.230469 0)"/>
      </g>
     </g>
    </g>
    <g id="text_10">
     <!-- Input Tokens (prompt length) -->
     <g style="fill: #262626" transform="translate(359.918438 486.799125) scale(0.12 -0.12)">
      <defs>
       <path id="Arial-BoldMT-49" d="M 438 0
L 438 4581
L 1363 4581
L 1363 0
L 438 0
z
" transform="scale(0.015625)"/>
       <path id="Arial-BoldMT-6e" d="M 3478 0
L 2600 0
L 2600 1694
Q 2600 2231 2544 2389
Q 2488 2547 2361 2634
Q 2234 2722 2056 2722
Q 1828 2722 1647 2597
Q 1466 2472 1398 2265
Q 1331 2059 1331 1503
L 1331 0
L 453 0
L 453 3319
L 1269 3319
L 1269 2831
Q 1703 3394 2363 3394
Q 2653 3394 2893 3289
Q 3134 3184 3257 3021
Q 3381 2859 3429 2653
Q 3478 2447 3478 2063
L 3478 0
z
" transform="scale(0.015625)"/>
       <path id="Arial-BoldMT-70" d="M 434 3319
L 1253 3319
L 1253 2831
Q 1413 3081 1684 3237
Q 1956 3394 2288 3394
Q 2866 3394 3269 2941
Q 3672 2488 3672 1678
Q 3672 847 3265 386
Q 2859 -75 2281 -75
Q 2006 -75 1782 34
Q 1559 144 1313 409
L 1313 -1263
L 434 -1263
L 434 3319
z
M 1303 1716
Q 1303 1156 1525 889
Q 1747 622 2066 622
Q 2372 622 2575 867
Q 2778 1113 2778 1672
Q 2778 2194 2568 2447
Q 2359 2700 2050 2700
Q 1728 2700 1515 2451
Q 1303 2203 1303 1716
z
" transform="scale(0.015625)"/>
       <path id="Arial-BoldMT-75" d="M 2644 0
L 2644 497
Q 2463 231 2167 78
Q 1872 -75 1544 -75
Q 1209 -75 943 72
Q 678 219 559 484
Q 441 750 441 1219
L 441 3319
L 1319 3319
L 1319 1794
Q 1319 1094 1367 936
Q 1416 778 1544 686
Q 1672 594 1869 594
Q 2094 594 2272 717
Q 2450 841 2515 1023
Q 2581 1206 2581 1919
L 2581 3319
L 3459 3319
L 3459 0
L 2644 0
z
" transform="scale(0.015625)"/>
       <path id="Arial-BoldMT-74" d="M 1981 3319
L 1981 2619
L 1381 2619
L 1381 1281
Q 1381 875 1398 808
Q 1416 741 1477 697
Q 1538 653 1625 653
Q 1747 653 1978 738
L 2053 56
Q 1747 -75 1359 -75
Q 1122 -75 931 4
Q 741 84 652 211
Q 563 338 528 553
Q 500 706 500 1172
L 500 2619
L 97 2619
L 97 3319
L 500 3319
L 500 3978
L 1381 4491
L 1381 3319
L 1981 3319
z
" transform="scale(0.015625)"/>
       <path id="Arial-BoldMT-20" transform="scale(0.015625)"/>
       <path id="Arial-BoldMT-54" d="M 1497 0
L 1497 3806
L 138 3806
L 138 4581
L 3778 4581
L 3778 3806
L 2422 3806
L 2422 0
L 1497 0
z
" transform="scale(0.015625)"/>
       <path id="Arial-BoldMT-6f" d="M 256 1706
Q 256 2144 472 2553
Q 688 2963 1083 3178
Q 1478 3394 1966 3394
Q 2719 3394 3200 2905
Q 3681 2416 3681 1669
Q 3681 916 3195 420
Q 2709 -75 1972 -75
Q 1516 -75 1102 131
Q 688 338 472 736
Q 256 1134 256 1706
z
M 1156 1659
Q 1156 1166 1390 903
Q 1625 641 1969 641
Q 2313 641 2545 903
Q 2778 1166 2778 1666
Q 2778 2153 2545 2415
Q 2313 2678 1969 2678
Q 1625 2678 1390 2415
Q 1156 2153 1156 1659
z
" transform="scale(0.015625)"/>
       <path id="Arial-BoldMT-6b" d="M 428 0
L 428 4581
L 1306 4581
L 1306 2150
L 2334 3319
L 3416 3319
L 2281 2106
L 3497 0
L 2550 0
L 1716 1491
L 1306 1063
L 1306 0
L 428 0
z
" transform="scale(0.015625)"/>
       <path id="Arial-BoldMT-65" d="M 2381 1056
L 3256 909
Q 3088 428 2723 176
Q 2359 -75 1813 -75
Q 947 -75 531 491
Q 203 944 203 1634
Q 203 2459 634 2926
Q 1066 3394 1725 3394
Q 2466 3394 2894 2905
Q 3322 2416 3303 1406
L 1103 1406
Q 1113 1016 1316 798
Q 1519 581 1822 581
Q 2028 581 2168 693
Q 2309 806 2381 1056
z
M 2431 1944
Q 2422 2325 2234 2523
Q 2047 2722 1778 2722
Q 1491 2722 1303 2513
Q 1116 2303 1119 1944
L 2431 1944
z
" transform="scale(0.015625)"/>
       <path id="Arial-BoldMT-73" d="M 150 947
L 1031 1081
Q 1088 825 1259 692
Q 1431 559 1741 559
Q 2081 559 2253 684
Q 2369 772 2369 919
Q 2369 1019 2306 1084
Q 2241 1147 2013 1200
Q 950 1434 666 1628
Q 272 1897 272 2375
Q 272 2806 612 3100
Q 953 3394 1669 3394
Q 2350 3394 2681 3172
Q 3013 2950 3138 2516
L 2309 2363
Q 2256 2556 2107 2659
Q 1959 2763 1684 2763
Q 1338 2763 1188 2666
Q 1088 2597 1088 2488
Q 1088 2394 1175 2328
Q 1294 2241 1995 2081
Q 2697 1922 2975 1691
Q 3250 1456 3250 1038
Q 3250 581 2869 253
Q 2488 -75 1741 -75
Q 1063 -75 667 200
Q 272 475 150 947
z
" transform="scale(0.015625)"/>
       <path id="Arial-BoldMT-28" d="M 1916 -1347
L 1313 -1347
Q 834 -625 584 153
Q 334 931 334 1659
Q 334 2563 644 3369
Q 913 4069 1325 4659
L 1925 4659
Q 1497 3713 1336 3048
Q 1175 2384 1175 1641
Q 1175 1128 1270 590
Q 1366 53 1531 -431
Q 1641 -750 1916 -1347
z
" transform="scale(0.015625)"/>
       <path id="Arial-BoldMT-72" d="M 1300 0
L 422 0
L 422 3319
L 1238 3319
L 1238 2847
Q 1447 3181 1614 3287
Q 1781 3394 1994 3394
Q 2294 3394 2572 3228
L 2300 2463
Q 2078 2606 1888 2606
Q 1703 2606 1575 2504
Q 1447 2403 1373 2137
Q 1300 1872 1300 1025
L 1300 0
z
" transform="scale(0.015625)"/>
       <path id="Arial-BoldMT-6d" d="M 394 3319
L 1203 3319
L 1203 2866
Q 1638 3394 2238 3394
Q 2556 3394 2790 3262
Q 3025 3131 3175 2866
Q 3394 3131 3647 3262
Q 3900 3394 4188 3394
Q 4553 3394 4806 3245
Q 5059 3097 5184 2809
Q 5275 2597 5275 2122
L 5275 0
L 4397 0
L 4397 1897
Q 4397 2391 4306 2534
Q 4184 2722 3931 2722
Q 3747 2722 3584 2609
Q 3422 2497 3350 2280
Q 3278 2063 3278 1594
L 3278 0
L 2400 0
L 2400 1819
Q 2400 2303 2353 2443
Q 2306 2584 2207 2653
Q 2109 2722 1941 2722
Q 1738 2722 1575 2612
Q 1413 2503 1342 2297
Q 1272 2091 1272 1613
L 1272 0
L 394 0
L 394 3319
z
" transform="scale(0.015625)"/>
       <path id="Arial-BoldMT-6c" d="M 459 0
L 459 4581
L 1338 4581
L 1338 0
L 459 0
z
" transform="scale(0.015625)"/>
       <path id="Arial-BoldMT-67" d="M 378 -219
L 1381 -341
Q 1406 -516 1497 -581
Q 1622 -675 1891 -675
Q 2234 -675 2406 -572
Q 2522 -503 2581 -350
Q 2622 -241 2622 53
L 2622 538
Q 2228 0 1628 0
Q 959 0 569 566
Q 263 1013 263 1678
Q 263 2513 664 2953
Q 1066 3394 1663 3394
Q 2278 3394 2678 2853
L 2678 3319
L 3500 3319
L 3500 341
Q 3500 -247 3403 -537
Q 3306 -828 3131 -993
Q 2956 -1159 2664 -1253
Q 2372 -1347 1925 -1347
Q 1081 -1347 728 -1058
Q 375 -769 375 -325
Q 375 -281 378 -219
z
M 1163 1728
Q 1163 1200 1367 954
Q 1572 709 1872 709
Q 2194 709 2416 961
Q 2638 1213 2638 1706
Q 2638 2222 2425 2472
Q 2213 2722 1888 2722
Q 1572 2722 1367 2476
Q 1163 2231 1163 1728
z
" transform="scale(0.015625)"/>
       <path id="Arial-BoldMT-68" d="M 1334 4581
L 1334 2897
Q 1759 3394 2350 3394
Q 2653 3394 2897 3281
Q 3141 3169 3264 2994
Q 3388 2819 3433 2606
Q 3478 2394 3478 1947
L 3478 0
L 2600 0
L 2600 1753
Q 2600 2275 2550 2415
Q 2500 2556 2373 2639
Q 2247 2722 2056 2722
Q 1838 2722 1666 2615
Q 1494 2509 1414 2295
Q 1334 2081 1334 1663
L 1334 0
L 456 0
L 456 4581
L 1334 4581
z
" transform="scale(0.015625)"/>
       <path id="Arial-BoldMT-29" d="M 216 -1347
Q 475 -791 581 -494
Q 688 -197 778 190
Q 869 578 912 926
Q 956 1275 956 1641
Q 956 2384 797 3048
Q 638 3713 209 4659
L 806 4659
Q 1278 3988 1539 3234
Q 1800 2481 1800 1706
Q 1800 1053 1594 306
Q 1359 -531 822 -1347
L 216 -1347
z
" transform="scale(0.015625)"/>
      </defs>
      <use xlink:href="#Arial-BoldMT-49"/>
      <use xlink:href="#Arial-BoldMT-6e" transform="translate(27.783203 0)"/>
      <use xlink:href="#Arial-BoldMT-70" transform="translate(88.867188 0)"/>
      <use xlink:href="#Arial-BoldMT-75" transform="translate(149.951172 0)"/>
      <use xlink:href="#Arial-BoldMT-74" transform="translate(211.035156 0)"/>
      <use xlink:href="#Arial-BoldMT-20" transform="translate(244.335938 0)"/>
      <use xlink:href="#Arial-BoldMT-54" transform="translate(272.119141 0)"/>
      <use xlink:href="#Arial-BoldMT-6f" transform="translate(325.828125 0)"/>
      <use xlink:href="#Arial-BoldMT-6b" transform="translate(386.912109 0)"/>
      <use xlink:href="#Arial-BoldMT-65" transform="translate(442.527344 0)"/>
      <use xlink:href="#Arial-BoldMT-6e" transform="translate(498.142578 0)"/>
      <use xlink:href="#Arial-BoldMT-73" transform="translate(559.226562 0)"/>
      <use xlink:href="#Arial-BoldMT-20" transform="translate(614.841797 0)"/>
      <use xlink:href="#Arial-BoldMT-28" transform="translate(642.625 0)"/>
      <use xlink:href="#Arial-BoldMT-70" transform="translate(675.925781 0)"/>
      <use xlink:href="#Arial-BoldMT-72" transform="translate(737.009766 0)"/>
      <use xlink:href="#Arial-BoldMT-6f" transform="translate(775.925781 0)"/>
      <use xlink:href="#Arial-BoldMT-6d" transform="translate(837.009766 0)"/>
      <use xlink:href="#Arial-BoldMT-70" transform="translate(925.925781 0)"/>
      <use xlink:href="#Arial-BoldMT-74" transform="translate(987.009766 0)"/>
      <use xlink:href="#Arial-BoldMT-20" transform="translate(1020.310547 0)"/>
      <use xlink:href="#Arial-BoldMT-6c" transform="translate(1048.09375 0)"/>
      <use xlink:href="#Arial-BoldMT-65" transform="translate(1075.876953 0)"/>
      <use xlink:href="#Arial-BoldMT-6e" transform="translate(1131.492188 0)"/>
      <use xlink:href="#Arial-BoldMT-67" transform="translate(1192.576172 0)"/>
      <use xlink:href="#Arial-BoldMT-74" transform="translate(1253.660156 0)"/>
      <use xlink:href="#Arial-BoldMT-68" transform="translate(1286.960938 0)"/>
      <use xlink:href="#Arial-BoldMT-29" transform="translate(1348.044922 0)"/>
     </g>
    </g>
   </g>
   <g id="matplotlib.axis_2">
    <g id="ytick_1">
     <g id="line2d_10">
      <path d="M 36.01 457.64725
L 849.575 457.64725
" clip-path="url(#p4d3b21c529)" style="fill: none; stroke-dasharray: 1.85,0.8; stroke-dashoffset: 0; stroke: #ffffff; stroke-opacity: 0.3; stroke-width: 0.5"/>
     </g>
     <g id="text_11">
      <!-- 0 -->
      <g style="fill: #262626" transform="translate(22.46125 460.510375) scale(0.08 -0.08)">
       <use xlink:href="#ArialMT-30"/>
      </g>
     </g>
    </g>
    <g id="ytick_2">
     <g id="line2d_11">
      <path d="M 36.01 402.567783
L 849.575 402.567783
" clip-path="url(#p4d3b21c529)" style="fill: none; stroke-dasharray: 1.85,0.8; stroke-dashoffset: 0; stroke: #ffffff; stroke-opacity: 0.3; stroke-width: 0.5"/>
     </g>
     <g id="text_12">
      <!-- 1 -->
      <g style="fill: #262626" transform="translate(22.46125 405.430908) scale(0.08 -0.08)">
       <use xlink:href="#ArialMT-31"/>
      </g>
     </g>
    </g>
    <g id="ytick_3">
     <g id="line2d_12">
      <path d="M 36.01 347.488316
L 849.575 347.488316
" clip-path="url(#p4d3b21c529)" style="fill: none; stroke-dasharray: 1.85,0.8; stroke-dashoffset: 0; stroke: #ffffff; stroke-opacity: 0.3; stroke-width: 0.5"/>
     </g>
     <g id="text_13">
      <!-- 2 -->
      <g style="fill: #262626" transform="translate(22.46125 350.351441) scale(0.08 -0.08)">
       <use xlink:href="#ArialMT-32"/>
      </g>
     </g>
    </g>
    <g id="ytick_4">
     <g id="line2d_13">
      <path d="M 36.01 292.408849
L 849.575 292.408849
" clip-path="url(#p4d3b21c529)" style="fill: none; stroke-dasharray: 1.85,0.8; stroke-dashoffset: 0; stroke: #ffffff; stroke-opacity: 0.3; stroke-width: 0.5"/>
     </g>
     <g id="text_14">
      <!-- 3 -->
      <g style="fill: #262626" transform="translate(22.46125 295.271974) scale(0.08 -0.08)">
       <use xlink:href="#ArialMT-33"/>
      </g>
     </g>
    </g>
    <g id="ytick_5">
     <g id="line2d_14">
      <path d="M 36.01 237.329382
L 849.575 237.329382
" clip-path="url(#p4d3b21c529)" style="fill: none; stroke-dasharray: 1.85,0.8; stroke-dashoffset: 0; stroke: #ffffff; stroke-opacity: 0.3; stroke-width: 0.5"/>
     </g>
     <g id="text_15">
      <!-- 4 -->
      <g style="fill: #262626" transform="translate(22.46125 240.192507) scale(0.08 -0.08)">
       <use xlink:href="#ArialMT-34"/>
      </g>
     </g>
    </g>
    <g id="ytick_6">
     <g id="line2d_15">
      <path d="M 36.01 182.249915
L 849.575 182.249915
" clip-path="url(#p4d3b21c529)" style="fill: none; stroke-dasharray: 1.85,0.8; stroke-dashoffset: 0; stroke: #ffffff; stroke-opacity: 0.3; stroke-width: 0.5"/>
     </g>
     <g id="text_16">
      <!-- 5 -->
      <g style="fill: #262626" transform="translate(22.46125 185.11304) scale(0.08 -0.08)">
       <use xlink:href="#ArialMT-35"/>
      </g>
     </g>
    </g>
    <g id="ytick_7">
     <g id="line2d_16">
      <path d="M 36.01 127.170447
L 849.575 127.170447
" clip-path="url(#p4d3b21c529)" style="fill: none; stroke-dasharray: 1.85,0.8; stroke-dashoffset: 0; stroke: #ffffff; stroke-opacity: 0.3; stroke-width: 0.5"/>
     </g>
     <g id="text_17">
      <!-- 6 -->
      <g style="fill: #262626" transform="translate(22.46125 130.033572) scale(0.08 -0.08)">
       <use xlink:href="#ArialMT-36"/>
      </g>
     </g>
    </g>
    <g id="ytick_8">
     <g id="line2d_17">
      <path d="M 36.01 72.09098
L 849.575 72.09098
" clip-path="url(#p4d3b21c529)" style="fill: none; stroke-dasharray: 1.85,0.8; stroke-dashoffset: 0; stroke: #ffffff; stroke-opacity: 0.3; stroke-width: 0.5"/>
     </g>
     <g id="text_18">
      <!-- 7 -->
      <g style="fill: #262626" transform="translate(22.46125 74.954105) scale(0.08 -0.08)">
       <use xlink:href="#ArialMT-37"/>
      </g>
     </g>
    </g>
    <g id="text_19">
     <!-- Time To First Token (seconds) -->
     <g style="fill: #262626" transform="translate(15.935625 341.019937) rotate(-90) scale(0.12 -0.12)">
      <defs>
       <path id="Arial-BoldMT-69" d="M 459 3769
L 459 4581
L 1338 4581
L 1338 3769
L 459 3769
z
M 459 0
L 459 3319
L 1338 3319
L 1338 0
L 459 0
z
" transform="scale(0.015625)"/>
       <path id="Arial-BoldMT-46" d="M 472 0
L 472 4581
L 3613 4581
L 3613 3806
L 1397 3806
L 1397 2722
L 3309 2722
L 3309 1947
L 1397 1947
L 1397 0
L 472 0
z
" transform="scale(0.015625)"/>
       <path id="Arial-BoldMT-63" d="M 3353 2338
L 2488 2181
Q 2444 2441 2289 2572
Q 2134 2703 1888 2703
Q 1559 2703 1364 2476
Q 1169 2250 1169 1719
Q 1169 1128 1367 884
Q 1566 641 1900 641
Q 2150 641 2309 783
Q 2469 925 2534 1272
L 3397 1125
Q 3263 531 2881 228
Q 2500 -75 1859 -75
Q 1131 -75 698 384
Q 266 844 266 1656
Q 266 2478 700 2936
Q 1134 3394 1875 3394
Q 2481 3394 2839 3133
Q 3197 2872 3353 2338
z
" transform="scale(0.015625)"/>
       <path id="Arial-BoldMT-64" d="M 3503 0
L 2688 0
L 2688 488
Q 2484 203 2207 64
Q 1931 -75 1650 -75
Q 1078 -75 670 386
Q 263 847 263 1672
Q 263 2516 659 2955
Q 1056 3394 1663 3394
Q 2219 3394 2625 2931
L 2625 4581
L 3503 4581
L 3503 0
z
M 1159 1731
Q 1159 1200 1306 963
Q 1519 619 1900 619
Q 2203 619 2415 876
Q 2628 1134 2628 1647
Q 2628 2219 2422 2470
Q 2216 2722 1894 2722
Q 1581 2722 1370 2473
Q 1159 2225 1159 1731
z
" transform="scale(0.015625)"/>
      </defs>
      <use xlink:href="#Arial-BoldMT-54"/>
      <use xlink:href="#Arial-BoldMT-69" transform="translate(59.333984 0)"/>
      <use xlink:href="#Arial-BoldMT-6d" transform="translate(87.117188 0)"/>
      <use xlink:href="#Arial-BoldMT-65" transform="translate(176.033203 0)"/>
      <use xlink:href="#Arial-BoldMT-20" transform="translate(231.648438 0)"/>
      <use xlink:href="#Arial-BoldMT-54" transform="translate(259.431641 0)"/>
      <use xlink:href="#Arial-BoldMT-6f" transform="translate(313.140625 0)"/>
      <use xlink:href="#Arial-BoldMT-20" transform="translate(374.224609 0)"/>
      <use xlink:href="#Arial-BoldMT-46" transform="translate(402.007812 0)"/>
      <use xlink:href="#Arial-BoldMT-69" transform="translate(463.091797 0)"/>
      <use xlink:href="#Arial-BoldMT-72" transform="translate(490.875 0)"/>
      <use xlink:href="#Arial-BoldMT-73" transform="translate(529.791016 0)"/>
      <use xlink:href="#Arial-BoldMT-74" transform="translate(585.40625 0)"/>
      <use xlink:href="#Arial-BoldMT-20" transform="translate(618.707031 0)"/>
      <use xlink:href="#Arial-BoldMT-54" transform="translate(646.490234 0)"/>
      <use xlink:href="#Arial-BoldMT-6f" transform="translate(700.199219 0)"/>
      <use xlink:href="#Arial-BoldMT-6b" transform="translate(761.283203 0)"/>
      <use xlink:href="#Arial-BoldMT-65" transform="translate(816.898438 0)"/>
      <use xlink:href="#Arial-BoldMT-6e" transform="translate(872.513672 0)"/>
      <use xlink:href="#Arial-BoldMT-20" transform="translate(933.597656 0)"/>
      <use xlink:href="#Arial-BoldMT-28" transform="translate(961.380859 0)"/>
      <use xlink:href="#Arial-BoldMT-73" transform="translate(994.681641 0)"/>
      <use xlink:href="#Arial-BoldMT-65" transform="translate(1050.296875 0)"/>
      <use xlink:href="#Arial-BoldMT-63" transform="translate(1105.912109 0)"/>
      <use xlink:href="#Arial-BoldMT-6f" transform="translate(1161.527344 0)"/>
      <use xlink:href="#Arial-BoldMT-6e" transform="translate(1222.611328 0)"/>
      <use xlink:href="#Arial-BoldMT-64" transform="translate(1283.695312 0)"/>
      <use xlink:href="#Arial-BoldMT-73" transform="translate(1344.779297 0)"/>
      <use xlink:href="#Arial-BoldMT-29" transform="translate(1400.394531 0)"/>
     </g>
    </g>
   </g>
   <g id="line2d_18">
    <path d="M 88.493652 326.002913
L 95.807805 323.406678
L 103.121957 320.810443
L 110.43611 318.214208
L 117.750263 315.617973
L 125.064415 313.021738
L 132.378568 310.425504
L 139.692721 307.829269
L 147.006874 305.233034
L 154.321026 302.636799
L 161.635179 300.040564
L 168.949332 297.444329
L 176.263485 294.848094
L 183.577637 292.251859
L 190.89179 289.655624
L 198.205943 287.05939
L 205.520096 284.463155
L 212.834248 281.86692
L 220.148401 279.270685
L 227.462554 276.67445
L 234.776707 274.078215
L 242.090859 271.48198
L 249.405012 268.885745
L 256.719165 266.28951
L 264.033317 263.693276
L 271.34747 261.097041
L 278.661623 258.500806
L 285.975776 255.904571
L 293.289928 253.308336
L 300.604081 250.712101
L 307.918234 248.115866
L 315.232387 245.519631
L 322.546539 242.923397
L 329.860692 240.327162
L 337.174845 237.730927
L 344.488998 235.134692
L 351.80315 232.538457
L 359.117303 229.942222
L 366.431456 227.345987
L 373.745609 224.749752
L 381.059761 222.153517
L 388.373914 219.557283
L 395.688067 216.961048
L 403.002219 214.364813
L 410.316372 211.768578
L 417.630525 209.172343
L 424.944678 206.576108
L 432.25883 203.979873
L 439.572983 201.383638
L 446.887136 198.787403
L 454.201289 196.191169
L 461.515441 193.594934
L 468.829594 190.998699
L 476.143747 188.402464
L 483.4579 185.806229
L 490.772052 183.209994
L 498.086205 180.613759
L 505.400358 178.017524
L 512.714511 175.42129
L 520.028663 172.825055
L 527.342816 170.22882
L 534.656969 167.632585
L 541.971121 165.03635
L 549.285274 162.440115
L 556.599427 159.84388
L 563.91358 157.247645
L 571.227732 154.65141
L 578.541885 152.055176
L 585.856038 149.458941
L 593.170191 146.862706
L 600.484343 144.266471
L 607.798496 141.670236
L 615.112649 139.074001
L 622.426802 136.477766
L 629.740954 133.881531
L 637.055107 131.285296
L 644.36926 128.689062
L 651.683413 126.092827
L 658.997565 123.496592
L 666.311718 120.900357
L 673.625871 118.304122
L 680.940023 115.707887
L 688.254176 113.111652
L 695.568329 110.515417
L 702.882482 107.919183
L 710.196634 105.322948
L 717.510787 102.726713
L 724.82494 100.130478
L 732.139093 97.534243
L 739.453245 94.938008
L 746.767398 92.341773
L 754.081551 89.745538
L 761.395704 87.149303
L 768.709856 84.553069
L 776.024009 81.956834
L 783.338162 79.360599
L 790.652315 76.764364
L 797.966467 74.168129
L 805.28062 71.571894
L 812.594773 68.975659
" clip-path="url(#p4d3b21c529)" style="fill: none; stroke-dasharray: 5.55,2.4; stroke-dashoffset: 0; stroke: #1f77b4; stroke-opacity: 0.3; stroke-width: 1.5"/>
   </g>
   <g id="line2d_19">
    <path d="M 72.990227 395.675741
L 77.9738 394.713705
L 82.957372 393.75167
L 87.940945 392.789634
L 92.924518 391.827599
L 97.90809 390.865563
L 102.891663 389.903527
L 107.875235 388.941492
L 112.858808 387.979456
L 117.842381 387.01742
L 122.825953 386.055385
L 127.809526 385.093349
L 132.793098 384.131313
L 137.776671 383.169278
L 142.760243 382.207242
L 147.743816 381.245206
L 152.727389 380.283171
L 157.710961 379.321135
L 162.694534 378.359099
L 167.678106 377.397064
L 172.661679 376.435028
L 177.645252 375.472992
L 182.628824 374.510957
L 187.612397 373.548921
L 192.595969 372.586885
L 197.579542 371.62485
L 202.563114 370.662814
L 207.546687 369.700778
L 212.53026 368.738743
L 217.513832 367.776707
L 222.497405 366.814671
L 227.480977 365.852636
L 232.46455 364.8906
L 237.448123 363.928564
L 242.431695 362.966529
L 247.415268 362.004493
L 252.39884 361.042457
L 257.382413 360.080422
L 262.365985 359.118386
L 267.349558 358.15635
L 272.333131 357.194315
L 277.316703 356.232279
L 282.300276 355.270243
L 287.283848 354.308208
L 292.267421 353.346172
L 297.250993 352.384136
L 302.234566 351.422101
L 307.218139 350.460065
L 312.201711 349.498029
L 317.185284 348.535994
L 322.168856 347.573958
L 327.152429 346.611922
L 332.136002 345.649887
L 337.119574 344.687851
L 342.103147 343.725815
L 347.086719 342.76378
L 352.070292 341.801744
L 357.053864 340.839709
L 362.037437 339.877673
L 367.02101 338.915637
L 372.004582 337.953602
L 376.988155 336.991566
L 381.971727 336.02953
L 386.9553 335.067495
L 391.938873 334.105459
L 396.922445 333.143423
L 401.906018 332.181388
L 406.88959 331.219352
L 411.873163 330.257316
L 416.856735 329.295281
L 421.840308 328.333245
L 426.823881 327.371209
L 431.807453 326.409174
L 436.791026 325.447138
L 441.774598 324.485102
L 446.758171 323.523067
L 451.741744 322.561031
L 456.725316 321.598995
L 461.708889 320.63696
L 466.692461 319.674924
L 471.676034 318.712888
L 476.659606 317.750853
L 481.643179 316.788817
L 486.626752 315.826781
L 491.610324 314.864746
L 496.593897 313.90271
L 501.577469 312.940674
L 506.561042 311.978639
L 511.544615 311.016603
L 516.528187 310.054567
L 521.51176 309.092532
L 526.495332 308.130496
L 531.478905 307.16846
L 536.462477 306.206425
L 541.44605 305.244389
L 546.429623 304.282353
L 551.413195 303.320318
L 556.396768 302.358282
L 561.38034 301.396246
L 566.363913 300.434211
" clip-path="url(#p4d3b21c529)" style="fill: none; stroke-dasharray: 5.55,2.4; stroke-dashoffset: 0; stroke: #aec7e8; stroke-opacity: 0.3; stroke-width: 1.5"/>
   </g>
   <g id="line2d_20">
    <path d="M 85.757753 386.332873
L 92.998212 384.287257
L 100.23867 382.241641
L 107.479129 380.196025
L 114.719587 378.150409
L 121.960046 376.104793
L 129.200504 374.059177
L 136.440963 372.013561
L 143.681421 369.967945
L 150.92188 367.922329
L 158.162338 365.876713
L 165.402797 363.831097
L 172.643255 361.785481
L 179.883714 359.739865
L 187.124172 357.694249
L 194.364631 355.648633
L 201.605089 353.603017
L 208.845548 351.557401
L 216.086006 349.511785
L 223.326465 347.466169
L 230.566923 345.420553
L 237.807382 343.374937
L 245.04784 341.329321
L 252.288299 339.283705
L 259.528757 337.238089
L 266.769216 335.192473
L 274.009674 333.146857
L 281.250133 331.101241
L 288.490591 329.055625
L 295.73105 327.010008
L 302.971508 324.964392
L 310.211967 322.918776
L 317.452425 320.87316
L 324.692884 318.827544
L 331.933342 316.781928
L 339.173801 314.736312
L 346.414259 312.690696
L 353.654718 310.64508
L 360.895176 308.599464
L 368.135635 306.553848
L 375.376093 304.508232
L 382.616552 302.462616
L 389.85701 300.417
L 397.097469 298.371384
L 404.337927 296.325768
L 411.578386 294.280152
L 418.818844 292.234536
L 426.059303 290.18892
L 433.299761 288.143304
L 440.54022 286.097688
L 447.780678 284.052072
L 455.021137 282.006456
L 462.261595 279.96084
L 469.502054 277.915224
L 476.742512 275.869608
L 483.982971 273.823992
L 491.223429 271.778376
L 498.463888 269.73276
L 505.704346 267.687144
L 512.944805 265.641528
L 520.185263 263.595912
L 527.425722 261.550296
L 534.666181 259.50468
L 541.906639 257.459064
L 549.147098 255.413448
L 556.387556 253.367832
L 563.628015 251.322216
L 570.868473 249.2766
L 578.108932 247.230984
L 585.34939 245.185368
L 592.589849 243.139752
L 599.830307 241.094136
L 607.070766 239.04852
L 614.311224 237.002904
L 621.551683 234.957288
L 628.792141 232.911672
L 636.0326 230.866056
L 643.273058 228.82044
L 650.513517 226.774824
L 657.753975 224.729208
L 664.994434 222.683592
L 672.234892 220.637976
L 679.475351 218.59236
L 686.715809 216.546744
L 693.956268 214.501128
L 701.196726 212.455512
L 708.437185 210.409896
L 715.677643 208.36428
L 722.918102 206.318664
L 730.15856 204.273048
L 737.399019 202.227432
L 744.639477 200.181816
L 751.879936 198.1362
L 759.120394 196.090584
L 766.360853 194.044968
L 773.601311 191.999352
L 780.84177 189.953736
L 788.082228 187.90812
L 795.322687 185.862504
L 802.563145 183.816888
" clip-path="url(#p4d3b21c529)" style="fill: none; stroke-dasharray: 5.55,2.4; stroke-dashoffset: 0; stroke: #ff7f0e; stroke-opacity: 0.3; stroke-width: 1.5"/>
   </g>
   <g id="line2d_21">
    <path d="M 147.771451 356.423856
L 152.414188 355.192024
L 157.056925 353.960192
L 161.699662 352.72836
L 166.342398 351.496528
L 170.985135 350.264696
L 175.627872 349.032864
L 180.270609 347.801032
L 184.913345 346.5692
L 189.556082 345.337368
L 194.198819 344.105536
L 198.841556 342.873704
L 203.484292 341.641872
L 208.127029 340.41004
L 212.769766 339.178208
L 217.412503 337.946376
L 222.055239 336.714544
L 226.697976 335.482712
L 231.340713 334.25088
L 235.98345 333.019048
L 240.626186 331.787216
L 245.268923 330.555384
L 249.91166 329.323552
L 254.554397 328.09172
L 259.197133 326.859888
L 263.83987 325.628056
L 268.482607 324.396224
L 273.125344 323.164392
L 277.76808 321.93256
L 282.410817 320.700728
L 287.053554 319.468896
L 291.696291 318.237064
L 296.339027 317.005232
L 300.981764 315.7734
L 305.624501 314.541568
L 310.267238 313.309736
L 314.909974 312.077904
L 319.552711 310.846072
L 324.195448 309.61424
L 328.838185 308.382408
L 333.480921 307.150576
L 338.123658 305.918744
L 342.766395 304.686912
L 347.409132 303.45508
L 352.051868 302.223248
L 356.694605 300.991416
L 361.337342 299.759584
L 365.980079 298.527752
L 370.622815 297.29592
L 375.265552 296.064088
L 379.908289 294.832256
L 384.551026 293.600424
L 389.193762 292.368592
L 393.836499 291.13676
L 398.479236 289.904928
L 403.121973 288.673096
L 407.764709 287.441264
L 412.407446 286.209432
L 417.050183 284.9776
L 421.69292 283.745768
L 426.335656 282.513936
L 430.978393 281.282104
L 435.62113 280.050272
L 440.263867 278.81844
L 444.906603 277.586608
L 449.54934 276.354776
L 454.192077 275.122944
L 458.834814 273.891112
L 463.47755 272.65928
L 468.120287 271.427448
L 472.763024 270.195616
L 477.405761 268.963784
L 482.048497 267.731952
L 486.691234 266.50012
L 491.333971 265.268288
L 495.976708 264.036456
L 500.619444 262.804624
L 505.262181 261.572792
L 509.904918 260.34096
L 514.547655 259.109128
L 519.190391 257.877296
L 523.833128 256.645464
L 528.475865 255.413632
L 533.118602 254.1818
L 537.761338 252.949968
L 542.404075 251.718136
L 547.046812 250.486304
L 551.689549 249.254472
L 556.332285 248.02264
L 560.975022 246.790808
L 565.617759 245.558976
L 570.260496 244.327144
L 574.903232 243.095312
L 579.545969 241.86348
L 584.188706 240.631648
L 588.831443 239.399816
L 593.474179 238.167984
L 598.116916 236.936152
L 602.759653 235.70432
L 607.40239 234.472488
" clip-path="url(#p4d3b21c529)" style="fill: none; stroke-dasharray: 5.55,2.4; stroke-dashoffset: 0; stroke: #ffbb78; stroke-opacity: 0.3; stroke-width: 1.5"/>
   </g>
   <g id="patch_3">
    <path d="M 36.01 457.64725
L 36.01 52.36325
" style="fill: none; stroke: #ffffff; stroke-width: 0.8; stroke-linejoin: miter; stroke-linecap: square"/>
   </g>
   <g id="patch_4">
    <path d="M 849.575 457.64725
L 849.575 52.36325
" style="fill: none; stroke: #ffffff; stroke-width: 0.8; stroke-linejoin: miter; stroke-linecap: square"/>
   </g>
   <g id="patch_5">
    <path d="M 36.01 457.64725
L 849.575 457.64725
" style="fill: none; stroke: #ffffff; stroke-width: 0.8; stroke-linejoin: miter; stroke-linecap: square"/>
   </g>
   <g id="patch_6">
    <path d="M 36.01 52.36325
L 849.575 52.36325
" style="fill: none; stroke: #ffffff; stroke-width: 0.8; stroke-linejoin: miter; stroke-linecap: square"/>
   </g>
   <g id="PathCollection_1">
    <defs>
     <path id="m2551a4ac85" d="M 0 5
C 1.326016 5 2.597899 4.473168 3.535534 3.535534
C 4.473168 2.597899 5 1.326016 5 0
C 5 -1.326016 4.473168 -2.597899 3.535534 -3.535534
C 2.597899 -4.473168 1.326016 -5 0 -5
C -1.326016 -5 -2.597899 -4.473168 -3.535534 -3.535534
C -4.473168 -2.597899 -5 -1.326016 -5 0
C -5 1.326016 -4.473168 2.597899 -3.535534 3.535534
C -2.597899 4.473168 -1.326016 5 0 5
z
" style="stroke: #ffffff; stroke-opacity: 0.6; stroke-width: 0.5"/>
    </defs>
    <g clip-path="url(#p4d3b21c529)">
     <use xlink:href="#m2551a4ac85" x="170.570605" y="306.096096" style="fill: #1f77b4; fill-opacity: 0.6; stroke: #ffffff; stroke-opacity: 0.6; stroke-width: 0.5"/>
     <use xlink:href="#m2551a4ac85" x="430.480957" y="191.629948" style="fill: #1f77b4; fill-opacity: 0.6; stroke: #ffffff; stroke-opacity: 0.6; stroke-width: 0.5"/>
     <use xlink:href="#m2551a4ac85" x="443.248483" y="183.015519" style="fill: #1f77b4; fill-opacity: 0.6; stroke: #ffffff; stroke-opacity: 0.6; stroke-width: 0.5"/>
     <use xlink:href="#m2551a4ac85" x="812.594773" y="84.219479" style="fill: #1f77b4; fill-opacity: 0.6; stroke: #ffffff; stroke-opacity: 0.6; stroke-width: 0.5"/>
     <use xlink:href="#m2551a4ac85" x="414.977533" y="206.121356" style="fill: #1f77b4; fill-opacity: 0.6; stroke: #ffffff; stroke-opacity: 0.6; stroke-width: 0.5"/>
     <use xlink:href="#m2551a4ac85" x="169.658639" y="302.780312" style="fill: #1f77b4; fill-opacity: 0.6; stroke: #ffffff; stroke-opacity: 0.6; stroke-width: 0.5"/>
     <use xlink:href="#m2551a4ac85" x="661.208392" y="121.921374" style="fill: #1f77b4; fill-opacity: 0.6; stroke: #ffffff; stroke-opacity: 0.6; stroke-width: 0.5"/>
     <use xlink:href="#m2551a4ac85" x="88.493652" y="330.771698" style="fill: #1f77b4; fill-opacity: 0.6; stroke: #ffffff; stroke-opacity: 0.6; stroke-width: 0.5"/>
    </g>
   </g>
   <g id="PathCollection_2">
    <defs>
     <path id="m9110e1f977" d="M -5 5
L 5 5
L 5 -5
L -5 -5
z
" style="stroke: #ffffff; stroke-opacity: 0.6; stroke-width: 0.5"/>
    </defs>
    <g clip-path="url(#p4d3b21c529)">
     <use xlink:href="#m9110e1f977" x="455.104043" y="327.334739" style="fill: #aec7e8; fill-opacity: 0.6; stroke: #ffffff; stroke-opacity: 0.6; stroke-width: 0.5"/>
     <use xlink:href="#m9110e1f977" x="285.47834" y="347.741681" style="fill: #aec7e8; fill-opacity: 0.6; stroke: #ffffff; stroke-opacity: 0.6; stroke-width: 0.5"/>
     <use xlink:href="#m9110e1f977" x="400.386074" y="325.665831" style="fill: #aec7e8; fill-opacity: 0.6; stroke: #ffffff; stroke-opacity: 0.6; stroke-width: 0.5"/>
     <use xlink:href="#m9110e1f977" x="399.474108" y="338.686617" style="fill: #aec7e8; fill-opacity: 0.6; stroke: #ffffff; stroke-opacity: 0.6; stroke-width: 0.5"/>
     <use xlink:href="#m9110e1f977" x="451.456178" y="320.675631" style="fill: #aec7e8; fill-opacity: 0.6; stroke: #ffffff; stroke-opacity: 0.6; stroke-width: 0.5"/>
     <use xlink:href="#m9110e1f977" x="348.404004" y="346.794315" style="fill: #aec7e8; fill-opacity: 0.6; stroke: #ffffff; stroke-opacity: 0.6; stroke-width: 0.5"/>
     <use xlink:href="#m9110e1f977" x="180.602233" y="370.709819" style="fill: #aec7e8; fill-opacity: 0.6; stroke: #ffffff; stroke-opacity: 0.6; stroke-width: 0.5"/>
     <use xlink:href="#m9110e1f977" x="465.135671" y="318.081388" style="fill: #aec7e8; fill-opacity: 0.6; stroke: #ffffff; stroke-opacity: 0.6; stroke-width: 0.5"/>
     <use xlink:href="#m9110e1f977" x="435.040788" y="325.307814" style="fill: #aec7e8; fill-opacity: 0.6; stroke: #ffffff; stroke-opacity: 0.6; stroke-width: 0.5"/>
     <use xlink:href="#m9110e1f977" x="566.363913" y="305.429635" style="fill: #aec7e8; fill-opacity: 0.6; stroke: #ffffff; stroke-opacity: 0.6; stroke-width: 0.5"/>
     <use xlink:href="#m9110e1f977" x="538.092962" y="301.832946" style="fill: #aec7e8; fill-opacity: 0.6; stroke: #ffffff; stroke-opacity: 0.6; stroke-width: 0.5"/>
     <use xlink:href="#m9110e1f977" x="72.990227" y="401.223844" style="fill: #aec7e8; fill-opacity: 0.6; stroke: #ffffff; stroke-opacity: 0.6; stroke-width: 0.5"/>
    </g>
   </g>
   <g id="PathCollection_3">
    <defs>
     <path id="m351da84cf9" d="M 0 -5
L -5 5
L 5 5
z
" style="stroke: #ffffff; stroke-opacity: 0.6; stroke-width: 0.5"/>
    </defs>
    <g clip-path="url(#p4d3b21c529)">
     <use xlink:href="#m351da84cf9" x="766.996465" y="198.547929" style="fill: #ff7f0e; fill-opacity: 0.6; stroke: #ffffff; stroke-opacity: 0.6; stroke-width: 0.5"/>
     <use xlink:href="#m351da84cf9" x="360.259564" y="319.987138" style="fill: #ff7f0e; fill-opacity: 0.6; stroke: #ffffff; stroke-opacity: 0.6; stroke-width: 0.5"/>
     <use xlink:href="#m351da84cf9" x="462.399772" y="295.157314" style="fill: #ff7f0e; fill-opacity: 0.6; stroke: #ffffff; stroke-opacity: 0.6; stroke-width: 0.5"/>
     <use xlink:href="#m351da84cf9" x="293.686035" y="310.320691" style="fill: #ff7f0e; fill-opacity: 0.6; stroke: #ffffff; stroke-opacity: 0.6; stroke-width: 0.5"/>
     <use xlink:href="#m351da84cf9" x="507.99808" y="289.329907" style="fill: #ff7f0e; fill-opacity: 0.6; stroke: #ffffff; stroke-opacity: 0.6; stroke-width: 0.5"/>
     <use xlink:href="#m351da84cf9" x="85.757753" y="379.704296" style="fill: #ff7f0e; fill-opacity: 0.6; stroke: #ffffff; stroke-opacity: 0.6; stroke-width: 0.5"/>
     <use xlink:href="#m351da84cf9" x="685.831478" y="212.367367" style="fill: #ff7f0e; fill-opacity: 0.6; stroke: #ffffff; stroke-opacity: 0.6; stroke-width: 0.5"/>
     <use xlink:href="#m351da84cf9" x="802.563145" y="167.235252" style="fill: #ff7f0e; fill-opacity: 0.6; stroke: #ffffff; stroke-opacity: 0.6; stroke-width: 0.5"/>
     <use xlink:href="#m351da84cf9" x="471.519434" y="268.834837" style="fill: #ff7f0e; fill-opacity: 0.6; stroke: #ffffff; stroke-opacity: 0.6; stroke-width: 0.5"/>
    </g>
   </g>
   <g id="PathCollection_4">
    <defs>
     <path id="m358e8a97c1" d="M -0 5
L 5 -5
L -5 -5
z
" style="stroke: #ffffff; stroke-opacity: 0.6; stroke-width: 0.5"/>
    </defs>
    <g clip-path="url(#p4d3b21c529)">
     <use xlink:href="#m358e8a97c1" x="172.394537" y="345.417328" style="fill: #ffbb78; fill-opacity: 0.6; stroke: #ffffff; stroke-opacity: 0.6; stroke-width: 0.5"/>
     <use xlink:href="#m358e8a97c1" x="593.722897" y="253.566809" style="fill: #ffbb78; fill-opacity: 0.6; stroke: #ffffff; stroke-opacity: 0.6; stroke-width: 0.5"/>
     <use xlink:href="#m358e8a97c1" x="607.40239" y="233.633549" style="fill: #ffbb78; fill-opacity: 0.6; stroke: #ffffff; stroke-opacity: 0.6; stroke-width: 0.5"/>
     <use xlink:href="#m358e8a97c1" x="475.167298" y="270.14022" style="fill: #ffbb78; fill-opacity: 0.6; stroke: #ffffff; stroke-opacity: 0.6; stroke-width: 0.5"/>
     <use xlink:href="#m358e8a97c1" x="294.598001" y="312.958998" style="fill: #ffbb78; fill-opacity: 0.6; stroke: #ffffff; stroke-opacity: 0.6; stroke-width: 0.5"/>
     <use xlink:href="#m358e8a97c1" x="515.293809" y="251.997044" style="fill: #ffbb78; fill-opacity: 0.6; stroke: #ffffff; stroke-opacity: 0.6; stroke-width: 0.5"/>
     <use xlink:href="#m358e8a97c1" x="470.607467" y="264.935211" style="fill: #ffbb78; fill-opacity: 0.6; stroke: #ffffff; stroke-opacity: 0.6; stroke-width: 0.5"/>
     <use xlink:href="#m358e8a97c1" x="594.634864" y="231.309196" style="fill: #ffbb78; fill-opacity: 0.6; stroke: #ffffff; stroke-opacity: 0.6; stroke-width: 0.5"/>
     <use xlink:href="#m358e8a97c1" x="147.771451" y="361.9632" style="fill: #ffbb78; fill-opacity: 0.6; stroke: #ffffff; stroke-opacity: 0.6; stroke-width: 0.5"/>
     <use xlink:href="#m358e8a97c1" x="336.548444" y="313.867809" style="fill: #ffbb78; fill-opacity: 0.6; stroke: #ffffff; stroke-opacity: 0.6; stroke-width: 0.5"/>
    </g>
   </g>
   <g id="text_20">
    <!-- Prompt Processing Performance -->
    <g style="fill: #262626" transform="translate(333.8725 17.391562) scale(0.14 -0.14)">
     <defs>
      <path id="Arial-BoldMT-50" d="M 466 0
L 466 4581
L 1950 4581
Q 2794 4581 3050 4513
Q 3444 4409 3709 4064
Q 3975 3719 3975 3172
Q 3975 2750 3822 2462
Q 3669 2175 3433 2011
Q 3197 1847 2953 1794
Q 2622 1728 1994 1728
L 1391 1728
L 1391 0
L 466 0
z
M 1391 3806
L 1391 2506
L 1897 2506
Q 2444 2506 2628 2578
Q 2813 2650 2917 2803
Q 3022 2956 3022 3159
Q 3022 3409 2875 3571
Q 2728 3734 2503 3775
Q 2338 3806 1838 3806
L 1391 3806
z
" transform="scale(0.015625)"/>
      <path id="Arial-BoldMT-66" d="M 75 3319
L 563 3319
L 563 3569
Q 563 3988 652 4194
Q 741 4400 980 4529
Q 1219 4659 1584 4659
Q 1959 4659 2319 4547
L 2200 3934
Q 1991 3984 1797 3984
Q 1606 3984 1523 3895
Q 1441 3806 1441 3553
L 1441 3319
L 2097 3319
L 2097 2628
L 1441 2628
L 1441 0
L 563 0
L 563 2628
L 75 2628
L 75 3319
z
" transform="scale(0.015625)"/>
      <path id="Arial-BoldMT-61" d="M 1116 2306
L 319 2450
Q 453 2931 781 3162
Q 1109 3394 1756 3394
Q 2344 3394 2631 3255
Q 2919 3116 3036 2902
Q 3153 2688 3153 2116
L 3144 1091
Q 3144 653 3186 445
Q 3228 238 3344 0
L 2475 0
Q 2441 88 2391 259
Q 2369 338 2359 363
Q 2134 144 1878 34
Q 1622 -75 1331 -75
Q 819 -75 523 203
Q 228 481 228 906
Q 228 1188 362 1408
Q 497 1628 739 1745
Q 981 1863 1438 1950
Q 2053 2066 2291 2166
L 2291 2253
Q 2291 2506 2166 2614
Q 2041 2722 1694 2722
Q 1459 2722 1328 2630
Q 1197 2538 1116 2306
z
M 2291 1594
Q 2122 1538 1756 1459
Q 1391 1381 1278 1306
Q 1106 1184 1106 997
Q 1106 813 1243 678
Q 1381 544 1594 544
Q 1831 544 2047 700
Q 2206 819 2256 991
Q 2291 1103 2291 1419
L 2291 1594
z
" transform="scale(0.015625)"/>
     </defs>
     <use xlink:href="#Arial-BoldMT-50"/>
     <use xlink:href="#Arial-BoldMT-72" transform="translate(66.699219 0)"/>
     <use xlink:href="#Arial-BoldMT-6f" transform="translate(105.615234 0)"/>
     <use xlink:href="#Arial-BoldMT-6d" transform="translate(166.699219 0)"/>
     <use xlink:href="#Arial-BoldMT-70" transform="translate(255.615234 0)"/>
     <use xlink:href="#Arial-BoldMT-74" transform="translate(316.699219 0)"/>
     <use xlink:href="#Arial-BoldMT-20" transform="translate(350 0)"/>
     <use xlink:href="#Arial-BoldMT-50" transform="translate(377.783203 0)"/>
     <use xlink:href="#Arial-BoldMT-72" transform="translate(444.482422 0)"/>
     <use xlink:href="#Arial-BoldMT-6f" transform="translate(483.398438 0)"/>
     <use xlink:href="#Arial-BoldMT-63" transform="translate(544.482422 0)"/>
     <use xlink:href="#Arial-BoldMT-65" transform="translate(600.097656 0)"/>
     <use xlink:href="#Arial-BoldMT-73" transform="translate(655.712891 0)"/>
     <use xlink:href="#Arial-BoldMT-73" transform="translate(711.328125 0)"/>
     <use xlink:href="#Arial-BoldMT-69" transform="translate(766.943359 0)"/>
     <use xlink:href="#Arial-BoldMT-6e" transform="translate(794.726562 0)"/>
     <use xlink:href="#Arial-BoldMT-67" transform="translate(855.810547 0)"/>
     <use xlink:href="#Arial-BoldMT-20" transform="translate(916.894531 0)"/>
     <use xlink:href="#Arial-BoldMT-50" transform="translate(944.677734 0)"/>
     <use xlink:href="#Arial-BoldMT-65" transform="translate(1011.376953 0)"/>
     <use xlink:href="#Arial-BoldMT-72" transform="translate(1066.992188 0)"/>
     <use xlink:href="#Arial-BoldMT-66" transform="translate(1105.908203 0)"/>
     <use xlink:href="#Arial-BoldMT-6f" transform="translate(1139.208984 0)"/>
     <use xlink:href="#Arial-BoldMT-72" transform="translate(1200.292969 0)"/>
     <use xlink:href="#Arial-BoldMT-6d" transform="translate(1239.208984 0)"/>
     <use xlink:href="#Arial-BoldMT-61" transform="translate(1328.125 0)"/>
     <use xlink:href="#Arial-BoldMT-6e" transform="translate(1383.740234 0)"/>
     <use xlink:href="#Arial-BoldMT-63" transform="translate(1444.824219 0)"/>
     <use xlink:href="#Arial-BoldMT-65" transform="translate(1500.439453 0)"/>
    </g>
    <!-- TTFT vs Input Length -->
    <g style="fill: #262626" transform="translate(371.644063 32.36325) scale(0.14 -0.14)">
     <defs>
      <path id="Arial-BoldMT-76" d="M 1372 0
L 34 3319
L 956 3319
L 1581 1625
L 1763 1059
Q 1834 1275 1853 1344
Q 1897 1484 1947 1625
L 2578 3319
L 3481 3319
L 2163 0
L 1372 0
z
" transform="scale(0.015625)"/>
      <path id="Arial-BoldMT-4c" d="M 491 0
L 491 4544
L 1416 4544
L 1416 772
L 3716 772
L 3716 0
L 491 0
z
" transform="scale(0.015625)"/>
     </defs>
     <use xlink:href="#Arial-BoldMT-54"/>
     <use xlink:href="#Arial-BoldMT-54" transform="translate(61.083984 0)"/>
     <use xlink:href="#Arial-BoldMT-46" transform="translate(122.167969 0)"/>
     <use xlink:href="#Arial-BoldMT-54" transform="translate(183.251953 0)"/>
     <use xlink:href="#Arial-BoldMT-20" transform="translate(244.335938 0)"/>
     <use xlink:href="#Arial-BoldMT-76" transform="translate(272.119141 0)"/>
     <use xlink:href="#Arial-BoldMT-73" transform="translate(327.734375 0)"/>
     <use xlink:href="#Arial-BoldMT-20" transform="translate(383.349609 0)"/>
     <use xlink:href="#Arial-BoldMT-49" transform="translate(411.132812 0)"/>
     <use xlink:href="#Arial-BoldMT-6e" transform="translate(438.916016 0)"/>
     <use xlink:href="#Arial-BoldMT-70" transform="translate(500 0)"/>
     <use xlink:href="#Arial-BoldMT-75" transform="translate(561.083984 0)"/>
     <use xlink:href="#Arial-BoldMT-74" transform="translate(622.167969 0)"/>
     <use xlink:href="#Arial-BoldMT-20" transform="translate(655.46875 0)"/>
     <use xlink:href="#Arial-BoldMT-4c" transform="translate(683.251953 0)"/>
     <use xlink:href="#Arial-BoldMT-65" transform="translate(744.335938 0)"/>
     <use xlink:href="#Arial-BoldMT-6e" transform="translate(799.951172 0)"/>
     <use xlink:href="#Arial-BoldMT-67" transform="translate(861.035156 0)"/>
     <use xlink:href="#Arial-BoldMT-74" transform="translate(922.119141 0)"/>
     <use xlink:href="#Arial-BoldMT-68" transform="translate(955.419922 0)"/>
    </g>
   </g>
   <g id="legend_1">
    <g id="patch_7">
     <path d="M 43.01 117.907
L 350.708438 117.907
Q 352.708438 117.907 352.708438 115.907
L 352.708438 59.36325
Q 352.708438 57.36325 350.708438 57.36325
L 43.01 57.36325
Q 41.01 57.36325 41.01 59.36325
L 41.01 115.907
Q 41.01 117.907 43.01 117.907
z
" style="fill: #eaeaf2; opacity: 0.9; stroke: #808080; stroke-width: 0.24; stroke-linejoin: miter"/>
    </g>
    <g id="PathCollection_5">
     <g>
      <use xlink:href="#m2551a4ac85" x="55.01" y="66.017937" style="fill: #1f77b4; fill-opacity: 0.6; stroke: #ffffff; stroke-opacity: 0.6; stroke-width: 0.5"/>
     </g>
    </g>
    <g id="text_21">
     <!-- Mac14,7 | Apple M2 (10 cores) | LM Studio -->
     <g style="fill: #262626" transform="translate(73.01 68.642937) scale(0.1 -0.1)">
      <defs>
       <path id="ArialMT-4d" d="M 475 0
L 475 4581
L 1388 4581
L 2472 1338
Q 2622 884 2691 659
Q 2769 909 2934 1394
L 4031 4581
L 4847 4581
L 4847 0
L 4263 0
L 4263 3834
L 2931 0
L 2384 0
L 1059 3900
L 1059 0
L 475 0
z
" transform="scale(0.015625)"/>
       <path id="ArialMT-61" d="M 2588 409
Q 2275 144 1986 34
Q 1697 -75 1366 -75
Q 819 -75 525 192
Q 231 459 231 875
Q 231 1119 342 1320
Q 453 1522 633 1644
Q 813 1766 1038 1828
Q 1203 1872 1538 1913
Q 2219 1994 2541 2106
Q 2544 2222 2544 2253
Q 2544 2597 2384 2738
Q 2169 2928 1744 2928
Q 1347 2928 1158 2789
Q 969 2650 878 2297
L 328 2372
Q 403 2725 575 2942
Q 747 3159 1072 3276
Q 1397 3394 1825 3394
Q 2250 3394 2515 3294
Q 2781 3194 2906 3042
Q 3031 2891 3081 2659
Q 3109 2516 3109 2141
L 3109 1391
Q 3109 606 3145 398
Q 3181 191 3288 0
L 2700 0
Q 2613 175 2588 409
z
M 2541 1666
Q 2234 1541 1622 1453
Q 1275 1403 1131 1340
Q 988 1278 909 1158
Q 831 1038 831 891
Q 831 666 1001 516
Q 1172 366 1500 366
Q 1825 366 2078 508
Q 2331 650 2450 897
Q 2541 1088 2541 1459
L 2541 1666
z
" transform="scale(0.015625)"/>
       <path id="ArialMT-63" d="M 2588 1216
L 3141 1144
Q 3050 572 2676 248
Q 2303 -75 1759 -75
Q 1078 -75 664 370
Q 250 816 250 1647
Q 250 2184 428 2587
Q 606 2991 970 3192
Q 1334 3394 1763 3394
Q 2303 3394 2647 3120
Q 2991 2847 3088 2344
L 2541 2259
Q 2463 2594 2264 2762
Q 2066 2931 1784 2931
Q 1359 2931 1093 2626
Q 828 2322 828 1663
Q 828 994 1084 691
Q 1341 388 1753 388
Q 2084 388 2306 591
Q 2528 794 2588 1216
z
" transform="scale(0.015625)"/>
       <path id="ArialMT-2c" d="M 569 0
L 569 641
L 1209 641
L 1209 0
Q 1209 -353 1084 -570
Q 959 -788 688 -906
L 531 -666
Q 709 -588 793 -436
Q 878 -284 888 0
L 569 0
z
" transform="scale(0.015625)"/>
       <path id="ArialMT-20" transform="scale(0.015625)"/>
       <path id="ArialMT-7c" d="M 588 -1347
L 588 4659
L 1078 4659
L 1078 -1347
L 588 -1347
z
" transform="scale(0.015625)"/>
       <path id="ArialMT-41" d="M -9 0
L 1750 4581
L 2403 4581
L 4278 0
L 3588 0
L 3053 1388
L 1138 1388
L 634 0
L -9 0
z
M 1313 1881
L 2866 1881
L 2388 3150
Q 2169 3728 2063 4100
Q 1975 3659 1816 3225
L 1313 1881
z
" transform="scale(0.015625)"/>
       <path id="ArialMT-70" d="M 422 -1272
L 422 3319
L 934 3319
L 934 2888
Q 1116 3141 1344 3267
Q 1572 3394 1897 3394
Q 2322 3394 2647 3175
Q 2972 2956 3137 2557
Q 3303 2159 3303 1684
Q 3303 1175 3120 767
Q 2938 359 2589 142
Q 2241 -75 1856 -75
Q 1575 -75 1351 44
Q 1128 163 984 344
L 984 -1272
L 422 -1272
z
M 931 1641
Q 931 1000 1190 694
Q 1450 388 1819 388
Q 2194 388 2461 705
Q 2728 1022 2728 1688
Q 2728 2322 2467 2637
Q 2206 2953 1844 2953
Q 1484 2953 1207 2617
Q 931 2281 931 1641
z
" transform="scale(0.015625)"/>
       <path id="ArialMT-6c" d="M 409 0
L 409 4581
L 972 4581
L 972 0
L 409 0
z
" transform="scale(0.015625)"/>
       <path id="ArialMT-65" d="M 2694 1069
L 3275 997
Q 3138 488 2766 206
Q 2394 -75 1816 -75
Q 1088 -75 661 373
Q 234 822 234 1631
Q 234 2469 665 2931
Q 1097 3394 1784 3394
Q 2450 3394 2872 2941
Q 3294 2488 3294 1666
Q 3294 1616 3291 1516
L 816 1516
Q 847 969 1125 678
Q 1403 388 1819 388
Q 2128 388 2347 550
Q 2566 713 2694 1069
z
M 847 1978
L 2700 1978
Q 2663 2397 2488 2606
Q 2219 2931 1791 2931
Q 1403 2931 1139 2672
Q 875 2413 847 1978
z
" transform="scale(0.015625)"/>
       <path id="ArialMT-28" d="M 1497 -1347
Q 1031 -759 709 28
Q 388 816 388 1659
Q 388 2403 628 3084
Q 909 3875 1497 4659
L 1900 4659
Q 1522 4009 1400 3731
Q 1209 3300 1100 2831
Q 966 2247 966 1656
Q 966 153 1900 -1347
L 1497 -1347
z
" transform="scale(0.015625)"/>
       <path id="ArialMT-6f" d="M 213 1659
Q 213 2581 725 3025
Q 1153 3394 1769 3394
Q 2453 3394 2887 2945
Q 3322 2497 3322 1706
Q 3322 1066 3130 698
Q 2938 331 2570 128
Q 2203 -75 1769 -75
Q 1072 -75 642 372
Q 213 819 213 1659
z
M 791 1659
Q 791 1022 1069 705
Q 1347 388 1769 388
Q 2188 388 2466 706
Q 2744 1025 2744 1678
Q 2744 2294 2464 2611
Q 2184 2928 1769 2928
Q 1347 2928 1069 2612
Q 791 2297 791 1659
z
" transform="scale(0.015625)"/>
       <path id="ArialMT-72" d="M 416 0
L 416 3319
L 922 3319
L 922 2816
Q 1116 3169 1280 3281
Q 1444 3394 1641 3394
Q 1925 3394 2219 3213
L 2025 2691
Q 1819 2813 1613 2813
Q 1428 2813 1281 2702
Q 1134 2591 1072 2394
Q 978 2094 978 1738
L 978 0
L 416 0
z
" transform="scale(0.015625)"/>
       <path id="ArialMT-73" d="M 197 991
L 753 1078
Q 800 744 1014 566
Q 1228 388 1613 388
Q 2000 388 2187 545
Q 2375 703 2375 916
Q 2375 1106 2209 1216
Q 2094 1291 1634 1406
Q 1016 1563 777 1677
Q 538 1791 414 1992
Q 291 2194 291 2438
Q 291 2659 392 2848
Q 494 3038 669 3163
Q 800 3259 1026 3326
Q 1253 3394 1513 3394
Q 1903 3394 2198 3281
Q 2494 3169 2634 2976
Q 2775 2784 2828 2463
L 2278 2388
Q 2241 2644 2061 2787
Q 1881 2931 1553 2931
Q 1166 2931 1000 2803
Q 834 2675 834 2503
Q 834 2394 903 2306
Q 972 2216 1119 2156
Q 1203 2125 1616 2013
Q 2213 1853 2448 1751
Q 2684 1650 2818 1456
Q 2953 1263 2953 975
Q 2953 694 2789 445
Q 2625 197 2315 61
Q 2006 -75 1616 -75
Q 969 -75 630 194
Q 291 463 197 991
z
" transform="scale(0.015625)"/>
       <path id="ArialMT-29" d="M 791 -1347
L 388 -1347
Q 1322 153 1322 1656
Q 1322 2244 1188 2822
Q 1081 3291 891 3722
Q 769 4003 388 4659
L 791 4659
Q 1378 3875 1659 3084
Q 1900 2403 1900 1659
Q 1900 816 1576 28
Q 1253 -759 791 -1347
z
" transform="scale(0.015625)"/>
       <path id="ArialMT-4c" d="M 469 0
L 469 4581
L 1075 4581
L 1075 541
L 3331 541
L 3331 0
L 469 0
z
" transform="scale(0.015625)"/>
       <path id="ArialMT-53" d="M 288 1472
L 859 1522
Q 900 1178 1048 958
Q 1197 738 1509 602
Q 1822 466 2213 466
Q 2559 466 2825 569
Q 3091 672 3220 851
Q 3350 1031 3350 1244
Q 3350 1459 3225 1620
Q 3100 1781 2813 1891
Q 2628 1963 1997 2114
Q 1366 2266 1113 2400
Q 784 2572 623 2826
Q 463 3081 463 3397
Q 463 3744 659 4045
Q 856 4347 1234 4503
Q 1613 4659 2075 4659
Q 2584 4659 2973 4495
Q 3363 4331 3572 4012
Q 3781 3694 3797 3291
L 3216 3247
Q 3169 3681 2898 3903
Q 2628 4125 2100 4125
Q 1550 4125 1298 3923
Q 1047 3722 1047 3438
Q 1047 3191 1225 3031
Q 1400 2872 2139 2705
Q 2878 2538 3153 2413
Q 3553 2228 3743 1945
Q 3934 1663 3934 1294
Q 3934 928 3725 604
Q 3516 281 3123 101
Q 2731 -78 2241 -78
Q 1619 -78 1198 103
Q 778 284 539 648
Q 300 1013 288 1472
z
" transform="scale(0.015625)"/>
       <path id="ArialMT-74" d="M 1650 503
L 1731 6
Q 1494 -44 1306 -44
Q 1000 -44 831 53
Q 663 150 594 308
Q 525 466 525 972
L 525 2881
L 113 2881
L 113 3319
L 525 3319
L 525 4141
L 1084 4478
L 1084 3319
L 1650 3319
L 1650 2881
L 1084 2881
L 1084 941
Q 1084 700 1114 631
Q 1144 563 1211 522
Q 1278 481 1403 481
Q 1497 481 1650 503
z
" transform="scale(0.015625)"/>
       <path id="ArialMT-75" d="M 2597 0
L 2597 488
Q 2209 -75 1544 -75
Q 1250 -75 995 37
Q 741 150 617 320
Q 494 491 444 738
Q 409 903 409 1263
L 409 3319
L 972 3319
L 972 1478
Q 972 1038 1006 884
Q 1059 663 1231 536
Q 1403 409 1656 409
Q 1909 409 2131 539
Q 2353 669 2445 892
Q 2538 1116 2538 1541
L 2538 3319
L 3100 3319
L 3100 0
L 2597 0
z
" transform="scale(0.015625)"/>
       <path id="ArialMT-64" d="M 2575 0
L 2575 419
Q 2259 -75 1647 -75
Q 1250 -75 917 144
Q 584 363 401 755
Q 219 1147 219 1656
Q 219 2153 384 2558
Q 550 2963 881 3178
Q 1213 3394 1622 3394
Q 1922 3394 2156 3267
Q 2391 3141 2538 2938
L 2538 4581
L 3097 4581
L 3097 0
L 2575 0
z
M 797 1656
Q 797 1019 1065 703
Q 1334 388 1700 388
Q 2069 388 2326 689
Q 2584 991 2584 1609
Q 2584 2291 2321 2609
Q 2059 2928 1675 2928
Q 1300 2928 1048 2622
Q 797 2316 797 1656
z
" transform="scale(0.015625)"/>
       <path id="ArialMT-69" d="M 425 3934
L 425 4581
L 988 4581
L 988 3934
L 425 3934
z
M 425 0
L 425 3319
L 988 3319
L 988 0
L 425 0
z
" transform="scale(0.015625)"/>
      </defs>
      <use xlink:href="#ArialMT-4d"/>
      <use xlink:href="#ArialMT-61" transform="translate(83.300781 0)"/>
      <use xlink:href="#ArialMT-63" transform="translate(138.916016 0)"/>
      <use xlink:href="#ArialMT-31" transform="translate(188.916016 0)"/>
      <use xlink:href="#ArialMT-34" transform="translate(244.53125 0)"/>
      <use xlink:href="#ArialMT-2c" transform="translate(300.146484 0)"/>
      <use xlink:href="#ArialMT-37" transform="translate(327.929688 0)"/>
      <use xlink:href="#ArialMT-20" transform="translate(383.544922 0)"/>
      <use xlink:href="#ArialMT-7c" transform="translate(411.328125 0)"/>
      <use xlink:href="#ArialMT-20" transform="translate(437.304688 0)"/>
      <use xlink:href="#ArialMT-41" transform="translate(459.587891 0)"/>
      <use xlink:href="#ArialMT-70" transform="translate(526.287109 0)"/>
      <use xlink:href="#ArialMT-70" transform="translate(581.902344 0)"/>
      <use xlink:href="#ArialMT-6c" transform="translate(637.517578 0)"/>
      <use xlink:href="#ArialMT-65" transform="translate(659.734375 0)"/>
      <use xlink:href="#ArialMT-20" transform="translate(715.349609 0)"/>
      <use xlink:href="#ArialMT-4d" transform="translate(743.132812 0)"/>
      <use xlink:href="#ArialMT-32" transform="translate(826.433594 0)"/>
      <use xlink:href="#ArialMT-20" transform="translate(882.048828 0)"/>
      <use xlink:href="#ArialMT-28" transform="translate(909.832031 0)"/>
      <use xlink:href="#ArialMT-31" transform="translate(943.132812 0)"/>
      <use xlink:href="#ArialMT-30" transform="translate(998.748047 0)"/>
      <use xlink:href="#ArialMT-20" transform="translate(1054.363281 0)"/>
      <use xlink:href="#ArialMT-63" transform="translate(1082.146484 0)"/>
      <use xlink:href="#ArialMT-6f" transform="translate(1132.146484 0)"/>
      <use xlink:href="#ArialMT-72" transform="translate(1187.761719 0)"/>
      <use xlink:href="#ArialMT-65" transform="translate(1221.0625 0)"/>
      <use xlink:href="#ArialMT-73" transform="translate(1276.677734 0)"/>
      <use xlink:href="#ArialMT-29" transform="translate(1326.677734 0)"/>
      <use xlink:href="#ArialMT-20" transform="translate(1359.978516 0)"/>
      <use xlink:href="#ArialMT-7c" transform="translate(1387.761719 0)"/>
      <use xlink:href="#ArialMT-20" transform="translate(1413.738281 0)"/>
      <use xlink:href="#ArialMT-4c" transform="translate(1441.521484 0)"/>
      <use xlink:href="#ArialMT-4d" transform="translate(1497.136719 0)"/>
      <use xlink:href="#ArialMT-20" transform="translate(1580.4375 0)"/>
      <use xlink:href="#ArialMT-53" transform="translate(1608.220703 0)"/>
      <use xlink:href="#ArialMT-74" transform="translate(1674.919922 0)"/>
      <use xlink:href="#ArialMT-75" transform="translate(1702.703125 0)"/>
      <use xlink:href="#ArialMT-64" transform="translate(1758.318359 0)"/>
      <use xlink:href="#ArialMT-69" transform="translate(1813.933594 0)"/>
      <use xlink:href="#ArialMT-6f" transform="translate(1836.150391 0)"/>
     </g>
    </g>
    <g id="PathCollection_6">
     <g>
      <use xlink:href="#m9110e1f977" x="55.01" y="80.402312" style="fill: #aec7e8; fill-opacity: 0.6; stroke: #ffffff; stroke-opacity: 0.6; stroke-width: 0.5"/>
     </g>
    </g>
    <g id="text_22">
     <!-- Mac16,10 | Apple M4 Max (40 cores) | LM Studio -->
     <g style="fill: #262626" transform="translate(73.01 83.027312) scale(0.1 -0.1)">
      <defs>
       <path id="ArialMT-78" d="M 47 0
L 1259 1725
L 138 3319
L 841 3319
L 1350 2541
Q 1494 2319 1581 2169
Q 1719 2375 1834 2534
L 2394 3319
L 3066 3319
L 1919 1756
L 3153 0
L 2463 0
L 1781 1031
L 1600 1309
L 728 0
L 47 0
z
" transform="scale(0.015625)"/>
      </defs>
      <use xlink:href="#ArialMT-4d"/>
      <use xlink:href="#ArialMT-61" transform="translate(83.300781 0)"/>
      <use xlink:href="#ArialMT-63" transform="translate(138.916016 0)"/>
      <use xlink:href="#ArialMT-31" transform="translate(188.916016 0)"/>
      <use xlink:href="#ArialMT-36" transform="translate(244.53125 0)"/>
      <use xlink:href="#ArialMT-2c" transform="translate(300.146484 0)"/>
      <use xlink:href="#ArialMT-31" transform="translate(327.929688 0)"/>
      <use xlink:href="#ArialMT-30" transform="translate(383.544922 0)"/>
      <use xlink:href="#ArialMT-20" transform="translate(439.160156 0)"/>
      <use xlink:href="#ArialMT-7c" transform="translate(466.943359 0)"/>
      <use xlink:href="#ArialMT-20" transform="translate(492.919922 0)"/>
      <use xlink:href="#ArialMT-41" transform="translate(515.203125 0)"/>
      <use xlink:href="#ArialMT-70" transform="translate(581.902344 0)"/>
      <use xlink:href="#ArialMT-70" transform="translate(637.517578 0)"/>
      <use xlink:href="#ArialMT-6c" transform="translate(693.132812 0)"/>
      <use xlink:href="#ArialMT-65" transform="translate(715.349609 0)"/>
      <use xlink:href="#ArialMT-20" transform="translate(770.964844 0)"/>
      <use xlink:href="#ArialMT-4d" transform="translate(798.748047 0)"/>
      <use xlink:href="#ArialMT-34" transform="translate(882.048828 0)"/>
      <use xlink:href="#ArialMT-20" transform="translate(937.664062 0)"/>
      <use xlink:href="#ArialMT-4d" transform="translate(965.447266 0)"/>
      <use xlink:href="#ArialMT-61" transform="translate(1048.748047 0)"/>
      <use xlink:href="#ArialMT-78" transform="translate(1104.363281 0)"/>
      <use xlink:href="#ArialMT-20" transform="translate(1154.363281 0)"/>
      <use xlink:href="#ArialMT-28" transform="translate(1182.146484 0)"/>
      <use xlink:href="#ArialMT-34" transform="translate(1215.447266 0)"/>
      <use xlink:href="#ArialMT-30" transform="translate(1271.0625 0)"/>
      <use xlink:href="#ArialMT-20" transform="translate(1326.677734 0)"/>
      <use xlink:href="#ArialMT-63" transform="translate(1354.460938 0)"/>
      <use xlink:href="#ArialMT-6f" transform="translate(1404.460938 0)"/>
      <use xlink:href="#ArialMT-72" transform="translate(1460.076172 0)"/>
      <use xlink:href="#ArialMT-65" transform="translate(1493.376953 0)"/>
      <use xlink:href="#ArialMT-73" transform="translate(1548.992188 0)"/>
      <use xlink:href="#ArialMT-29" transform="translate(1598.992188 0)"/>
      <use xlink:href="#ArialMT-20" transform="translate(1632.292969 0)"/>
      <use xlink:href="#ArialMT-7c" transform="translate(1660.076172 0)"/>
      <use xlink:href="#ArialMT-20" transform="translate(1686.052734 0)"/>
      <use xlink:href="#ArialMT-4c" transform="translate(1713.835938 0)"/>
      <use xlink:href="#ArialMT-4d" transform="translate(1769.451172 0)"/>
      <use xlink:href="#ArialMT-20" transform="translate(1852.751953 0)"/>
      <use xlink:href="#ArialMT-53" transform="translate(1880.535156 0)"/>
      <use xlink:href="#ArialMT-74" transform="translate(1947.234375 0)"/>
      <use xlink:href="#ArialMT-75" transform="translate(1975.017578 0)"/>
      <use xlink:href="#ArialMT-64" transform="translate(2030.632812 0)"/>
      <use xlink:href="#ArialMT-69" transform="translate(2086.248047 0)"/>
      <use xlink:href="#ArialMT-6f" transform="translate(2108.464844 0)"/>
     </g>
    </g>
    <g id="PathCollection_7">
     <g>
      <use xlink:href="#m351da84cf9" x="55.01" y="94.792937" style="fill: #ff7f0e; fill-opacity: 0.6; stroke: #ffffff; stroke-opacity: 0.6; stroke-width: 0.5"/>
     </g>
    </g>
    <g id="text_23">
     <!-- RTX4060Ti-PC | NVIDIA RTX 4060 Ti | Ollama -->
     <g style="fill: #262626" transform="translate(73.01 97.417937) scale(0.1 -0.1)">
      <defs>
       <path id="ArialMT-52" d="M 503 0
L 503 4581
L 2534 4581
Q 3147 4581 3465 4457
Q 3784 4334 3975 4021
Q 4166 3709 4166 3331
Q 4166 2844 3850 2509
Q 3534 2175 2875 2084
Q 3116 1969 3241 1856
Q 3506 1613 3744 1247
L 4541 0
L 3778 0
L 3172 953
Q 2906 1366 2734 1584
Q 2563 1803 2427 1890
Q 2291 1978 2150 2013
Q 2047 2034 1813 2034
L 1109 2034
L 1109 0
L 503 0
z
M 1109 2559
L 2413 2559
Q 2828 2559 3062 2645
Q 3297 2731 3419 2920
Q 3541 3109 3541 3331
Q 3541 3656 3305 3865
Q 3069 4075 2559 4075
L 1109 4075
L 1109 2559
z
" transform="scale(0.015625)"/>
       <path id="ArialMT-54" d="M 1659 0
L 1659 4041
L 150 4041
L 150 4581
L 3781 4581
L 3781 4041
L 2266 4041
L 2266 0
L 1659 0
z
" transform="scale(0.015625)"/>
       <path id="ArialMT-58" d="M 28 0
L 1800 2388
L 238 4581
L 959 4581
L 1791 3406
Q 2050 3041 2159 2844
Q 2313 3094 2522 3366
L 3444 4581
L 4103 4581
L 2494 2422
L 4228 0
L 3478 0
L 2325 1634
Q 2228 1775 2125 1941
Q 1972 1691 1906 1597
L 756 0
L 28 0
z
" transform="scale(0.015625)"/>
       <path id="ArialMT-2d" d="M 203 1375
L 203 1941
L 1931 1941
L 1931 1375
L 203 1375
z
" transform="scale(0.015625)"/>
       <path id="ArialMT-50" d="M 494 0
L 494 4581
L 2222 4581
Q 2678 4581 2919 4538
Q 3256 4481 3484 4323
Q 3713 4166 3852 3881
Q 3991 3597 3991 3256
Q 3991 2672 3619 2267
Q 3247 1863 2275 1863
L 1100 1863
L 1100 0
L 494 0
z
M 1100 2403
L 2284 2403
Q 2872 2403 3119 2622
Q 3366 2841 3366 3238
Q 3366 3525 3220 3729
Q 3075 3934 2838 4000
Q 2684 4041 2272 4041
L 1100 4041
L 1100 2403
z
" transform="scale(0.015625)"/>
       <path id="ArialMT-43" d="M 3763 1606
L 4369 1453
Q 4178 706 3683 314
Q 3188 -78 2472 -78
Q 1731 -78 1267 223
Q 803 525 561 1097
Q 319 1669 319 2325
Q 319 3041 592 3573
Q 866 4106 1370 4382
Q 1875 4659 2481 4659
Q 3169 4659 3637 4309
Q 4106 3959 4291 3325
L 3694 3184
Q 3534 3684 3231 3912
Q 2928 4141 2469 4141
Q 1941 4141 1586 3887
Q 1231 3634 1087 3207
Q 944 2781 944 2328
Q 944 1744 1114 1308
Q 1284 872 1643 656
Q 2003 441 2422 441
Q 2931 441 3284 734
Q 3638 1028 3763 1606
z
" transform="scale(0.015625)"/>
       <path id="ArialMT-4e" d="M 488 0
L 488 4581
L 1109 4581
L 3516 984
L 3516 4581
L 4097 4581
L 4097 0
L 3475 0
L 1069 3600
L 1069 0
L 488 0
z
" transform="scale(0.015625)"/>
       <path id="ArialMT-56" d="M 1803 0
L 28 4581
L 684 4581
L 1875 1253
Q 2019 853 2116 503
Q 2222 878 2363 1253
L 3600 4581
L 4219 4581
L 2425 0
L 1803 0
z
" transform="scale(0.015625)"/>
       <path id="ArialMT-49" d="M 597 0
L 597 4581
L 1203 4581
L 1203 0
L 597 0
z
" transform="scale(0.015625)"/>
       <path id="ArialMT-44" d="M 494 0
L 494 4581
L 2072 4581
Q 2606 4581 2888 4516
Q 3281 4425 3559 4188
Q 3922 3881 4101 3404
Q 4281 2928 4281 2316
Q 4281 1794 4159 1391
Q 4038 988 3847 723
Q 3656 459 3429 307
Q 3203 156 2883 78
Q 2563 0 2147 0
L 494 0
z
M 1100 541
L 2078 541
Q 2531 541 2789 625
Q 3047 709 3200 863
Q 3416 1078 3536 1442
Q 3656 1806 3656 2325
Q 3656 3044 3420 3430
Q 3184 3816 2847 3947
Q 2603 4041 2063 4041
L 1100 4041
L 1100 541
z
" transform="scale(0.015625)"/>
       <path id="ArialMT-4f" d="M 309 2231
Q 309 3372 921 4017
Q 1534 4663 2503 4663
Q 3138 4663 3647 4359
Q 4156 4056 4423 3514
Q 4691 2972 4691 2284
Q 4691 1588 4409 1038
Q 4128 488 3612 205
Q 3097 -78 2500 -78
Q 1853 -78 1343 234
Q 834 547 571 1087
Q 309 1628 309 2231
z
M 934 2222
Q 934 1394 1379 917
Q 1825 441 2497 441
Q 3181 441 3623 922
Q 4066 1403 4066 2288
Q 4066 2847 3877 3264
Q 3688 3681 3323 3911
Q 2959 4141 2506 4141
Q 1863 4141 1398 3698
Q 934 3256 934 2222
z
" transform="scale(0.015625)"/>
       <path id="ArialMT-6d" d="M 422 0
L 422 3319
L 925 3319
L 925 2853
Q 1081 3097 1340 3245
Q 1600 3394 1931 3394
Q 2300 3394 2536 3241
Q 2772 3088 2869 2813
Q 3263 3394 3894 3394
Q 4388 3394 4653 3120
Q 4919 2847 4919 2278
L 4919 0
L 4359 0
L 4359 2091
Q 4359 2428 4304 2576
Q 4250 2725 4106 2815
Q 3963 2906 3769 2906
Q 3419 2906 3187 2673
Q 2956 2441 2956 1928
L 2956 0
L 2394 0
L 2394 2156
Q 2394 2531 2256 2718
Q 2119 2906 1806 2906
Q 1569 2906 1367 2781
Q 1166 2656 1075 2415
Q 984 2175 984 1722
L 984 0
L 422 0
z
" transform="scale(0.015625)"/>
      </defs>
      <use xlink:href="#ArialMT-52"/>
      <use xlink:href="#ArialMT-54" transform="translate(70.466797 0)"/>
      <use xlink:href="#ArialMT-58" transform="translate(131.550781 0)"/>
      <use xlink:href="#ArialMT-34" transform="translate(198.25 0)"/>
      <use xlink:href="#ArialMT-30" transform="translate(253.865234 0)"/>
      <use xlink:href="#ArialMT-36" transform="translate(309.480469 0)"/>
      <use xlink:href="#ArialMT-30" transform="translate(365.095703 0)"/>
      <use xlink:href="#ArialMT-54" transform="translate(420.710938 0)"/>
      <use xlink:href="#ArialMT-69" transform="translate(478.044922 0)"/>
      <use xlink:href="#ArialMT-2d" transform="translate(500.261719 0)"/>
      <use xlink:href="#ArialMT-50" transform="translate(533.5625 0)"/>
      <use xlink:href="#ArialMT-43" transform="translate(600.261719 0)"/>
      <use xlink:href="#ArialMT-20" transform="translate(672.478516 0)"/>
      <use xlink:href="#ArialMT-7c" transform="translate(700.261719 0)"/>
      <use xlink:href="#ArialMT-20" transform="translate(726.238281 0)"/>
      <use xlink:href="#ArialMT-4e" transform="translate(754.021484 0)"/>
      <use xlink:href="#ArialMT-56" transform="translate(826.238281 0)"/>
      <use xlink:href="#ArialMT-49" transform="translate(892.9375 0)"/>
      <use xlink:href="#ArialMT-44" transform="translate(920.720703 0)"/>
      <use xlink:href="#ArialMT-49" transform="translate(992.9375 0)"/>
      <use xlink:href="#ArialMT-41" transform="translate(1020.720703 0)"/>
      <use xlink:href="#ArialMT-20" transform="translate(1081.919922 0)"/>
      <use xlink:href="#ArialMT-52" transform="translate(1109.703125 0)"/>
      <use xlink:href="#ArialMT-54" transform="translate(1180.169922 0)"/>
      <use xlink:href="#ArialMT-58" transform="translate(1241.253906 0)"/>
      <use xlink:href="#ArialMT-20" transform="translate(1307.953125 0)"/>
      <use xlink:href="#ArialMT-34" transform="translate(1335.736328 0)"/>
      <use xlink:href="#ArialMT-30" transform="translate(1391.351562 0)"/>
      <use xlink:href="#ArialMT-36" transform="translate(1446.966797 0)"/>
      <use xlink:href="#ArialMT-30" transform="translate(1502.582031 0)"/>
      <use xlink:href="#ArialMT-20" transform="translate(1558.197266 0)"/>
      <use xlink:href="#ArialMT-54" transform="translate(1584.230469 0)"/>
      <use xlink:href="#ArialMT-69" transform="translate(1641.564453 0)"/>
      <use xlink:href="#ArialMT-20" transform="translate(1663.78125 0)"/>
      <use xlink:href="#ArialMT-7c" transform="translate(1691.564453 0)"/>
      <use xlink:href="#ArialMT-20" transform="translate(1717.541016 0)"/>
      <use xlink:href="#ArialMT-4f" transform="translate(1745.324219 0)"/>
      <use xlink:href="#ArialMT-6c" transform="translate(1823.107422 0)"/>
      <use xlink:href="#ArialMT-6c" transform="translate(1845.324219 0)"/>
      <use xlink:href="#ArialMT-61" transform="translate(1867.541016 0)"/>
      <use xlink:href="#ArialMT-6d" transform="translate(1923.15625 0)"/>
      <use xlink:href="#ArialMT-61" transform="translate(2006.457031 0)"/>
     </g>
    </g>
    <g id="PathCollection_8">
     <g>
      <use xlink:href="#m358e8a97c1" x="55.01" y="109.177312" style="fill: #ffbb78; fill-opacity: 0.6; stroke: #ffffff; stroke-opacity: 0.6; stroke-width: 0.5"/>
     </g>
    </g>
    <g id="text_24">
     <!-- Radeon-Workstation | AMD Radeon RX 7900 XTX | LM Studio -->
     <g style="fill: #262626" transform="translate(73.01 111.802312) scale(0.1 -0.1)">
      <defs>
       <path id="ArialMT-6e" d="M 422 0
L 422 3319
L 928 3319
L 928 2847
Q 1294 3394 1984 3394
Q 2284 3394 2536 3286
Q 2788 3178 2913 3003
Q 3038 2828 3088 2588
Q 3119 2431 3119 2041
L 3119 0
L 2556 0
L 2556 2019
Q 2556 2363 2490 2533
Q 2425 2703 2258 2804
Q 2091 2906 1866 2906
Q 1506 2906 1245 2678
Q 984 2450 984 1813
L 984 0
L 422 0
z
" transform="scale(0.015625)"/>
       <path id="ArialMT-57" d="M 1294 0
L 78 4581
L 700 4581
L 1397 1578
Q 1509 1106 1591 641
Q 1766 1375 1797 1488
L 2669 4581
L 3400 4581
L 4056 2263
Q 4303 1400 4413 641
Q 4500 1075 4641 1638
L 5359 4581
L 5969 4581
L 4713 0
L 4128 0
L 3163 3491
Q 3041 3928 3019 4028
Q 2947 3713 2884 3491
L 1913 0
L 1294 0
z
" transform="scale(0.015625)"/>
       <path id="ArialMT-6b" d="M 425 0
L 425 4581
L 988 4581
L 988 1969
L 2319 3319
L 3047 3319
L 1778 2088
L 3175 0
L 2481 0
L 1384 1697
L 988 1316
L 988 0
L 425 0
z
" transform="scale(0.015625)"/>
      </defs>
      <use xlink:href="#ArialMT-52"/>
      <use xlink:href="#ArialMT-61" transform="translate(72.216797 0)"/>
      <use xlink:href="#ArialMT-64" transform="translate(127.832031 0)"/>
      <use xlink:href="#ArialMT-65" transform="translate(183.447266 0)"/>
      <use xlink:href="#ArialMT-6f" transform="translate(239.0625 0)"/>
      <use xlink:href="#ArialMT-6e" transform="translate(294.677734 0)"/>
      <use xlink:href="#ArialMT-2d" transform="translate(350.292969 0)"/>
      <use xlink:href="#ArialMT-57" transform="translate(383.59375 0)"/>
      <use xlink:href="#ArialMT-6f" transform="translate(476.228516 0)"/>
      <use xlink:href="#ArialMT-72" transform="translate(531.84375 0)"/>
      <use xlink:href="#ArialMT-6b" transform="translate(565.144531 0)"/>
      <use xlink:href="#ArialMT-73" transform="translate(615.144531 0)"/>
      <use xlink:href="#ArialMT-74" transform="translate(665.144531 0)"/>
      <use xlink:href="#ArialMT-61" transform="translate(692.927734 0)"/>
      <use xlink:href="#ArialMT-74" transform="translate(748.542969 0)"/>
      <use xlink:href="#ArialMT-69" transform="translate(776.326172 0)"/>
      <use xlink:href="#ArialMT-6f" transform="translate(798.542969 0)"/>
      <use xlink:href="#ArialMT-6e" transform="translate(854.158203 0)"/>
      <use xlink:href="#ArialMT-20" transform="translate(909.773438 0)"/>
      <use xlink:href="#ArialMT-7c" transform="translate(937.556641 0)"/>
      <use xlink:href="#ArialMT-20" transform="translate(963.533203 0)"/>
      <use xlink:href="#ArialMT-41" transform="translate(985.816406 0)"/>
      <use xlink:href="#ArialMT-4d" transform="translate(1052.515625 0)"/>
      <use xlink:href="#ArialMT-44" transform="translate(1135.816406 0)"/>
      <use xlink:href="#ArialMT-20" transform="translate(1208.033203 0)"/>
      <use xlink:href="#ArialMT-52" transform="translate(1235.816406 0)"/>
      <use xlink:href="#ArialMT-61" transform="translate(1308.033203 0)"/>
      <use xlink:href="#ArialMT-64" transform="translate(1363.648438 0)"/>
      <use xlink:href="#ArialMT-65" transform="translate(1419.263672 0)"/>
      <use xlink:href="#ArialMT-6f" transform="translate(1474.878906 0)"/>
      <use xlink:href="#ArialMT-6e" transform="translate(1530.494141 0)"/>
      <use xlink:href="#ArialMT-20" transform="translate(1586.109375 0)"/>
      <use xlink:href="#ArialMT-52" transform="translate(1613.892578 0)"/>
      <use xlink:href="#ArialMT-58" transform="translate(1686.109375 0)"/>
      <use xlink:href="#ArialMT-20" transform="translate(1752.808594 0)"/>
      <use xlink:href="#ArialMT-37" transform="translate(1780.591797 0)"/>
      <use xlink:href="#ArialMT-39" transform="translate(1836.207031 0)"/>
      <use xlink:href="#ArialMT-30" transform="translate(1891.822266 0)"/>
      <use xlink:href="#ArialMT-30" transform="translate(1947.4375 0)"/>
      <use xlink:href="#ArialMT-20" transform="translate(2003.052734 0)"/>
      <use xlink:href="#ArialMT-58" transform="translate(2030.835938 0)"/>
      <use xlink:href="#ArialMT-54" transform="translate(2097.535156 0)"/>
      <use xlink:href="#ArialMT-58" transform="translate(2158.619141 0)"/>
      <use xlink:href="#ArialMT-20" transform="translate(2225.318359 0)"/>
      <use xlink:href="#ArialMT-7c" transform="translate(2253.101562 0)"/>
      <use xlink:href="#ArialMT-20" transform="translate(2279.078125 0)"/>
      <use xlink:href="#ArialMT-4c" transform="translate(2306.861328 0)"/>
      <use xlink:href="#ArialMT-4d" transform="translate(2362.476562 0)"/>
      <use xlink:href="#ArialMT-20" transform="translate(2445.777344 0)"/>
      <use xlink:href="#ArialMT-53" transform="translate(2473.560547 0)"/>
      <use xlink:href="#ArialMT-74" transform="translate(2540.259766 0)"/>
      <use xlink:href="#ArialMT-75" transform="translate(2568.042969 0)"/>
      <use xlink:href="#ArialMT-64" transform="translate(2623.658203 0)"/>
      <use xlink:href="#ArialMT-69" transform="translate(2679.273438 0)"/>
      <use xlink:href="#ArialMT-6f" transform="translate(2701.490234 0)"/>
     </g>
    </g>
   </g>
  </g>
 </g>
 <defs>
  <clipPath id="p4d3b21c529">
   <rect x="36.01" y="52.36325" width="813.565" height="405.284"/>
  </clipPath>
 </defs>
</svg>
